<?xml version="1.0" encoding="utf-8"?>
<!-- Generator: Adobe Illustrator 24.1.3, SVG Export Plug-In . SVG Version: 6.00 Build 0)  -->
<svg version="1.1" id="Filled" xmlns="http://www.w3.org/2000/svg" xmlns:xlink="http://www.w3.org/1999/xlink" x="0px" y="0px"
	 viewBox="0 0 304 480" style="enable-background:new 0 0 304 480;" xml:space="preserve">
<style type="text/css">
	.st0{fill:#F4AE40;}
	.st1{fill:#F48935;}
	.st2{fill:none;}
	.st3{fill:#E07E30;}
</style>
<path class="st0" d="M296,408h-48v64H56v-64H8c0-216,32-240,32-240l64-40h96l64,40C264,168,296,192,296,408z"/>
<g>
	<path class="st1" d="M200,320h48v80h-48V320z"/>
	<path class="st1" d="M104,400H56v-80h48V400z"/>
	<path class="st1" d="M240,96c0,0-40,56-88,56S64,96,64,96l40-40h88L240,96z"/>
</g>
<path class="st2" d="M104,112c0,8.7,1.3,17.3,4,25.6C81.8,121,64,96,64,96l0,0c0,0,0,0,0.1-0.1c1.3-1,15.3-14,48.5-20.4
	C106.8,86.8,103.9,99.3,104,112z"/>
<path class="st2" d="M240,96c0,0-17.9,25-44,41.6c2.7-8.3,4-16.9,4-25.6c0.1-12.7-2.8-25.2-8.6-36.5c28,5.4,42.3,15.4,46.9,19.1
	l1.5,1.2C239.9,95.9,240,96,240,96L240,96z"/>
<path class="st3" d="M200,112c0,8.7-1.3,17.3-4,25.6c-13,8.3-28.1,14.4-44,14.4s-31-6.2-44-14.4h0c-2.7-8.3-4-16.9-4-25.6
	c-0.1-12.7,2.8-25.2,8.6-36.5c13-2.4,26.2-3.6,39.4-3.5c13.2-0.1,26.4,1.1,39.4,3.5C197.2,86.8,200.1,99.3,200,112z"/>
<path class="st0" d="M240,96c0,0-0.1-0.1-0.2-0.1c-0.3-0.2-0.7-0.6-1.5-1.2C232,89.5,206.6,72,152,72c-62,0-86.3,22.5-87.9,23.9
	c0,0,0,0-0.1,0.1l43.4-79.6c2.8-5.1,8.2-8.3,14.1-8.3h61c5.9,0,11.2,3.2,14,8.3L240,96z"/>
<path class="st3" d="M56,320h48v32H56V320z"/>
<path class="st3" d="M200,320h48v32h-48V320z"/>
<path d="M56,480h192c4.4,0,8-3.6,8-8v-56h40c4.4,0,8-3.6,8-8c0-90.2-5.5-158.5-16.2-202.9c-8-33.2-16.6-41.7-19-43.5
	c-0.2-0.1-0.4-0.3-0.6-0.4l-49.3-30.8c10.2-8.9,19.5-18.9,27.6-29.7l0,0c1.8-2.5,2-5.8,0.5-8.5l-43.5-79.6
	C199.4,4.8,191.3,0,182.5,0h-61c-8.8,0-16.9,4.8-21.1,12.5L57,92.1c-1.5,2.7-1.3,6,0.5,8.5l0,0c8.1,10.9,17.4,20.8,27.6,29.7
	l-49.3,30.8c-0.2,0.1-0.4,0.2-0.6,0.4c-2.4,1.8-10.9,10.3-19,43.5C5.5,249.5,0,317.8,0,408c0,4.4,3.6,8,8,8h40v56
	C48,476.4,51.6,480,56,480L56,480z M256,215.1c0-8.7,2-17.3,5.9-25l2.7-5.4c2.6,6.3,5.9,16,9.1,30.6c9.2,42.1,14,104.2,14.3,184.8
	h-32V215.1z M240,392h-32v-32h32V392z M240,344h-32v-16h32V344z M253.6,170.9l-6,12c-5,10-7.6,21-7.6,32.2V312h-40c-4.4,0-8,3.6-8,8
	v80c0,4.4,3.6,8,8,8h40v56h-96V159.5c2.7,0.3,5.3,0.5,8,0.5c19.9,0,38.3-8.5,53.5-19.1L253.6,170.9z M114.8,132.3
	c-1.8-6.6-2.8-13.5-2.8-20.3c-0.1-10.1,2-20.1,6-29.4c22.5-3.5,45.5-3.5,68,0c4,9.3,6.1,19.3,6,29.4c0,6.9-0.9,13.7-2.8,20.4
	c-11.3,6.8-24,11.6-37.2,11.6S126.1,139.1,114.8,132.3L114.8,132.3z M207.8,118.8c0.2-2.3,0.2-4.5,0.2-6.8c0-8.5-1.2-16.9-3.5-25.1
	c8.5,2.4,16.6,6,24.1,10.6C222.2,105.2,215.3,112.3,207.8,118.8L207.8,118.8z M114.5,20.2c1.4-2.6,4.1-4.2,7-4.2h61
	c2.9,0,5.6,1.6,7,4.2l30,55C200.6,67.8,177.9,64,152,64s-48.6,3.8-67.6,11.2L114.5,20.2z M75.4,97.5c7.5-4.6,15.6-8.2,24.1-10.6
	C97.2,95.1,96,103.5,96,112c0,2.3,0.1,4.6,0.3,6.8C88.7,112.3,81.8,105.2,75.4,97.5L75.4,97.5z M98.5,140.9c9,6.5,19,11.6,29.5,15.1
	v308H64v-56h40c4.4,0,8-3.6,8-8v-80c0-4.4-3.6-8-8-8H64v-96.9c0-11.2-2.6-22.2-7.6-32.2l-6-12L98.5,140.9z M96,360v32H64v-32H96z
	 M64,344v-16h32v16H64z M16,400c0.3-80.6,5.1-142.7,14.3-184.8c3.2-14.6,6.4-24.3,9.1-30.6l2.7,5.4c3.9,7.8,5.9,16.4,5.9,25V400H16z
	"/>
<circle cx="168" cy="184" r="8"/>
<circle cx="168" cy="248" r="8"/>
<circle cx="168" cy="312" r="8"/>
<circle cx="168" cy="376" r="8"/>
</svg>
