<?xml version="1.0" encoding="utf-8"?>
<!-- Generator: Adobe Illustrator 24.1.3, SVG Export Plug-In . SVG Version: 6.00 Build 0)  -->
<svg version="1.1" id="Lager_1" xmlns="http://www.w3.org/2000/svg" xmlns:xlink="http://www.w3.org/1999/xlink" x="0px" y="0px"
	 viewBox="0 0 414.6 512" style="enable-background:new 0 0 414.6 512;" xml:space="preserve">
<style type="text/css">
	.st0{fill:#1A396B;}
	.st1{fill:#FFE046;}
	.st2{fill:#2D56A1;}
	.st3{fill:#24447F;}
	.st4{fill:#AAAAAA;}
	.st5{fill:#9B9B9B;}
	.st6{fill:#FFD508;}
</style>
<path class="st0" d="M165.6,29.3c-1.4-1.8-3.7-5.3-3.7-5.3c7.1,11.3,20.4,25.4,45.3,39.8c21.1-12.2,33.9-24.2,41.6-34.5
	C221.2,32.8,193.4,32.8,165.6,29.3z"/>
<g>
	<path class="st1" d="M153.9,0c0,0-2.8,31.4,53.4,63.8c0,0-63.8,5.2-74.1-51L153.9,0z"/>
	<path class="st1" d="M6,480v28.5c0,2,1.6,3.6,3.6,3.6h44.3c2,0,3.6-1.6,3.6-3.6v-28.8C40.5,484.8,23.3,484.9,6,480z"/>
	<path class="st1" d="M260.7,0c0,0,2.8,31.4-53.4,63.8c0,0,63.8,5.2,74.1-51L260.7,0z"/>
	<path class="st1" d="M260.7,0c-35.6,6.1-71.2,6.1-106.8,0c0,0-1.1,12.2,11.8,29.3c27.8,3.5,55.5,3.5,83.3,0
		C261.8,12.2,260.7,0,260.7,0z"/>
</g>
<path class="st2" d="M369.4,68.1c-8.2-29.6-88-55.3-88-55.3c-10.3,56.2-74.1,51-74.1,51s-63.8,5.2-74.1-51c0,0-79.8,25.7-88,55.3
	c0,0,45.2,66.8,30.1,183.6c-15.1,116.8-5.8,177.9-5.8,177.9c91.9,14.9,183.7,14.9,275.6,0c0,0,9.4-61.2-5.8-177.9
	C324.2,134.9,369.4,68.1,369.4,68.1z"/>
<path class="st3" d="M369.4,68.1c-8.2-29.6-88-55.4-88-55.4c-0.9,4.8-2.1,9.1-3.7,13c1.1,0.5,2.2,1,3.3,1.5
	c29.8,13.8,44.4,48.1,33.7,79.2c-10.7,31.1-20.8,80.5-12.5,145.2c15.1,116.8,5.8,183.1,5.8,183.1s0,0,37-5.2c0,0,9.4-61.2-5.8-177.9
	C324.2,134.9,369.4,68.1,369.4,68.1z"/>
<path class="st4" d="M75.3,251.7C90.4,134.9,45.2,68.1,45.2,68.1S-4.4,367.4,0.3,473.6c0.1,2.9,2.1,5.3,4.8,6.1
	c17.7,5.2,35.2,5.2,52.5-0.1c2.4-0.8,4.2-2.8,4.7-5.4l7.3-44.6C69.5,429.6,60.1,368.4,75.3,251.7z"/>
<path class="st4" d="M369.4,68.1C369.4,68.1,369.4,68.1,369.4,68.1c0,0-45.2,66.8-30.1,183.6c15.1,116.8,5.8,177.9,5.8,177.9
	l7.3,44.7c0.4,2.5,2.2,4.5,4.5,5.2c17.4,5.4,35,5.3,52.7,0.1c2.7-0.8,4.6-3.2,4.7-6C419,367.6,369.4,68.1,369.4,68.1z"/>
<path class="st5" d="M369.4,68.1C369.4,68.1,369.4,68.1,369.4,68.1c0,0-7.1,10.5-14.8,30.6c12.1,77.2,42.4,280.2,40.2,369.1
	c-0.2,6.4-4.6,12.1-10.9,13.5c-3.5,0.8-7,1.4-10.5,1.8c12,1.4,24.1,0.2,36.2-3.3c2.7-0.8,4.6-3.2,4.7-6
	C419,367.6,369.4,68.1,369.4,68.1z"/>
<path class="st1" d="M357.1,479.7v28.8c0,2,1.6,3.6,3.6,3.6H405c2,0,3.6-1.6,3.6-3.6V480C391.3,484.9,374.1,484.8,357.1,479.7z"/>
<path class="st1" d="M69.5,429.6l1.1,10.1c1.4,13.1,11.7,23.5,24.8,25c74,8.1,148.6,8,223.7-0.1c13.2-1.4,23.5-11.8,24.9-25l1-10
	C252.4,444.4,160.5,444.7,69.5,429.6z"/>
<path class="st6" d="M307.5,434.8l-0.5,4.8c-1.4,13.2-11.8,23.6-24.9,25c-31.6,3.4-63,5.3-94.4,5.9c43.6,0.8,87.4-1.2,131.5-5.9
	c13.2-1.4,23.5-11.8,24.9-25l1-10C332.5,431.6,320,433.3,307.5,434.8z"/>
<path class="st4" d="M316.5,369.1c-2.2,0-4.3-0.9-5.8-2.6c-28.8-33-17.2-89.8-16.7-92.2c0.9-4.2,5-6.8,9.2-6c4.2,0.9,6.8,5,6,9.1
	c-0.1,0.5-10.5,51.8,13.2,78.9c2.8,3.2,2.5,8.1-0.7,10.9C320.2,368.5,318.3,369.1,316.5,369.1z"/>
<path class="st4" d="M98,369.1c-1.8,0-3.6-0.6-5.1-1.9c-3.2-2.8-3.5-7.7-0.7-10.9c23.7-27.2,13.4-78.4,13.3-78.9
	c-0.9-4.2,1.8-8.3,6-9.1c4.2-0.9,8.3,1.8,9.1,6c0.5,2.4,12.1,59.3-16.7,92.2C102.3,368.3,100.2,369.1,98,369.1z"/>
<path class="st4" d="M207.3,448.5c-4.3,0-7.7-3.5-7.7-7.7V63.8c0-4.3,3.5-7.7,7.7-7.7c4.3,0,7.7,3.5,7.7,7.7v377.1
	C215,445.1,211.6,448.5,207.3,448.5z"/>
<path class="st1" d="M283.9,168.5h-28.5c-7.8,0-14.2-6.4-14.2-14.2v-48.6c0-7.8,6.4-14.2,14.2-14.2h28.5c7.8,0,14.2,6.4,14.2,14.2
	v8.8c0,4.3-3.5,7.7-7.7,7.7c-4.3,0-7.7-3.5-7.7-7.7V107h-25.9v46h25.9v-7.6c0-4.3,3.5-7.7,7.7-7.7c4.3,0,7.7,3.5,7.7,7.7v8.8
	C298,162.1,291.7,168.5,283.9,168.5z"/>
</svg>
