<?xml version="1.0" encoding="utf-8"?>
<!-- Generator: Adobe Illustrator 24.1.3, SVG Export Plug-In . SVG Version: 6.00 Build 0)  -->
<svg version="1.1" id="Lager_1" xmlns="http://www.w3.org/2000/svg" xmlns:xlink="http://www.w3.org/1999/xlink" x="0px" y="0px"
	 viewBox="0 0 498 498" style="enable-background:new 0 0 498 498;" xml:space="preserve">
<style type="text/css">
	.st0{fill:#FEDB41;}
	.st1{fill:#FEA832;}
</style>
<g>
	<circle class="st0" cx="249" cy="249" r="157"/>
	<g>
		<path class="st1" d="M374,256c-3.9,0-7-3.1-7-7c-0.1-65.1-52.9-117.9-118-118c-3.9,0-7-3.1-7-7c0-3.9,3.1-7,7-7
			c72.9,0.1,131.9,59.1,132,132C381,252.9,377.9,256,374,256C374,256,374,256,374,256z"/>
		<g>
			<path class="st1" d="M249,60c11.4,0,22.8,1.1,34,3.1c0.2-2.2,0.3-4.4,0.3-6.6C283.2,25.3,249,0,249,0s-34.3,25.3-34.3,56.5
				c0,2.2,0.1,4.5,0.3,6.6C226.2,61.1,237.6,60,249,60z"/>
			<path class="st1" d="M249,438c11.4,0,22.8-1.1,34-3.1c0.2,2.2,0.3,4.4,0.3,6.6c0,31.2-34.2,56.5-34.2,56.5s-34.3-25.3-34.3-56.5
				c0-2.2,0.1-4.5,0.3-6.6C226.2,436.9,237.6,438,249,438L249,438z"/>
			<path class="st1" d="M382.6,115.4c8.1,8.1,15.4,16.9,21.8,26.2c1.7-1.4,3.3-2.9,4.9-4.5c22.1-22.1,15.7-64.2,15.7-64.2
				s-42.1-6.3-64.2,15.7c-1.6,1.6-3.1,3.2-4.5,4.9C365.8,100,374.6,107.3,382.6,115.4z"/>
			<path class="st1" d="M115.4,382.6c8.1,8.1,16.9,15.4,26.2,21.8c-1.4,1.7-2.9,3.3-4.5,4.9c-22.1,22.1-64.2,15.7-64.2,15.7
				s-6.3-42.1,15.7-64.2c1.6-1.6,3.2-3.1,4.9-4.5C100,365.8,107.3,374.6,115.4,382.6L115.4,382.6z"/>
			<path class="st1" d="M438,249c0,11.4-1.1,22.8-3.1,34c2.2,0.2,4.4,0.3,6.6,0.3c31.2,0,56.5-34.3,56.5-34.3s-25.3-34.2-56.5-34.2
				c-2.2,0-4.5,0.1-6.6,0.3C436.9,226.2,438,237.6,438,249L438,249z"/>
			<path class="st1" d="M60,249c0,11.4,1.1,22.8,3.1,34c-2.2,0.2-4.4,0.3-6.6,0.3C25.3,283.3,0,249,0,249s25.3-34.2,56.5-34.2
				c2.2,0,4.5,0.1,6.6,0.3C61.1,226.2,60,237.6,60,249z"/>
			<path class="st1" d="M382.6,382.6c-8.1,8.1-16.9,15.4-26.2,21.8c1.4,1.7,2.9,3.3,4.5,4.9c22.1,22.1,64.2,15.7,64.2,15.7
				s6.3-42.1-15.7-64.2c-1.6-1.6-3.2-3.1-4.9-4.5C398,365.8,390.7,374.6,382.6,382.6z"/>
			<path class="st1" d="M115.4,115.4c-8.1,8.1-15.4,16.9-21.8,26.2c-1.7-1.4-3.3-2.9-4.9-4.5C66.6,115,72.9,72.9,72.9,72.9
				s42.1-6.3,64.2,15.7c1.6,1.6,3.1,3.2,4.5,4.9C132.2,100,123.4,107.3,115.4,115.4z"/>
		</g>
	</g>
</g>
</svg>
