<?xml version="1.0" encoding="utf-8"?>
<!-- Generator: Adobe Illustrator 24.1.3, SVG Export Plug-In . SVG Version: 6.00 Build 0)  -->
<svg version="1.1" id="Lager_1" xmlns:svgjs="http://svgjs.com/svgjs"
	 xmlns="http://www.w3.org/2000/svg" xmlns:xlink="http://www.w3.org/1999/xlink" x="0px" y="0px" viewBox="0 0 516.4 358.3"
	 style="enable-background:new 0 0 516.4 358.3;" xml:space="preserve">
<style type="text/css">
	.st0{fill:#F0F0F0;}
	.st1{fill:#A9A9A9;}
	.st2{fill:#231F20;}
</style>
<g>
	<path class="st0" d="M24.9,240c-23,29.8-17.4,72.6,12.4,95.6c11.9,9.2,26.6,14.2,41.7,14.2h324.1c2.9,0,5.7-0.1,8.5-0.3
		c56.3-4.6,98.3-54,93.7-110.4c-4.3-53.2-48.8-94.1-102.2-94c-11.7,0-23.3,2-34.3,5.9c0.1-2,0.2-3.9,0.2-5.9
		c0-47.8-33-89.2-79.6-99.8c-1.8-0.4-3.7-0.8-5.5-1c-2.6-0.5-5.3-0.9-8-1.1c-3.1-0.3-6.1-0.4-9.2-0.4c-27.5,0-53.9,11-73.2,30.7
		c-6.5,6.5-12,14-16.4,22.1c-0.1,0.2-0.3,0.5-0.4,0.7v0.1c-3.5,6.3-6.3,13-8.3,20c-1.7,5.9-2.9,11.9-3.5,18
		c-0.4,3.6-0.6,7.2-0.6,10.8c0,4.5,0.3,8.9,0.9,13.3c-8.4-3.2-17.4-4.8-26.4-4.8c-11.5,0-22.8,2.6-33.1,7.5
		c-3.3,1.6-6.5,3.5-9.6,5.5c-1.8,1.2-3.6,2.5-5.2,3.9c-2.9,2.3-5.6,4.8-8.2,7.5c-2.5,2.6-4.7,5.3-6.7,8.3
		c-6.1,8.6-10.3,18.4-12.4,28.7c-4.9,1.1-9.7,2.9-14.2,5.1c-5.6,2.7-10.7,6.1-15.4,10.2C30.6,233.3,27.6,236.5,24.9,240z"/>
	<path class="st1" d="M63.5,215.1c2.1-10.3,6.3-20.1,12.4-28.7c2-2.9,4.3-5.7,6.7-8.3c2.5-2.7,5.3-5.2,8.2-7.5
		c1.6-1.4,3.4-2.7,5.2-3.9c3.1-2.1,6.3-3.9,9.6-5.5c10.3-4.9,21.6-7.5,33.1-7.5c9,0,18,1.6,26.4,4.8c-0.6-4.4-0.9-8.9-0.9-13.3
		c0-3.6,0.2-7.2,0.6-10.8c0.6-6.1,1.8-12.1,3.5-18c2-6.9,4.8-13.6,8.3-20v-0.1c0.2-0.2,0.3-0.4,0.4-0.7c4.4-8.1,9.9-15.5,16.4-22.1
		c19.3-19.7,45.6-30.7,73.2-30.7c3.1,0,6.1,0.2,9.2,0.4c2.7,0.3,5.4,0.6,8,1.1c-17.9-33.1-59.2-45.4-92.3-27.5
		c-20.1,10.9-33.5,31.2-35.4,54c-10-7.2-22.1-11.1-34.5-11c-33,0.1-59.8,26.9-59.7,59.9c0,5.7,0.8,11.4,2.5,16.9
		c-0.8-0.1-1.6-0.1-2.5-0.1c-28.3,0.1-51.1,23-51.1,51.3c0,17.2,8.7,33.2,23,42.6c4.6-4.1,9.8-7.5,15.4-10.2
		C53.7,217.9,58.5,216.2,63.5,215.1z"/>
	<path class="st2" d="M403.1,136.5c-8.7,0-17.3,1-25.7,3c-2.7-49.5-37.7-91.2-86-102.5c-0.8-0.2-1.6-0.3-2.3-0.5
		c-22.1-36-69.3-47.2-105.3-25.1c-16.8,10.3-29,26.8-34,45.9C115.4,41.7,75,57,59.4,91.4c-4,8.8-6,18.4-6,28.1c0,3,0.2,6.1,0.6,9.1
		c-32.6,4.3-55.6,34.2-51.3,66.9c1.8,13.7,8.3,26.4,18.5,35.8c-1,1.2-2.1,2.4-3,3.6c-10.4,13.2-16,29.7-16,46.6
		c0.1,42.4,34.4,76.7,76.8,76.8h324.1c3.2,0,6.2-0.1,9.2-0.4c61-5,106.5-58.5,101.5-119.5C509.1,180.7,460.9,136.4,403.1,136.5z
		 M61.9,145h0.7c0.3,0,0.6,0,0.9,0c2.8,0.3,5.7-0.8,7.5-3s2.4-5.2,1.6-7.9c-1.4-4.8-2.1-9.7-2.1-14.7c0-28.2,22.9-51.1,51.2-51.2
		c10.6-0.1,20.9,3.2,29.5,9.4c3.8,2.7,9.2,1.9,11.9-1.9c0.9-1.2,1.4-2.7,1.6-4.2c3-32.1,30.8-56.1,63-54.3c14.4,0.8,28,6.9,38.2,17
		c-0.5,0-1.1,0.1-1.6,0.1H264c-4,0.1-7.9,0.4-11.9,0.9l-0.5,0.1c-3.8,0.5-7.7,1.2-11.4,2.2l-0.6,0.2c-3.6,0.9-7.2,2-10.7,3.3l-1,0.4
		c-3.3,1.2-6.6,2.6-9.8,4.2c-0.5,0.2-1,0.5-1.5,0.7c-3,1.5-5.8,3.1-8.6,4.9c-0.6,0.4-1.3,0.8-1.9,1.2c-2.6,1.7-5.2,3.6-7.7,5.6
		c-0.7,0.5-1.4,1-2,1.5c-3.1,2.5-6,5.2-8.8,8c-7.1,7.1-13,15.2-17.8,24v-0.1l-0.1,0.1c-0.3,0.4-0.5,0.8-0.7,1.2
		c-3.6,6.7-6.5,13.7-8.6,21.1c-1.8,6.3-3.1,12.8-3.8,19.4c-0.5,3.9-0.7,7.9-0.7,11.9c0,0.6,0,1.1,0,1.7c-18.2-3.6-37.1-1.3-53.9,6.7
		c-3.7,1.8-7.2,3.8-10.6,6.1c-2,1.3-4,2.8-5.8,4.3c-3.2,2.5-6.2,5.3-9,8.3c-2.8,2.9-5.3,6-7.6,9.3c-5.7,8.1-9.9,17.2-12.5,26.8
		c-3.7,1.1-7.4,2.6-10.9,4.4c-3.7,1.9-7.3,4-10.6,6.4c-0.4,0.2-0.8,0.4-1.1,0.7C16.1,204,14.4,177,30.1,159.4
		C38.1,150.3,49.7,145,61.9,145z M410.8,340.9c-2.6,0.2-5.1,0.3-7.7,0.3H79c-33,0-59.7-26.7-59.7-59.7c0-13.2,4.3-26,12.4-36.4
		c2.3-3,4.9-5.8,7.8-8.3c4.1-3.6,8.7-6.6,13.6-9c3.9-2,8.1-3.4,12.4-4.4c3.2-0.8,5.7-3.4,6.4-6.6c1.9-9.2,5.6-17.9,11-25.5
		c1.8-2.6,3.8-5.1,6-7.4c2.4-2.5,4.9-4.9,7.7-7c1.3-1.2,2.8-2.2,4.3-3.2c2.7-1.8,5.6-3.5,8.5-4.9c2.2-1,4.4-1.9,6.6-2.7
		c1.6-0.6,3.3-1,5-1.5c0.6-0.2,1.1-0.3,1.7-0.5c1.8-0.4,3.6-0.8,5.4-1c0.5-0.1,1-0.2,1.5-0.3c1.6-0.2,3.3-0.4,4.9-0.5
		c0.9-0.1,1.6-0.1,2.5-0.1c1.6-0.1,3.2,0,4.8,0c0.6,0,1.1,0,1.7,0.1c1.6,0.1,3.2,0.3,4.7,0.5c0.6,0.1,1.2,0.1,1.8,0.2
		c1.6,0.3,3.2,0.6,4.8,1c0.5,0.1,1,0.2,1.5,0.3c2,0.5,4,1.2,6,1.9c4.4,1.7,9.3-0.5,11-4.9c0.5-1.3,0.7-2.8,0.5-4.2
		c-0.5-4-0.8-8.1-0.8-12.1c0-3.3,0.2-6.6,0.5-9.9c0.6-5.6,1.7-11.1,3.2-16.5c1.8-6.3,4.4-12.4,7.5-18.2c0.1-0.1,0.1-0.2,0.2-0.3
		c0.1-0.1,0.2-0.4,0.3-0.5l0,0c4-7.4,9-14.2,15-20.1c17.6-18.1,41.8-28.2,67.1-28.1c2.8,0,5.7,0.2,8.4,0.4c2.4,0.2,4.8,0.5,7.2,1
		l0.5,0.1c1.6,0.2,3.2,0.5,4.8,0.9c42.6,9.9,72.7,47.8,72.9,91.5c0,1.8-0.1,3.7-0.2,5.5c-0.2,4.7,3.4,8.7,8.2,8.9
		c1.1,0.1,2.2-0.1,3.3-0.5c10.1-3.6,20.7-5.4,31.4-5.4c51.8-0.1,93.9,41.8,94,93.7C497.2,296.2,459.6,336.9,410.8,340.9z"/>
</g>
</svg>
