<?xml version="1.0" standalone="no"?>
<!DOCTYPE svg PUBLIC "-//W3C//DTD SVG 20010904//EN"
 "http://www.w3.org/TR/2001/REC-SVG-20010904/DTD/svg10.dtd">
<svg version="1.0" xmlns="http://www.w3.org/2000/svg"
 width="700.000000pt" height="700.000000pt" viewBox="0 0 700.000000 700.000000"
 preserveAspectRatio="xMidYMid meet">
<metadata>
Created by potrace 1.11, written by Peter Selinger 2001-2013
</metadata>
<g transform="translate(0.000000,700.000000) scale(0.100000,-0.100000)"
fill="#000000" stroke="none">
<path d="M2195 6986 c-109 -35 -186 -103 -233 -204 -22 -47 -27 -72 -27 -145
l-1 -89 -79 -75 c-44 -42 -154 -146 -245 -233 -91 -86 -201 -191 -245 -233
-44 -41 -129 -123 -190 -181 l-110 -105 -43 25 c-24 14 -70 31 -104 38 -280
57 -510 -216 -408 -486 11 -29 35 -71 54 -92 l33 -40 -37 -80 c-52 -113 -73
-161 -108 -241 -61 -145 -57 -140 -114 -142 -108 -5 -214 -65 -276 -157 -45
-67 -61 -127 -58 -218 2 -63 8 -88 34 -141 35 -71 98 -134 162 -164 l39 -18 1
-70 c1 -78 1 -758 0 -792 0 -15 -15 -30 -53 -51 -66 -37 -122 -98 -156 -171
-22 -48 -26 -69 -25 -146 0 -74 5 -100 26 -145 35 -76 86 -131 155 -167 105
-56 214 -62 317 -19 36 15 38 15 60 -7 13 -12 41 -38 62 -57 22 -19 80 -71
129 -115 50 -44 92 -82 95 -85 3 -3 41 -36 85 -75 44 -38 85 -74 91 -80 6 -5
27 -25 48 -43 36 -32 37 -33 25 -75 -49 -184 55 -376 239 -441 68 -24 194 -15
263 18 73 35 142 105 176 178 26 56 28 58 67 59 23 1 55 2 71 4 84 7 274 22
385 30 105 8 151 12 260 21 109 9 122 8 135 -10 53 -79 76 -103 127 -136 73
-48 140 -64 229 -57 86 7 173 51 232 117 l42 47 80 -19 c44 -10 130 -30 190
-44 173 -40 391 -91 541 -126 l91 -21 12 -51 c30 -129 156 -245 286 -263 25
-3 45 -7 45 -9 0 -3 16 -57 36 -122 20 -64 56 -185 81 -269 l46 -152 -45 -50
c-61 -68 -89 -130 -97 -218 -13 -138 45 -257 166 -337 55 -36 131 -55 211 -52
171 6 318 145 338 317 l6 57 92 35 c50 20 102 41 116 46 14 6 101 41 194 79
l169 68 39 -35 c101 -91 255 -112 380 -54 206 97 276 341 151 531 -38 57 -126
127 -174 137 -16 4 -31 10 -33 13 -5 8 -14 81 -21 161 -3 30 -7 77 -10 105
-11 101 -14 132 -20 196 l-5 65 50 33 c180 117 206 389 52 547 l-29 30 144
400 c78 220 162 455 186 522 40 117 43 123 69 123 15 0 58 10 95 22 56 19 78
33 133 88 48 48 71 79 85 120 26 72 27 197 1 260 -42 105 -129 186 -233 216
-29 9 -53 16 -53 18 0 1 -9 42 -19 91 -11 50 -22 101 -24 115 -3 14 -15 75
-27 135 -12 61 -24 124 -26 140 -3 17 -9 46 -14 65 -5 19 -12 51 -15 70 -3 19
-28 143 -55 275 l-49 240 49 43 c159 140 168 382 20 530 -130 128 -350 139
-483 23 l-37 -33 -212 134 c-117 73 -217 135 -223 137 -5 2 -12 7 -15 11 -3 3
-79 52 -170 109 -91 56 -282 175 -424 265 l-259 162 -3 48 c-4 67 -28 133 -69
188 -72 99 -173 147 -301 144 -69 -2 -91 -7 -147 -34 -73 -36 -148 -111 -169
-168 -6 -19 -14 -34 -18 -34 -7 -1 -1275 -1 -1326 0 -38 0 -42 3 -60 42 -26
58 -102 131 -170 163 -68 32 -186 42 -249 21z m1831 -515 c14 -25 23 -50 20
-57 -13 -35 -339 -513 -346 -509 -5 3 -40 6 -78 6 -51 1 -85 -6 -129 -23 l-60
-24 -99 79 c-54 44 -180 146 -279 227 -99 82 -234 193 -301 247 l-121 99 684
0 684 -1 25 -44z m992 -334 c213 -134 497 -313 632 -397 135 -84 249 -157 254
-161 4 -4 9 -22 11 -41 1 -18 6 -51 10 -74 l7 -40 -74 -59 c-40 -33 -219 -178
-396 -323 l-324 -264 -36 16 c-21 9 -56 20 -80 25 -24 5 -45 11 -47 13 -4 4
-287 1014 -365 1303 -16 61 -36 131 -43 157 -14 45 -14 47 12 72 14 15 32 24
38 21 7 -2 187 -114 401 -248z m-2893 153 c-2 -14 -12 -79 -20 -145 -8 -66
-17 -133 -20 -150 -5 -34 -16 -118 -20 -155 -1 -14 -5 -43 -8 -65 -4 -22 -9
-60 -12 -85 -4 -25 -8 -56 -10 -70 -2 -14 -7 -50 -10 -80 -4 -30 -9 -62 -10
-70 -1 -8 -6 -44 -10 -80 -4 -36 -8 -72 -10 -80 -1 -8 -6 -41 -9 -72 -5 -34
-12 -58 -19 -58 -20 0 -121 -50 -143 -71 l-21 -20 -294 146 c-161 80 -295 147
-296 149 -2 2 -6 33 -8 69 l-5 66 52 48 c28 26 101 95 161 153 61 58 122 116
137 130 15 14 107 102 206 196 98 94 210 201 249 237 l70 65 28 -16 c22 -13
26 -22 22 -42z m406 -2 c24 -20 202 -165 394 -323 241 -197 349 -291 347 -303
-1 -9 -5 -45 -9 -80 -3 -34 -11 -66 -17 -70 -6 -3 -101 -48 -211 -98 -110 -50
-244 -112 -299 -138 -54 -25 -100 -46 -101 -46 -2 0 -52 -23 -112 -51 -59 -28
-132 -62 -161 -75 l-52 -23 -34 29 c-19 17 -39 30 -46 30 -9 0 -10 17 -5 67 4
37 8 70 10 73 1 3 6 34 9 70 4 36 11 92 16 125 5 33 12 84 15 114 4 30 8 63
11 74 2 11 6 43 9 71 2 28 7 61 9 73 3 12 7 49 11 82 3 33 8 68 10 79 2 10 6
43 10 73 3 30 8 61 10 69 4 15 17 134 18 157 0 7 22 20 49 29 26 8 50 20 54
25 8 13 14 10 65 -33z m1793 -27 c3 -9 62 -221 131 -471 69 -250 141 -509 160
-575 19 -66 41 -145 49 -175 8 -30 26 -94 39 -142 14 -49 22 -88 19 -88 -4 0
-20 12 -37 28 -16 15 -64 54 -105 87 -87 68 -490 398 -566 461 l-51 43 12 57
c15 76 2 163 -35 232 l-29 53 85 125 c46 69 84 129 84 134 0 5 3 10 8 12 4 2
38 50 76 108 38 58 75 112 82 121 18 20 71 13 78 -10z m-921 -996 c22 -19 44
-35 49 -35 8 0 4 -67 -7 -130 -2 -14 -7 -56 -11 -95 -3 -38 -8 -79 -10 -90 -2
-11 -6 -45 -9 -75 -3 -30 -9 -89 -15 -130 -5 -41 -12 -97 -15 -125 -3 -27 -7
-66 -10 -85 -2 -19 -6 -57 -9 -85 -11 -93 -18 -150 -21 -175 -2 -14 -7 -52
-10 -85 -8 -76 -14 -130 -19 -164 -2 -14 -7 -51 -11 -82 -6 -55 -7 -56 -45
-68 l-38 -11 -422 421 c-409 409 -421 422 -411 447 15 36 21 69 22 120 2 43 2
44 63 72 33 15 156 71 271 125 203 93 247 114 495 229 63 30 117 55 118 55 2
1 22 -15 45 -34z m457 -64 c25 -21 124 -102 220 -180 96 -79 186 -152 200
-164 14 -12 84 -69 155 -127 190 -153 175 -137 163 -173 -5 -18 -10 -63 -9
-102 l0 -70 -181 -110 c-99 -60 -197 -120 -217 -133 -20 -12 -159 -99 -310
-191 l-274 -169 -34 22 c-32 20 -34 24 -29 66 17 150 47 400 52 430 2 19 7 60
10 90 2 30 6 66 9 80 2 14 7 54 11 90 3 36 8 73 10 83 2 10 6 48 9 85 4 37 8
78 10 92 6 43 14 103 20 155 27 243 18 217 78 242 28 12 54 22 57 22 3 1 25
-16 50 -38z m2312 7 c55 -20 56 -21 64 -67 4 -25 8 -50 9 -56 6 -24 36 -172
40 -195 3 -14 9 -47 15 -75 6 -27 12 -61 15 -75 3 -14 12 -59 20 -100 20 -101
24 -120 30 -154 3 -15 19 -96 36 -180 33 -159 35 -173 45 -221 5 -27 0 -35
-36 -64 l-41 -33 -262 112 c-144 62 -325 139 -402 172 -77 33 -155 67 -172 74
-18 8 -48 20 -65 28 -18 8 -60 26 -93 39 l-60 25 -7 59 c-4 32 -9 66 -10 77
-3 19 78 89 414 361 70 56 149 121 175 143 134 114 199 161 213 155 8 -3 40
-14 72 -25z m-4772 -188 c159 -80 290 -150 290 -157 0 -7 -24 -19 -52 -27 -29
-9 -251 -72 -493 -141 -242 -69 -450 -130 -462 -135 -18 -7 -26 -4 -46 20
l-25 29 102 231 101 230 41 0 c59 0 135 26 191 64 26 19 51 33 55 32 4 0 138
-66 298 -146z m389 -438 c20 -21 49 -47 64 -58 l28 -19 -21 -130 c-12 -72 -23
-146 -26 -165 -3 -19 -7 -46 -9 -60 -5 -26 -9 -51 -20 -133 -4 -27 -8 -58 -11
-70 -2 -12 -6 -39 -9 -62 -5 -36 -17 -113 -29 -185 -3 -14 -5 -37 -5 -52 -1
-23 -9 -29 -58 -48 -130 -48 -225 -163 -240 -289 l-5 -47 -400 -133 -399 -132
-40 38 c-22 21 -59 48 -82 59 l-42 22 -1 442 0 441 45 24 c99 50 186 176 190
276 1 22 3 22 381 129 347 99 579 166 620 180 14 5 27 9 29 9 2 1 20 -16 40
-37z m828 -490 c224 -225 414 -416 420 -424 10 -12 10 -24 -3 -61 -9 -26 -19
-46 -22 -45 -4 1 -32 -2 -62 -7 -30 -4 -64 -9 -75 -11 -11 -1 -33 -5 -50 -8
-16 -2 -50 -8 -75 -11 -25 -3 -52 -8 -60 -10 -8 -2 -37 -6 -65 -10 -27 -3 -62
-8 -76 -10 -14 -3 -42 -7 -62 -10 -20 -3 -52 -7 -69 -10 -18 -3 -89 -14 -158
-24 l-125 -19 -18 21 c-10 12 -25 32 -35 44 -9 12 -36 36 -60 53 -29 22 -41
37 -38 48 6 21 13 59 21 132 4 30 8 57 10 60 2 3 6 30 9 60 4 30 8 66 11 80 9
56 40 255 50 325 4 22 8 47 10 55 2 8 7 42 11 75 3 33 10 66 14 74 6 12 54 35
82 40 4 0 191 -183 415 -407z m2915 -7 c172 -75 410 -177 530 -228 214 -91
216 -92 215 -122 -1 -79 31 -160 93 -235 37 -44 37 -46 25 -80 -8 -19 -75
-208 -150 -420 -75 -212 -153 -430 -173 -486 l-36 -100 -38 -3 c-21 -1 -57 -8
-80 -17 l-42 -14 -239 239 -238 239 17 61 c47 169 -39 353 -198 426 -44 20
-58 32 -59 48 0 12 -2 29 -3 37 -2 8 -7 62 -11 120 -4 58 -9 119 -10 135 -2
17 -6 68 -10 115 -3 47 -8 99 -10 116 -2 18 -7 74 -10 125 l-6 94 45 28 c24
15 50 34 56 42 7 8 14 15 16 15 1 0 144 -61 316 -135z m-739 57 c64 -32 67
-35 68 -70 1 -20 3 -48 4 -62 1 -14 5 -65 9 -115 4 -49 9 -106 11 -125 2 -19
6 -73 10 -120 4 -47 8 -101 10 -120 2 -19 6 -69 9 -110 l6 -75 -30 -13 c-17
-8 -50 -34 -75 -59 l-45 -44 -337 96 c-186 54 -351 101 -368 105 -16 5 -79 23
-140 40 -60 17 -126 36 -147 42 -28 8 -37 16 -40 37 -4 27 9 36 306 219 573
353 671 412 676 410 3 -2 35 -18 73 -36z m-1823 -831 c0 -5 -46 -49 -102 -97
-57 -49 -110 -95 -119 -104 -8 -8 -40 -35 -69 -60 -29 -25 -63 -54 -75 -65
-11 -11 -52 -47 -90 -80 -39 -33 -72 -62 -75 -65 -8 -8 -153 -135 -178 -156
-13 -10 -36 -30 -50 -44 -15 -14 -56 -50 -91 -80 -35 -30 -69 -60 -75 -65 -11
-11 -161 -142 -206 -181 -14 -12 -59 -51 -100 -87 -41 -36 -76 -64 -77 -63 -1
0 40 166 90 368 l91 366 37 6 c54 9 149 62 192 108 40 43 67 89 86 148 7 24
18 36 31 37 10 1 108 15 217 32 109 17 277 42 373 57 96 14 177 28 179 30 7 6
11 5 11 -5z m1075 -127 c187 -53 412 -118 500 -143 l160 -46 11 -50 c15 -71
42 -123 89 -171 l40 -42 -131 -396 c-72 -218 -133 -398 -135 -400 -2 -3 -20
-6 -39 -8 -35 -4 -35 -4 -107 111 -40 64 -76 122 -79 128 -3 7 -160 259 -349
560 -188 302 -340 552 -338 556 3 4 12 6 21 3 10 -3 170 -48 357 -102z m-877
-66 c-5 -24 -22 -97 -38 -163 -27 -117 -43 -185 -45 -195 0 -3 -6 -25 -12 -50
-7 -25 -31 -129 -54 -232 l-42 -186 -36 -7 c-53 -9 -130 -52 -177 -97 -37 -35
-94 -130 -94 -156 0 -5 -6 -9 -12 -9 -17 0 -203 -14 -248 -18 -19 -1 -80 -6
-135 -9 -55 -4 -116 -9 -135 -11 -19 -2 -75 -7 -125 -10 -49 -3 -117 -8 -150
-11 l-60 -5 30 28 c17 15 64 57 105 93 41 36 77 67 80 70 3 3 43 39 90 80 47
40 87 76 90 79 3 4 34 31 70 61 36 30 67 57 70 60 3 4 149 132 325 285 176
154 325 284 331 290 52 48 175 153 180 155 1 0 -2 -19 -8 -42z m717 -653 c322
-517 415 -673 407 -685 -11 -18 8 -21 -262 42 -118 27 -222 51 -230 53 -8 2
-104 24 -213 49 -109 25 -200 46 -202 46 -2 0 -11 25 -20 56 -9 31 -28 75 -42
97 -27 43 -90 107 -105 107 -4 0 -6 10 -3 23 3 12 25 108 49 212 25 105 47
201 50 215 3 14 7 34 10 45 29 122 69 295 72 315 12 66 26 99 42 103 9 2 20 1
23 -2 3 -3 194 -307 424 -676z m-2335 252 c-33 -129 -61 -245 -64 -258 -37
-170 -72 -289 -85 -289 -9 -1 -41 -9 -71 -20 -30 -10 -60 -15 -66 -12 -9 6
-86 73 -178 157 -6 6 -49 44 -96 85 -47 41 -87 77 -90 80 -3 3 -43 38 -90 79
-47 41 -91 80 -98 86 -10 9 -10 23 2 73 8 33 12 63 9 65 -3 4 310 114 352 123
6 2 109 36 229 76 l219 73 43 -42 43 -41 -59 -235z m3916 -268 l242 -242 -13
-31 c-7 -17 -16 -51 -20 -76 l-7 -45 -397 -131 -396 -132 -33 32 -32 32 132
399 133 399 34 4 c19 2 50 9 70 17 20 7 38 13 41 14 3 0 114 -108 246 -240z
m327 -664 c29 -25 75 -55 104 -67 39 -16 53 -27 54 -42 0 -12 2 -30 3 -41 2
-11 6 -54 10 -95 4 -41 9 -91 11 -110 6 -47 14 -122 20 -197 5 -60 5 -63 -22
-77 -91 -47 -167 -166 -178 -276 -2 -23 -7 -45 -10 -49 -4 -3 -131 -56 -283
-117 l-277 -112 -42 34 c-50 41 -117 72 -175 82 l-42 7 -84 275 c-78 261 -82
276 -65 290 63 53 115 148 129 235 l6 40 391 131 c216 72 394 132 395 133 2 0
27 -19 55 -44z"/>
</g>
</svg>
