<?xml version="1.0" encoding="utf-8"?>
<!-- Generator: Adobe Illustrator 24.1.3, SVG Export Plug-In . SVG Version: 6.00 Build 0)  -->
<svg version="1.1" id="Capa_1" xmlns="http://www.w3.org/2000/svg" xmlns:xlink="http://www.w3.org/1999/xlink" x="0px" y="0px"
	 viewBox="0 0 407.7 369.5" style="enable-background:new 0 0 407.7 369.5;" xml:space="preserve">
<style type="text/css">
	.st0{fill:#F48967;}
	.st1{fill:#4C382B;}
</style>
<path class="st0" d="M76.7,361.1V174.2l-69-69.8l83.8-74.6l60-21.8l2,8.9c5.2,27.7,31.9,45.9,59.5,40.7c20.6-3.9,36.8-20,40.7-40.7
	l2-8.9l59.8,21.8l83.8,74.6l-68.9,69.7v187H76.7z"/>
<path class="st1" d="M321,23.8c-0.8-0.7-1.7-1.2-2.6-1.6L257.5,0.5c-4.2-1.5-8.7,0.6-10.3,4.8c-0.3,0.7-0.4,1.5-0.5,2.3
	c0,1.8-2.6,42.3-43.2,43c-40.8-0.6-43.4-41.2-43.4-43c-0.2-4.4-4-7.8-8.4-7.6c-0.8,0-1.5,0.2-2.2,0.4l-60.8,22
	c-1,0.4-1.9,0.9-2.6,1.6L2.5,98.6c-3.2,3-3.3,8.1-0.3,11.3c0.1,0.1,0.2,0.2,0.3,0.3L69,177.5v184c0,4.4,3.6,8,8,8l0,0h253.6
	c4.4,0,8-3.6,8-8v-184l66.6-67.3c3.2-3,3.3-8.1,0.3-11.3c-0.1-0.1-0.2-0.2-0.3-0.3L321,23.8z M338.4,154.7v-37.1c0-4.4-3.6-8-8-8
	s-8,3.6-8,8v235.5H84.7V117.6c0-4.4-3.6-8-8-8s-8,3.6-8,8v37.2L19.5,105l76.2-68.2l50.1-18.1c6.2,32,37.1,52.9,69.1,46.6
	c23.6-4.6,42.1-23,46.6-46.6l50.1,18.1l75.9,68.2L338.4,154.7z"/>
</svg>
