<?xml version="1.0" encoding="utf-8"?>
<!-- Generator: Adobe Illustrator 24.1.3, SVG Export Plug-In . SVG Version: 6.00 Build 0)  -->
<svg version="1.1" id="Capa_1" xmlns="http://www.w3.org/2000/svg" xmlns:xlink="http://www.w3.org/1999/xlink" x="0px" y="0px"
	 viewBox="0 0 512 501.3" style="enable-background:new 0 0 512 501.3;" xml:space="preserve">
<style type="text/css">
	.st0{fill:#8BCDD8;}
	.st1{fill:#B9E8EF;}
	.st2{fill:#ABDFEB;}
</style>
<path class="st0" d="M330.1,86.6c-2.7-2.5-4.5-5.8-5.3-9.4C316.3,35.5,279.3,4.1,235,4.1c-12.9,0-25.2,2.7-36.4,7.5
	c-3.5,1.5-7.6,1.3-10.8-0.8C177.2,4,164.6,0,151.1,0c-34.1,0-62.4,25.1-67.4,57.8c-0.6,4.1-3.9,7.3-8,7.8C36,70.3,5.2,104,5.2,144.9
	l0,0c0,9.3,7.6,16.9,16.9,16.9h316.3c9.3,0,16.9-7.6,16.9-16.9l0,0C355.4,121.9,345.6,101.2,330.1,86.6z"/>
<path class="st1" d="M475,179.9c-3.9-3.7-6.6-8.4-7.7-13.7c-12.5-61.1-66.6-107-131.3-107c-18.9,0-36.9,3.9-53.2,11
	c-5.2,2.2-11.1,1.9-15.8-1.2c-15.5-10-33.9-15.7-53.7-15.7c-49.9,0-91.2,36.7-98.5,84.6c-0.9,6-5.7,10.7-11.8,11.4
	C45,156,0,205.3,0,265.1l0,0c0,13.6,11.1,24.7,24.7,24.7h462.6c13.6,0,24.7-11.1,24.7-24.7l0,0C512,231.5,497.8,201.2,475,179.9z"/>
<path class="st2" d="M207.8,53.4c-47.4,2.6-86,38.3-93,84.4c-0.9,6-5.7,10.7-11.8,11.4C45,156,0,205.3,0,265.1l0,0
	c0,13.6,11.1,24.7,24.7,24.7h235.9C153.4,250.9,161.9,94,207.8,53.4z"/>
<g>
	<path class="st0" d="M147.2,232.5c-4,0-7.4-3.2-7.5-7.3c-0.6-19.3,11.2-36.8,29.4-43.4c14.7-5.4,31.4-2.5,43.6,7.4
		c3.2,2.6,3.7,7.3,1.1,10.6c-2.6,3.2-7.3,3.7-10.6,1.1c-8.2-6.7-19.1-8.5-29-4.9c-12.1,4.4-20,16-19.6,28.9c0.1,4.1-3.1,7.6-7.3,7.7
		C147.3,232.5,147.3,232.5,147.2,232.5z"/>
	<path class="st0" d="M407.8,216.6c-0.8,0-1.6-0.1-2.4-0.4c-3.9-1.3-6-5.6-4.7-9.5c4.5-13.3,1.2-27.7-8.7-37.7
		c-10.6-10.6-26.4-13.7-40.3-7.7c-3.8,1.6-8.2-0.1-9.8-3.9c-1.6-3.8,0.1-8.2,3.9-9.8c19.5-8.4,41.8-4.1,56.8,10.9
		c14,14,18.7,34.4,12.3,53.1C413.9,214.6,411,216.6,407.8,216.6z"/>
	<path class="st0" d="M208.8,126.8c-0.7,0-1.5-0.1-2.2-0.3c-4-1.2-6.2-5.4-4.9-9.4c3.5-11.4,13.9-19,25.8-19
		c10.9,0,20.6,6.5,24.9,16.5c1.6,3.8-0.2,8.2-4,9.8c-3.8,1.6-8.2-0.2-9.8-4c-1.9-4.4-6.2-7.3-11-7.3c-5.3,0-9.9,3.4-11.4,8.4
		C215,124.7,212,126.8,208.8,126.8z"/>
	<path class="st0" d="M91.7,364.1c-0.9,0-1.7-0.1-2.6-0.5c-3.9-1.4-5.9-5.7-4.5-9.6l13.8-38c1.4-3.9,5.7-5.9,9.6-4.5
		c3.9,1.4,5.9,5.7,4.5,9.6l-13.8,38C97.7,362.2,94.8,364.1,91.7,364.1z"/>
	<path class="st0" d="M174.5,363.8c-0.9,0-1.7-0.1-2.6-0.5c-3.9-1.4-5.9-5.7-4.5-9.6l13.8-38c1.4-3.9,5.7-5.9,9.6-4.5
		c3.9,1.4,5.9,5.7,4.5,9.6l-13.8,38C180.4,361.9,177.5,363.8,174.5,363.8z"/>
	<path class="st0" d="M257.2,363.5c-0.9,0-1.7-0.1-2.6-0.5c-3.9-1.4-5.9-5.7-4.5-9.6l13.8-38c1.4-3.9,5.7-5.9,9.6-4.5
		c3.9,1.4,5.9,5.7,4.5,9.6l-13.8,38C263.1,361.6,260.2,363.5,257.2,363.5z"/>
	<path class="st0" d="M339.9,363.2c-0.9,0-1.7-0.1-2.6-0.5c-3.9-1.4-5.9-5.7-4.5-9.6l13.8-38c1.4-3.9,5.7-5.9,9.6-4.5
		s5.9,5.7,4.5,9.6l-13.8,38C345.8,361.3,343,363.2,339.9,363.2z"/>
	<path class="st0" d="M422.6,362.9c-0.9,0-1.7-0.1-2.6-0.5c-3.9-1.4-5.9-5.7-4.5-9.6l13.8-38c1.4-3.9,5.7-5.9,9.6-4.5
		c3.9,1.4,5.9,5.7,4.5,9.6l-13.8,38C428.6,361,425.7,362.9,422.6,362.9z"/>
	<path class="st0" d="M113,432.7c-0.9,0-1.7-0.1-2.6-0.5c-3.9-1.4-5.9-5.7-4.5-9.6l13.8-38c1.4-3.9,5.7-5.9,9.6-4.5
		c3.9,1.4,5.9,5.7,4.5,9.6l-13.8,38C118.9,430.8,116.1,432.7,113,432.7z"/>
	<path class="st0" d="M195.7,432.4c-0.9,0-1.7-0.1-2.6-0.5c-3.9-1.4-5.9-5.7-4.5-9.6l13.8-38c1.4-3.9,5.7-5.9,9.6-4.5
		c3.9,1.4,5.9,5.7,4.5,9.6l-13.8,38C201.7,430.5,198.8,432.4,195.7,432.4z"/>
	<path class="st0" d="M278.4,432.1c-0.9,0-1.7-0.1-2.6-0.5c-3.9-1.4-5.9-5.7-4.5-9.6l13.8-38c1.4-3.9,5.7-5.9,9.6-4.5
		c3.9,1.4,5.9,5.7,4.5,9.6l-13.8,38C284.4,430.2,281.5,432.1,278.4,432.1z"/>
	<path class="st0" d="M361.2,431.8c-0.9,0-1.7-0.1-2.6-0.5c-3.9-1.4-5.9-5.7-4.5-9.6l13.8-38c1.4-3.9,5.7-5.9,9.6-4.5
		c3.9,1.4,5.9,5.7,4.5,9.6l-13.8,38C367.1,429.9,364.2,431.8,361.2,431.8z"/>
	<path class="st0" d="M141.6,501.3c-0.9,0-1.7-0.1-2.6-0.5c-3.9-1.4-5.9-5.7-4.5-9.6l13.8-38c1.4-3.9,5.7-5.9,9.6-4.5
		c3.9,1.4,5.9,5.7,4.5,9.6l-13.8,38C147.5,499.4,144.6,501.3,141.6,501.3z"/>
	<path class="st0" d="M224.3,501c-0.9,0-1.7-0.1-2.6-0.5c-3.9-1.4-5.9-5.7-4.5-9.6l13.8-38c1.4-3.9,5.7-5.9,9.6-4.5
		c3.9,1.4,5.9,5.7,4.5,9.6l-13.8,38C230.2,499.1,227.4,501,224.3,501z"/>
	<path class="st0" d="M307,500.7c-0.9,0-1.7-0.1-2.6-0.5c-3.9-1.4-5.9-5.7-4.5-9.6l13.8-38c1.4-3.9,5.7-5.9,9.6-4.5
		c3.9,1.4,5.9,5.7,4.5,9.6l-13.8,38C313,498.8,310.1,500.7,307,500.7z"/>
</g>
</svg>
