<?xml version="1.0" encoding="utf-8"?>
<!-- Generator: Adobe Illustrator 24.1.3, SVG Export Plug-In . SVG Version: 6.00 Build 0)  -->
<svg version="1.1" id="Layer_1" xmlns="http://www.w3.org/2000/svg" xmlns:xlink="http://www.w3.org/1999/xlink" x="0px" y="0px"
	 viewBox="0 0 354.9 484.5" style="enable-background:new 0 0 354.9 484.5;" xml:space="preserve">
<style type="text/css">
	.st0{fill:#4E6CCA;}
	.st1{fill:#867AF4;}
	.st2{fill:#C8C5FF;}
	.st3{fill:#66B597;}
	.st4{fill:#77C9A8;}
	.st5{fill:#96E2C3;}
	.st6{fill:#AAF7D6;}
	.st7{fill:#284268;}
</style>
<path class="st0" d="M249.1,9.4v66.9c0,39.6-32.1,71.6-71.6,71.6s-71.6-32.1-71.6-71.6c0,0,0,0,0,0V9.6c6.5,13.1,16.5,24.2,28.9,32
	c12.8,8.1,27.6,12.4,42.7,12.3C207.8,53.9,235.6,36.7,249.1,9.4z"/>
<path class="st1" d="M311.8,149.9c-8.4-30.3-12.7-61.5-12.6-92.9V6h-50.1v70.4c0,39.6-32.1,71.6-71.6,71.6s-71.6-32.1-71.6-71.6
	c0,0,0,0,0,0V6H55.7v50.9c0,63.1-17.2,125-49.7,179.1v242.4h342.9V236.1C332.7,209.1,320.2,180.1,311.8,149.9z"/>
<path class="st2" d="M55.7,6v50.9c0,63.1-17.2,125-49.7,179.1v242.4h40V236.1c32.5-54.1,49.7-116,49.7-179.1V6L55.7,6z"/>
<path class="st3" d="M348.9,339.8v37.8c-19,0-19-15.1-38.1-15.1s-19,15.1-38.1,15.1s-19-15.1-38.1-15.1s-19,15.1-38.1,15.1
	s-19.1-15.1-38.1-15.1c-19.1,0-19.1,15.1-38.1,15.1s-19.1-15.1-38.1-15.1s-19.1,15.1-38.1,15.1S25,362.5,6,362.5v-37.8
	c19,0,19,15.1,38.1,15.1s19.1-15.1,38.1-15.1s19,15.1,38.1,15.1s19-15.1,38.1-15.1s19,15.1,38.1,15.1c19,0,19-15.1,38.1-15.1
	s19,15.1,38.1,15.1s19-15.1,38.1-15.1S329.8,339.8,348.9,339.8z"/>
<path class="st4" d="M348.9,302v37.8c-19,0-19-15.1-38.1-15.1s-19,15.1-38.1,15.1s-19-15.1-38.1-15.1s-19,15.1-38.1,15.1
	s-19.1-15.1-38.1-15.1c-19.1,0-19.1,15.1-38.1,15.1s-19.1-15.1-38.1-15.1s-19.1,15.1-38.1,15.1S25,324.7,6,324.7v-37.8
	c19,0,19,15.1,38.1,15.1s19.1-15.1,38.1-15.1s19,15.1,38.1,15.1s19-15.1,38.1-15.1s19,15.1,38.1,15.1c19,0,19-15.1,38.1-15.1
	s19,15.1,38.1,15.1s19-15.1,38.1-15.1S329.8,302,348.9,302z"/>
<path class="st5" d="M46,377.5v-37.8c-0.6,0-1.2,0.1-1.9,0.1c-19,0-19-15.1-38.1-15.1v37.8c19,0,19,15.1,38.1,15.1
	C44.8,377.6,45.4,377.5,46,377.5L46,377.5z"/>
<path class="st6" d="M44.1,339.8c0.7,0,1.3,0,1.9-0.1v-37.8c-0.6,0-1.2,0.1-1.9,0.1C25,302,25,286.9,6,286.9v37.8
	C25,324.7,25,339.8,44.1,339.8z"/>
<g>
	<path class="st7" d="M317.6,148.3c-8.3-29.7-12.4-60.5-12.4-91.3V6c0-3.3-2.7-6-6-6h-50.1c-3.3,0-6,2.7-6,6v2
		c-12.6,24.6-38,40-65.7,39.9c-14,0-27.7-3.9-39.5-11.4c-11.1-7-20.1-16.8-26.1-28.4V6c0-3.3-2.7-6-6-6H55.7c-3.3,0-6,2.7-6,6v50.9
		c0,62-16.9,122.9-48.8,176.1c-0.6,0.9-0.9,2-0.9,3.1v242.4c0,3.3,2.7,6,6,6h342.9c3.3,0,6-2.7,6-6V236.1c0-1.1-0.3-2.2-0.9-3.1
		C338.1,206.5,325.9,178,317.6,148.3z M342.9,472.5H12V369.2c3.7,1.1,6.3,3.1,9.3,5.5c5,3.9,11.2,8.9,22.8,8.9s17.8-4.9,22.8-8.9
		c4.4-3.5,7.9-6.3,15.3-6.3s10.9,2.8,15.3,6.3c5,3.9,11.2,8.9,22.8,8.9s17.8-4.9,22.8-8.9c4.4-3.5,7.9-6.3,15.3-6.3
		c7.4,0,10.9,2.8,15.3,6.3c5,3.9,11.2,8.9,22.8,8.9s17.8-4.9,22.8-8.9c4.4-3.5,7.9-6.3,15.3-6.3s10.9,2.8,15.3,6.3
		c5,3.9,11.2,8.9,22.8,8.9s17.8-4.9,22.8-8.9c4.4-3.5,7.9-6.3,15.3-6.3s10.9,2.8,15.3,6.3c4,3.2,8.9,7,16.8,8.4L342.9,472.5z
		 M342.9,333c-3.7-1.1-6.3-3.1-9.3-5.5c-5-3.9-11.2-8.9-22.8-8.9s-17.8,4.9-22.8,8.9c-4.4,3.5-7.9,6.3-15.3,6.3s-10.9-2.8-15.3-6.3
		c-5-3.9-11.2-8.9-22.8-8.9s-17.8,4.9-22.8,8.9c-4.4,3.5-7.9,6.3-15.3,6.3s-10.9-2.8-15.3-6.3c-5-3.9-11.2-8.9-22.8-8.9
		s-17.8,4.9-22.8,8.9c-4.4,3.5-7.9,6.3-15.3,6.3c-3.3,0-6,2.7-6,6s2.7,6,6,6c11.6,0,17.8-4.9,22.8-8.9c4.4-3.5,7.9-6.3,15.3-6.3
		s10.9,2.8,15.3,6.3c5,3.9,11.2,8.9,22.8,8.9s17.8-4.9,22.8-8.9c4.4-3.5,7.9-6.3,15.3-6.3s10.9,2.8,15.3,6.3
		c5,3.9,11.2,8.9,22.8,8.9s17.8-4.9,22.8-8.9c4.4-3.5,7.9-6.3,15.3-6.3s10.9,2.8,15.3,6.3c4,3.2,8.9,7,16.8,8.4v25.5
		c-3.7-1.1-6.3-3.1-9.3-5.5c-5-3.9-11.2-8.9-22.8-8.9s-17.8,4.9-22.8,8.9c-4.4,3.5-7.9,6.3-15.3,6.3s-10.9-2.8-15.3-6.3
		c-5-3.9-11.2-8.9-22.8-8.9s-17.8,4.9-22.8,8.9c-4.4,3.5-7.9,6.3-15.3,6.3s-10.9-2.8-15.3-6.3c-5-3.9-11.2-8.9-22.8-8.9
		s-17.8,4.9-22.8,8.9c-4.4,3.5-7.9,6.3-15.3,6.3s-10.9-2.8-15.3-6.3c-5-3.9-11.2-8.9-22.8-8.9s-17.8,4.9-22.8,8.9
		c-4.4,3.5-7.9,6.3-15.3,6.3s-10.9-2.8-15.3-6.3c-4-3.2-8.9-7-16.8-8.4v-25.5c3.7,1.1,6.3,3.1,9.3,5.5c5,3.9,11.2,8.9,22.8,8.9
		s17.8-4.9,22.8-8.9c4.4-3.5,7.9-6.3,15.3-6.3s10.9,2.8,15.3,6.3c2.6,2.1,6.4,1.7,8.4-0.9c2.1-2.6,1.7-6.4-0.9-8.4c0,0,0,0,0,0
		c-5-3.9-11.2-8.9-22.8-8.9s-17.8,4.9-22.8,8.9c-4.4,3.5-7.9,6.3-15.3,6.3s-10.9-2.8-15.3-6.3c-4-3.2-8.9-7-16.8-8.4v-25.5
		c3.7,1.1,6.3,3.1,9.3,5.5c5,3.9,11.2,8.9,22.8,8.9s17.8-4.9,22.8-8.9c4.4-3.5,7.9-6.3,15.3-6.3s10.9,2.8,15.3,6.3
		c5,3.9,11.2,8.9,22.8,8.9s17.8-4.9,22.8-8.9c4.4-3.5,7.9-6.3,15.3-6.3c7.4,0,10.9,2.8,15.3,6.3c5,3.9,11.2,8.9,22.8,8.9
		s17.8-4.9,22.8-8.9c4.4-3.5,7.9-6.3,15.3-6.3s10.9,2.8,15.3,6.3c5,3.9,11.2,8.9,22.8,8.9s17.8-4.9,22.8-8.9
		c4.4-3.5,7.9-6.3,15.3-6.3s10.9,2.8,15.3,6.3c4,3.2,8.9,7,16.8,8.4V333z M342.9,295.2c-3.7-1.1-6.3-3.1-9.3-5.5
		c-5-3.9-11.2-8.9-22.8-8.9s-17.8,4.9-22.8,8.9c-4.4,3.5-7.9,6.3-15.3,6.3s-10.9-2.8-15.3-6.3c-5-3.9-11.2-8.9-22.8-8.9
		s-17.8,4.9-22.8,8.9c-4.4,3.5-7.9,6.3-15.3,6.3s-10.9-2.8-15.3-6.3c-5-3.9-11.2-8.9-22.8-8.9s-17.8,4.9-22.8,8.9
		c-4.4,3.5-7.9,6.3-15.3,6.3s-10.9-2.8-15.3-6.3c-5-3.9-11.2-8.9-22.8-8.9s-17.8,4.9-22.8,8.9c-4.4,3.5-7.9,6.3-15.3,6.3
		s-10.9-2.8-15.3-6.3c-4-3.2-8.9-7-16.8-8.4v-43.7C44.5,183,61.7,120.5,61.7,56.9V12h38.1v64.4c0,42.9,34.8,77.6,77.6,77.6
		s77.6-34.8,77.6-77.6c0-3.3-2.7-6-6-6s-6,2.7-6,6c0,36.3-29.4,65.6-65.6,65.6s-65.6-29.4-65.6-65.6V29.5
		c5.7,6.7,12.3,12.5,19.7,17.1c13.7,8.7,29.7,13.3,45.9,13.3c25.3,0.1,49.4-11,65.7-30.4v20.9c0,3.3,2.7,6,6,6s6-2.7,6-6V12h38.1
		v44.9c0,63.6,17.2,126.1,49.7,180.8V295.2z"/>
	<path class="st7" d="M120.3,154.2C106.9,144,96.8,130,91.4,114c-1.1-3.1-4.5-4.8-7.6-3.7c-3.1,1.1-4.8,4.5-3.7,7.6
		c6.2,18.2,17.7,34.2,33,45.9c2.6,2,6.4,1.5,8.4-1.2C123.3,160,122.9,156.3,120.3,154.2z"/>
	<path class="st7" d="M142.9,166.8c-2.9-1.1-5.8-2.3-8.6-3.7c-3-1.5-6.6-0.3-8,2.7c-1.5,3-0.3,6.6,2.7,8l0,0c3.2,1.6,6.5,3,9.8,4.2
		c3.1,1.1,6.6-0.5,7.7-3.7C147.6,171.3,146,167.9,142.9,166.8L142.9,166.8z"/>
</g>
</svg>
