<?xml version="1.0" encoding="utf-8"?>
<!-- Generator: Adobe Illustrator 24.1.3, SVG Export Plug-In . SVG Version: 6.00 Build 0)  -->
<svg version="1.1" id="Lager_1" xmlns="http://www.w3.org/2000/svg" xmlns:xlink="http://www.w3.org/1999/xlink" x="0px" y="0px"
	 viewBox="0 0 1530.8 371.7" style="enable-background:new 0 0 1530.8 371.7;" xml:space="preserve">
<style type="text/css">
	.st0{enable-background:new    ;}
	.st1{fill:#F0C900;}
</style>
<g class="st0">
	<path class="st1" d="M15.3,193.7c0-26.7,6.3-48.3,19-64.5c12.7-16.3,29.3-24.4,49.8-24.4c20.4,0,36.6,7,48.5,20.9V34.8h29.8v247.5
		H135l-1.5-18.7c-11.9,14.6-28.5,21.9-49.8,21.9c-20.2,0-36.7-8.3-49.4-24.8c-12.7-16.5-19.1-38.1-19.1-64.8V193.7z M45.1,197.1
		c0,19.8,4.1,35.2,12.2,46.4c8.2,11.2,19.4,16.8,33.8,16.8c18.9,0,32.7-8.5,41.4-25.5v-80.1C123.7,138.2,110,130,91.5,130
		c-14.6,0-26,5.6-34.2,16.9C49.2,158.2,45.1,174.9,45.1,197.1z"/>
	<path class="st1" d="M281,285.5c-23.6,0-42.9-7.8-57.7-23.3c-14.8-15.5-22.2-36.3-22.2-62.3v-5.5c0-17.3,3.3-32.7,9.9-46.3
		c6.6-13.6,15.8-24.2,27.7-31.9c11.9-7.7,24.7-11.5,38.6-11.5c22.7,0,40.3,7.5,52.9,22.4c12.6,14.9,18.9,36.3,18.9,64.1v12.4H230.9
		c0.4,17.2,5.5,31.1,15.1,41.7c9.6,10.6,21.8,15.9,36.7,15.9c10.5,0,19.4-2.1,26.7-6.4c7.3-4.3,13.7-10,19.2-17.1l18.2,14.2
		C332.1,274.3,310.2,285.5,281,285.5z M277.3,129.2c-12,0-22.1,4.4-30.3,13.1c-8.2,8.8-13.2,21-15.1,36.8h87.3v-2.3
		c-0.9-15.1-4.9-26.9-12.2-35.2C299.7,133.4,289.8,129.2,277.3,129.2z"/>
	<path class="st1" d="M453.4,261.2c10.6,0,19.9-3.2,27.9-9.7c7.9-6.4,12.4-14.5,13.2-24.2h28.2c-0.5,10-4,19.5-10.3,28.5
		c-6.3,9-14.8,16.2-25.4,21.6c-10.6,5.4-21.8,8.1-33.6,8.1c-23.7,0-42.6-7.9-56.6-23.8c-14-15.8-21-37.5-21-65v-5
		c0-17,3.1-32.1,9.3-45.3c6.2-13.2,15.2-23.5,26.8-30.8c11.7-7.3,25.4-11,41.3-11c19.5,0,35.8,5.9,48.7,17.6
		c12.9,11.7,19.8,26.9,20.7,45.6h-28.2c-0.9-11.3-5.1-20.5-12.8-27.8c-7.7-7.3-17.2-10.9-28.4-10.9c-15.1,0-26.9,5.5-35.2,16.4
		c-8.3,10.9-12.5,26.7-12.5,47.3v5.6c0,20.1,4.1,35.6,12.4,46.4C426.2,255.8,438.1,261.2,453.4,261.2z"/>
	<path class="st1" d="M628.6,285.5c-23.6,0-42.9-7.8-57.7-23.3c-14.8-15.5-22.2-36.3-22.2-62.3v-5.5c0-17.3,3.3-32.7,9.9-46.3
		c6.6-13.6,15.8-24.2,27.7-31.9c11.9-7.7,24.7-11.5,38.6-11.5c22.7,0,40.3,7.5,52.9,22.4c12.6,14.9,18.9,36.3,18.9,64.1v12.4H578.5
		c0.4,17.2,5.5,31.1,15.1,41.7c9.6,10.6,21.8,15.9,36.7,15.9c10.5,0,19.4-2.1,26.7-6.4c7.3-4.3,13.7-10,19.2-17.1l18.2,14.2
		C679.7,274.3,657.8,285.5,628.6,285.5z M624.9,129.2c-12,0-22.1,4.4-30.3,13.1c-8.2,8.8-13.2,21-15.1,36.8h87.3v-2.3
		c-0.9-15.1-4.9-26.9-12.2-35.2C647.2,133.4,637.3,129.2,624.9,129.2z"/>
	<path class="st1" d="M763.4,282.3h-29.8V34.8h29.8V282.3z"/>
	<path class="st1" d="M883.5,285.5c-23.6,0-42.9-7.8-57.7-23.3C811,246.7,803.6,226,803.6,200v-5.5c0-17.3,3.3-32.7,9.9-46.3
		c6.6-13.6,15.8-24.2,27.7-31.9c11.9-7.7,24.7-11.5,38.6-11.5c22.7,0,40.3,7.5,52.9,22.4c12.6,14.9,18.9,36.3,18.9,64.1v12.4H833.4
		c0.4,17.2,5.5,31.1,15.1,41.7c9.6,10.6,21.8,15.9,36.7,15.9c10.5,0,19.4-2.1,26.7-6.4c7.3-4.3,13.7-10,19.2-17.1l18.2,14.2
		C934.6,274.3,912.7,285.5,883.5,285.5z M879.8,129.2c-12,0-22.1,4.4-30.3,13.1c-8.2,8.8-13.2,21-15.1,36.8h87.3v-2.3
		c-0.9-15.1-4.9-26.9-12.2-35.2C902.1,133.4,892.2,129.2,879.8,129.2z"/>
</g>
<g class="st0">
	<path class="st1" d="M1070.2,134.7c-4.5-0.8-9.4-1.1-14.7-1.1c-19.6,0-32.8,8.3-39.8,25v123.8H986V108h29l0.5,20.1
		c9.8-15.6,23.6-23.4,41.6-23.4c5.8,0,10.2,0.8,13.2,2.3V134.7z"/>
</g>
<g class="st0">
	<path class="st1" d="M1198.8,282.3c-1.7-3.4-3.1-9.6-4.2-18.4c-13.9,14.4-30.4,21.6-49.6,21.6c-17.2,0-31.3-4.9-42.3-14.6
		c-11-9.7-16.5-22-16.5-37c0-18.2,6.9-32.3,20.7-42.3c13.8-10,33.2-15.1,58.2-15.1h29v-13.7c0-10.4-3.1-18.7-9.3-24.9
		c-6.2-6.2-15.4-9.3-27.6-9.3c-10.6,0-19.6,2.7-26.7,8.1c-7.2,5.4-10.8,11.9-10.8,19.5h-30c0-8.7,3.1-17.1,9.3-25.2
		c6.2-8.1,14.6-14.5,25.1-19.3c10.6-4.7,22.2-7.1,34.9-7.1c20.1,0,35.8,5,47.2,15.1c11.4,10,17.3,23.9,17.7,41.5v80.2
		c0,16,2,28.7,6.1,38.2v2.6H1198.8z M1149.4,259.6c9.3,0,18.2-2.4,26.6-7.3s14.4-11.1,18.2-18.9v-35.8h-23.4
		c-36.5,0-54.8,10.7-54.8,32.1c0,9.3,3.1,16.7,9.3,21.9C1131.6,256.9,1139.6,259.6,1149.4,259.6z"/>
	<path class="st1" d="M1311.1,65.7V108h32.5v23h-32.5v108.3c0,7,1.5,12.2,4.4,15.7c2.9,3.5,7.8,5.2,14.8,5.2c3.4,0,8.2-0.6,14.2-1.9
		v24c-7.8,2.1-15.5,3.2-22.9,3.2c-13.3,0-23.4-4-30.1-12.1s-10.2-19.5-10.2-34.3V131h-31.7v-23h31.7V65.7H1311.1z"/>
	<path class="st1" d="M1450.8,285.5c-23.6,0-42.9-7.8-57.7-23.3c-14.8-15.5-22.2-36.3-22.2-62.3v-5.5c0-17.3,3.3-32.7,9.9-46.3
		c6.6-13.6,15.8-24.2,27.7-31.9c11.9-7.7,24.7-11.5,38.6-11.5c22.7,0,40.3,7.5,52.9,22.4c12.6,14.9,18.9,36.3,18.9,64.1v12.4h-118.1
		c0.4,17.2,5.5,31.1,15.1,41.7c9.6,10.6,21.8,15.9,36.7,15.9c10.5,0,19.4-2.1,26.7-6.4c7.3-4.3,13.7-10,19.2-17.1l18.2,14.2
		C1502,274.3,1480.1,285.5,1450.8,285.5z M1447.1,129.2c-12,0-22.1,4.4-30.3,13.1c-8.2,8.8-13.2,21-15.1,36.8h87.3v-2.3
		c-0.9-15.1-4.9-26.9-12.2-35.2C1469.5,133.4,1459.6,129.2,1447.1,129.2z"/>
</g>
</svg>
