<?xml version="1.0" encoding="utf-8"?>
<!-- Generator: Adobe Illustrator 24.1.3, SVG Export Plug-In . SVG Version: 6.00 Build 0)  -->
<svg version="1.1" id="Lager_1" xmlns="http://www.w3.org/2000/svg" xmlns:xlink="http://www.w3.org/1999/xlink" x="0px" y="0px"
	 viewBox="0 0 1116.7 371.7" style="enable-background:new 0 0 1116.7 371.7;" xml:space="preserve">
<style type="text/css">
	.st0{enable-background:new    ;}
	.st1{fill:#43AFCA;}
</style>
<g class="st0">
	<path class="st1" d="M169.8,197.1c0,26.5-6.1,47.9-18.2,64.1c-12.1,16.2-28.6,24.3-49.3,24.3c-21.2,0-37.8-6.7-50-20.1v84H22.6V108
		h27.2l1.5,19.3c12.1-15,29-22.6,50.6-22.6c20.9,0,37.5,7.9,49.7,23.7c12.2,15.8,18.3,37.8,18.3,65.9V197.1z M140,193.7
		c0-19.7-4.2-35.2-12.6-46.6C119.1,135.7,107.6,130,93,130c-18,0-31.6,8-40.6,24v83.3c8.9,15.9,22.6,23.8,40.9,23.8
		c14.3,0,25.6-5.7,34.1-17C135.8,232.9,140,216,140,193.7z"/>
</g>
<g class="st0">
	<path class="st1" d="M292,134.7c-4.5-0.8-9.4-1.1-14.7-1.1c-19.6,0-32.8,8.3-39.8,25v123.8h-29.8V108h29l0.5,20.1
		c9.8-15.6,23.6-23.4,41.6-23.4c5.8,0,10.2,0.8,13.2,2.3V134.7z"/>
</g>
<g class="st0">
	<path class="st1" d="M388.7,285.5c-23.6,0-42.9-7.8-57.7-23.3c-14.8-15.5-22.2-36.3-22.2-62.3v-5.5c0-17.3,3.3-32.7,9.9-46.3
		c6.6-13.6,15.8-24.2,27.7-31.9c11.9-7.7,24.7-11.5,38.6-11.5c22.7,0,40.3,7.5,52.9,22.4c12.6,14.9,18.9,36.3,18.9,64.1v12.4H338.5
		c0.4,17.2,5.5,31.1,15.1,41.7c9.6,10.6,21.8,15.9,36.7,15.9c10.5,0,19.4-2.1,26.7-6.4c7.3-4.3,13.7-10,19.2-17.1l18.2,14.2
		C439.8,274.3,417.9,285.5,388.7,285.5z M385,129.2c-12,0-22.1,4.4-30.3,13.1c-8.2,8.8-13.2,21-15.1,36.8h87.3v-2.3
		c-0.9-15.1-4.9-26.9-12.2-35.2C407.3,133.4,397.4,129.2,385,129.2z"/>
	<path class="st1" d="M638.4,197.1c0,26.5-6.1,47.9-18.2,64.1c-12.1,16.2-28.6,24.3-49.3,24.3c-21.2,0-37.8-6.7-50-20.1v84h-29.8
		V108h27.2l1.5,19.3c12.1-15,29-22.6,50.6-22.6c20.9,0,37.5,7.9,49.7,23.7c12.2,15.8,18.3,37.8,18.3,65.9V197.1z M608.6,193.7
		c0-19.7-4.2-35.2-12.6-46.6c-8.4-11.4-19.9-17.1-34.5-17.1c-18,0-31.6,8-40.6,24v83.3c8.9,15.9,22.6,23.8,40.9,23.8
		c14.3,0,25.6-5.7,34.1-17C604.4,232.9,608.6,216,608.6,193.7z"/>
	<path class="st1" d="M783.9,282.3c-1.7-3.4-3.1-9.6-4.2-18.4c-13.9,14.4-30.4,21.6-49.6,21.6c-17.2,0-31.3-4.9-42.3-14.6
		c-11-9.7-16.5-22-16.5-37c0-18.2,6.9-32.3,20.7-42.3c13.8-10,33.2-15.1,58.2-15.1h29v-13.7c0-10.4-3.1-18.7-9.3-24.9
		c-6.2-6.2-15.4-9.3-27.6-9.3c-10.6,0-19.6,2.7-26.7,8.1c-7.2,5.4-10.8,11.9-10.8,19.5h-30c0-8.7,3.1-17.1,9.3-25.2
		c6.2-8.1,14.6-14.5,25.1-19.3c10.6-4.7,22.2-7.1,34.9-7.1c20.1,0,35.8,5,47.2,15.1c11.4,10,17.3,23.9,17.7,41.5v80.2
		c0,16,2,28.7,6.1,38.2v2.6H783.9z M734.4,259.6c9.3,0,18.2-2.4,26.6-7.3s14.4-11.1,18.2-18.9v-35.8h-23.4
		c-36.5,0-54.8,10.7-54.8,32.1c0,9.3,3.1,16.7,9.3,21.9C716.7,256.9,724.7,259.6,734.4,259.6z"/>
</g>
<g class="st0">
	<path class="st1" d="M940.1,134.7c-4.5-0.8-9.4-1.1-14.7-1.1c-19.6,0-32.8,8.3-39.8,25v123.8h-29.8V108h29l0.5,20.1
		c9.8-15.6,23.6-23.4,41.6-23.4c5.8,0,10.2,0.8,13.2,2.3V134.7z"/>
</g>
<g class="st0">
	<path class="st1" d="M1036.7,285.5c-23.6,0-42.9-7.8-57.7-23.3c-14.8-15.5-22.2-36.3-22.2-62.3v-5.5c0-17.3,3.3-32.7,9.9-46.3
		c6.6-13.6,15.8-24.2,27.7-31.9c11.9-7.7,24.7-11.5,38.6-11.5c22.7,0,40.3,7.5,52.9,22.4c12.6,14.9,18.9,36.3,18.9,64.1v12.4H986.6
		c0.4,17.2,5.5,31.1,15.1,41.7c9.6,10.6,21.8,15.9,36.7,15.9c10.5,0,19.4-2.1,26.7-6.4c7.3-4.3,13.7-10,19.2-17.1l18.2,14.2
		C1087.9,274.3,1065.9,285.5,1036.7,285.5z M1033,129.2c-12,0-22.1,4.4-30.3,13.1c-8.2,8.8-13.2,21-15.1,36.8h87.3v-2.3
		c-0.9-15.1-4.9-26.9-12.2-35.2C1055.4,133.4,1045.5,129.2,1033,129.2z"/>
</g>
</svg>
