<?xml version="1.0"?>
<svg xmlns="http://www.w3.org/2000/svg" xmlns:xlink="http://www.w3.org/1999/xlink" xmlns:svgjs="http://svgjs.com/svgjs" version="1.1" width="512" height="512" x="0" y="0" viewBox="0 0 512 512" style="enable-background:new 0 0 512 512" xml:space="preserve" class=""><g>
<g xmlns="http://www.w3.org/2000/svg">
	<g>
		<path style="" d="M354.336,469.013c-3.896-0.004-7.328-2.562-8.448-6.293l-11.302-37.603    c-1.365-4.656,1.284-9.54,5.93-10.936c4.647-1.396,9.549,1.221,10.975,5.858l11.302,37.603c0.797,2.673,0.285,5.566-1.379,7.804    S357.126,469.007,354.336,469.013z" fill="#b0b5b6" data-original="#a5a5a4" class=""/>
		<path style="" d="M386.478,484.552c-4.231,0-7.868-3.001-8.671-7.156c-0.802-4.155,1.455-8.295,5.382-9.87    l39.19-15.715c2.927-1.173,6.259-0.696,8.738,1.253c2.48,1.949,3.732,5.072,3.284,8.194c-0.448,3.122-2.527,5.768-5.454,6.941    l-39.19,15.715C388.716,484.333,387.602,484.55,386.478,484.552z" fill="#b0b5b6" data-original="#a5a5a4" class=""/>
		<path style="" d="M447.552,432.728c-4.535-0.004-8.329-3.444-8.776-7.957l-3.534-35.663    c-0.325-3.146,1.057-6.226,3.624-8.073c2.567-1.848,5.926-2.18,8.806-0.873c2.88,1.308,4.84,4.056,5.138,7.205l3.534,35.663    c0.232,2.33-0.472,4.656-1.956,6.467c-1.484,1.811-3.627,2.958-5.957,3.188C448.139,432.714,447.845,432.729,447.552,432.728z" fill="#b0b5b6" data-original="#a5a5a4" class=""/>
		<path style="" d="M450.293,345.871c-2.869-0.004-5.558-1.401-7.211-3.747s-2.065-5.347-1.104-8.051l26.31-73.802    c1.638-4.592,6.688-6.987,11.28-5.349c4.592,1.638,6.987,6.688,5.349,11.28l-26.31,73.802    C457.354,343.52,454.026,345.868,450.293,345.871z" fill="#b0b5b6" data-original="#a5a5a4" class=""/>
		<path style="" d="M480.302,221.22c-4.206-0.004-7.824-2.975-8.647-7.099l-16.069-80.509    c-0.617-3.092,0.462-6.279,2.831-8.36c2.369-2.081,5.668-2.74,8.655-1.728c2.987,1.011,5.207,3.539,5.824,6.631l16.069,80.509    c0.516,2.594-0.158,5.283-1.836,7.327C485.452,220.035,482.946,221.22,480.302,221.22z" fill="#b0b5b6" data-original="#a5a5a4" class=""/>
		<path style="" d="M434.75,104.164c-1.66,0.001-3.286-0.468-4.69-1.353l-92.69-58.259    c-4.117-2.599-5.352-8.041-2.76-12.163c2.591-4.122,8.03-5.368,12.157-2.785l92.69,58.259c3.332,2.094,4.876,6.142,3.784,9.923    C442.149,101.566,438.686,104.168,434.75,104.164z" fill="#b0b5b6" data-original="#a5a5a4" class=""/>
		<path style="" d="M291.31,35.31h-97.103c-4.875,0-8.828-3.952-8.828-8.828s3.952-8.828,8.828-8.828h97.103    c4.875,0,8.828,3.952,8.828,8.828S296.186,35.31,291.31,35.31z" fill="#b0b5b6" data-original="#a5a5a4" class=""/>
		<path style="" d="M83.862,108.845c-3.611,0.001-6.859-2.198-8.199-5.551c-1.341-3.353-0.503-7.185,2.113-9.673    l61.793-58.793c3.533-3.361,9.121-3.222,12.483,0.31c3.361,3.533,3.222,9.121-0.31,12.483l-61.793,58.793    C88.308,107.977,86.128,108.847,83.862,108.845z" fill="#b0b5b6" data-original="#a5a5a4" class=""/>
		<path style="" d="M37.246,178.849c-2.985-0.006-5.765-1.519-7.391-4.022c-1.627-2.503-1.88-5.658-0.673-8.388    l13.776-31.069c1.976-4.456,7.19-6.467,11.647-4.491c4.456,1.976,6.467,7.19,4.491,11.647l-13.776,31.068    C43.904,176.788,40.739,178.848,37.246,178.849z" fill="#b0b5b6" data-original="#a5a5a4" class=""/>
		<path style="" d="M26.483,291.31c-4.875,0-8.828-3.952-8.828-8.828V220.69c0-4.875,3.952-8.828,8.828-8.828    s8.828,3.952,8.828,8.828v61.793C35.31,287.358,31.358,291.31,26.483,291.31z" fill="#b0b5b6" data-original="#a5a5a4" class=""/>
		<path style="" d="M86.151,370.845c-2.162,0.002-4.249-0.793-5.862-2.233l-39.897-35.483    c-3.642-3.24-3.968-8.819-0.728-12.461c3.24-3.642,8.819-3.968,12.461-0.728l39.897,35.483c2.738,2.436,3.686,6.31,2.382,9.735    C93.1,368.582,89.816,370.846,86.151,370.845L86.151,370.845z" fill="#b0b5b6" data-original="#a5a5a4" class=""/>
		<path style="" d="M132.319,386.383c-4.743-0.004-8.635-3.754-8.814-8.493c-0.18-4.739,3.417-8.773,8.146-9.136    l61.966-4.767c4.861-0.374,9.105,3.264,9.478,8.125s-3.264,9.105-8.125,9.478l-61.966,4.767    C132.776,386.375,132.543,386.383,132.319,386.383z" fill="#b0b5b6" data-original="#a5a5a4" class=""/>
		<path style="" d="M309.681,400.155c-0.674,0-1.347-0.077-2.004-0.228l-63.207-14.656    c-3.084-0.702-5.557-3-6.483-6.024c-0.926-3.025-0.162-6.313,2.001-8.621c2.163-2.308,5.396-3.282,8.474-2.553l63.207,14.656    c4.369,1.014,7.284,5.143,6.775,9.599C317.935,396.784,314.166,400.151,309.681,400.155L309.681,400.155z" fill="#b0b5b6" data-original="#a5a5a4" class=""/>
		<path style="" d="M226.612,353.81c-2.694,0.003-5.241-1.225-6.918-3.333c-1.677-2.108-2.299-4.867-1.69-7.49    l14.656-63.207c1.102-4.749,5.846-7.706,10.595-6.603c4.749,1.102,7.706,5.846,6.603,10.595l-14.656,63.207    C234.275,350.975,230.715,353.806,226.612,353.81z" fill="#b0b5b6" data-original="#a5a5a4" class=""/>
		<path style="" d="M321.422,383.647c-3.048,0.005-5.883-1.565-7.496-4.151l-60.207-96.397    c-2.583-4.135-1.325-9.581,2.81-12.164c4.135-2.583,9.581-1.325,12.164,2.81l60.207,96.397c1.699,2.72,1.79,6.148,0.236,8.954    C327.583,381.902,324.63,383.644,321.422,383.647z" fill="#b0b5b6" data-original="#a5a5a4" class=""/>
		<path style="" d="M343.836,381.004c-2.836-0.002-5.499-1.366-7.159-3.666c-1.659-2.3-2.113-5.258-1.221-7.95    l18.534-55.793c0.995-2.994,3.511-5.229,6.601-5.864c3.09-0.635,6.284,0.426,8.379,2.784c2.095,2.358,2.773,5.655,1.778,8.649    l-18.534,55.793C351.014,378.565,347.639,381.001,343.836,381.004z" fill="#b0b5b6" data-original="#a5a5a4" class=""/>
		<path style="" d="M51.552,309.409c-4.332-0.001-8.024-3.144-8.716-7.421c-0.692-4.277,1.821-8.424,5.931-9.79    l55.793-18.534c2.994-0.995,6.291-0.317,8.649,1.778c2.358,2.095,3.42,5.289,2.784,8.379c-0.635,3.09-2.871,5.606-5.864,6.601    l-55.793,18.534C53.438,309.255,52.498,309.408,51.552,309.409z" fill="#b0b5b6" data-original="#a5a5a4" class=""/>
		<path style="" d="M125.797,371.022c-3.678,0.002-6.972-2.277-8.267-5.72c-1.295-3.443-0.32-7.328,2.448-9.75    l101.431-88.802c2.456-2.154,5.899-2.78,8.956-1.628c3.057,1.152,5.231,3.895,5.654,7.134c0.423,3.24-0.973,6.449-3.632,8.347    l-100.78,88.233C130.001,370.247,127.936,371.024,125.797,371.022z" fill="#b0b5b6" data-original="#a5a5a4" class=""/>
		<path style="" d="M158.53,278.422c-4.615-0.006-8.446-3.565-8.792-8.167c-0.346-4.602,2.911-8.693,7.473-9.389    l62.5-9.535c3.123-0.486,6.268,0.734,8.246,3.2c1.978,2.466,2.487,5.8,1.334,8.744s-3.79,5.046-6.916,5.513l-62.5,9.534    C159.43,278.39,158.98,278.423,158.53,278.422z" fill="#b0b5b6" data-original="#a5a5a4" class=""/>
		<path style="" d="M112.384,362.724c-0.722,0.001-1.442-0.087-2.142-0.263c-2.272-0.565-4.226-2.01-5.433-4.016    c-1.206-2.007-1.565-4.41-0.998-6.682l13.594-54.552c0.757-3.065,3.094-5.493,6.129-6.366c3.035-0.873,6.304-0.058,8.575,2.136    c2.27,2.194,3.195,5.435,2.426,8.497L120.94,356.03C119.961,359.96,116.434,362.719,112.384,362.724z" fill="#b0b5b6" data-original="#a5a5a4" class=""/>
		<path style="" d="M51.901,195.802c-4.401-0.003-8.128-3.247-8.738-7.605c-0.611-4.358,2.081-8.501,6.312-9.714    l72.741-20.836c4.684-1.334,9.564,1.378,10.905,6.06c1.341,4.682-1.363,9.566-6.043,10.914l-72.741,20.836    C53.544,195.685,52.725,195.801,51.901,195.802z" fill="#b0b5b6" data-original="#a5a5a4" class=""/>
		<path style="" d="M136.487,256.353c-2.577,0.008-5.029-1.113-6.71-3.067c-1.681-1.954-2.423-4.545-2.031-7.093    l9.534-62.5c0.467-3.126,2.57-5.764,5.513-6.916c2.943-1.152,6.278-0.644,8.744,1.334s3.686,5.123,3.2,8.246l-9.535,62.5    C144.543,253.163,140.843,256.345,136.487,256.353z" fill="#b0b5b6" data-original="#a5a5a4" class=""/>
		<path style="" d="M250.276,238.608c-0.349,0.001-0.697-0.019-1.043-0.06c-4.841-0.57-8.305-4.956-7.737-9.797    l11.474-97.629c0.361-3.138,2.372-5.844,5.272-7.096c2.9-1.252,6.248-0.858,8.779,1.032s3.859,4.988,3.483,8.124L259.03,230.81    C258.509,235.252,254.748,238.602,250.276,238.608z" fill="#b0b5b6" data-original="#a5a5a4" class=""/>
		<path style="" d="M153.612,141.504c-0.392,0-0.784-0.026-1.172-0.078c-2.321-0.307-4.425-1.524-5.848-3.382    s-2.05-4.207-1.742-6.527l10.595-79.974c0.414-3.126,2.465-5.794,5.379-6.998c2.914-1.204,6.25-0.762,8.75,1.159    c2.5,1.922,3.785,5.031,3.371,8.157l-10.595,79.974C161.769,138.22,158.034,141.498,153.612,141.504z" fill="#b0b5b6" data-original="#a5a5a4" class=""/>
		<path style="" d="M228.457,246.112c-2.342,0.003-4.588-0.928-6.241-2.586l-59.672-59.672    c-2.23-2.23-3.101-5.48-2.285-8.526c0.816-3.046,3.195-5.425,6.241-6.241c3.046-0.816,6.296,0.055,8.526,2.285l59.672,59.672    c2.524,2.525,3.279,6.321,1.913,9.619C235.245,243.96,232.027,246.111,228.457,246.112L228.457,246.112z" fill="#b0b5b6" data-original="#a5a5a4" class=""/>
		<path style="" d="M244.345,97.987c-2.035,0.003-4.008-0.701-5.582-1.991l-56.147-45.905    c-3.761-3.089-4.312-8.639-1.232-12.408c3.08-3.769,8.628-4.334,12.405-1.264l56.147,45.905c2.891,2.362,3.984,6.287,2.729,9.804    S248.078,97.989,244.345,97.987L244.345,97.987z" fill="#b0b5b6" data-original="#a5a5a4" class=""/>
		<path style="" d="M126.401,155.897c-1.368,0-2.717-0.319-3.94-0.931l-40.957-20.483    c-4.355-2.184-6.119-7.483-3.94-11.841c2.179-4.358,7.476-6.127,11.836-3.953l40.957,20.483c3.664,1.831,5.588,5.943,4.644,9.929    C134.059,153.088,130.497,155.902,126.401,155.897z" fill="#b0b5b6" data-original="#a5a5a4" class=""/>
		<path style="" d="M354.866,168.698c-3.963-0.004-7.438-2.647-8.5-6.465L316.349,54.362    c-1.267-4.683,1.481-9.51,6.155-10.811c4.673-1.3,9.521,1.414,10.854,6.078L363.375,157.5c0.735,2.659,0.187,5.509-1.482,7.705    S357.625,168.694,354.866,168.698z" fill="#b0b5b6" data-original="#a5a5a4" class=""/>
		<path style="" d="M279.561,92.69c-3.252-0.004-6.238-1.795-7.772-4.662c-1.534-2.867-1.369-6.345,0.432-9.053    l23.483-35.31c1.738-2.644,4.759-4.156,7.918-3.961c3.159,0.195,5.971,2.065,7.372,4.903c1.401,2.838,1.175,6.208-0.592,8.834    l-23.483,35.31C285.282,91.215,282.519,92.694,279.561,92.69z" fill="#b0b5b6" data-original="#a5a5a4" class=""/>
		<path style="" d="M382.414,177.435c-3.733,0.002-7.065-2.344-8.319-5.86c-1.255-3.516-0.162-7.442,2.729-9.804    l56.147-45.905c2.442-1.998,5.765-2.54,8.716-1.423c2.951,1.117,5.081,3.724,5.588,6.838c0.507,3.114-0.687,6.262-3.131,8.257    l-56.147,45.905C386.422,176.734,384.449,177.438,382.414,177.435z" fill="#b0b5b6" data-original="#a5a5a4" class=""/>
		<path style="" d="M422.664,352.043c-2.342,0.003-4.588-0.928-6.241-2.586l-33.19-33.19    c-2.23-2.23-3.101-5.48-2.285-8.526c0.816-3.046,3.195-5.425,6.241-6.241c3.046-0.816,6.296,0.055,8.526,2.284l33.19,33.19    c2.524,2.525,3.279,6.321,1.913,9.619S426.234,352.042,422.664,352.043L422.664,352.043z" fill="#b0b5b6" data-original="#a5a5a4" class=""/>
		<path style="" d="M461.151,236.759c-1.196-0.002-2.379-0.247-3.478-0.72l-74.862-32.129    c-2.903-1.241-4.922-3.938-5.295-7.073c-0.373-3.135,0.956-6.231,3.486-8.119c2.53-1.888,5.876-2.282,8.775-1.032l74.862,32.129    c3.851,1.655,6.008,5.788,5.163,9.893C468.957,233.813,465.343,236.759,461.151,236.759L461.151,236.759z" fill="#b0b5b6" data-original="#a5a5a4" class=""/>
		<path style="" d="M368.543,273.832c-4.589-0.005-8.41-3.525-8.789-8.099l-4.414-53.319    c-0.276-3.152,1.156-6.21,3.753-8.016c2.597-1.807,5.962-2.085,8.821-0.73c2.859,1.355,4.774,4.136,5.02,7.29l4.414,53.319    c0.402,4.858-3.211,9.123-8.069,9.526C369.035,273.823,368.785,273.832,368.543,273.832z" fill="#b0b5b6" data-original="#a5a5a4" class=""/>
		<path style="" d="M360.517,397.685c-4.332-0.001-8.024-3.144-8.716-7.421c-0.692-4.277,1.82-8.424,5.931-9.79    l55.793-18.534c4.628-1.538,9.626,0.967,11.164,5.595c1.538,4.628-0.967,9.626-5.595,11.164l-55.793,18.534    C362.404,397.531,361.464,397.684,360.517,397.685z" fill="#b0b5b6" data-original="#a5a5a4" class=""/>
		<path style="" d="M345.341,292.905c-0.824-0.001-1.644-0.117-2.435-0.345l-72.741-20.836    c-4.68-1.348-7.384-6.232-6.043-10.914c1.341-4.682,6.221-7.394,10.905-6.06l72.741,20.836c4.231,1.213,6.922,5.355,6.312,9.714    C353.468,289.658,349.741,292.902,345.341,292.905z" fill="#b0b5b6" data-original="#a5a5a4" class=""/>
		<path style="" d="M269.69,250.97c-3.95,0.003-7.421-2.619-8.499-6.42s0.501-7.854,3.865-9.925l69.741-42.905    c2.686-1.652,6.049-1.746,8.823-0.247c2.774,1.5,4.537,4.365,4.625,7.517s-1.512,6.112-4.198,7.764l-69.741,42.905    C272.919,250.517,271.32,250.971,269.69,250.97z" fill="#b0b5b6" data-original="#a5a5a4" class=""/>
		<path style="" d="M174.086,156.603c-4.147,0.001-7.736-2.885-8.624-6.936s1.163-8.174,4.931-9.909l66.733-30.724    c4.425-2.02,9.649-0.08,11.683,4.339c2.033,4.418,0.109,9.649-4.304,11.696l-66.733,30.724    C176.617,156.328,175.359,156.604,174.086,156.603z" fill="#b0b5b6" data-original="#a5a5a4" class=""/>
		<path style="" d="M341.448,177.435c-2.035,0.003-4.008-0.701-5.582-1.991l-56.147-45.905    c-2.452-1.993-3.651-5.144-3.146-8.263c0.505-3.119,2.639-5.73,5.595-6.846s6.283-0.569,8.724,1.437l56.147,45.905    c2.891,2.362,3.984,6.287,2.729,9.804C348.513,175.091,345.182,177.438,341.448,177.435L341.448,177.435z" fill="#b0b5b6" data-original="#a5a5a4" class=""/>
	</g>
	<g>
		<circle style="" cx="247.172" cy="256" r="26.483" fill="#43afca" data-original="#4482c3" class=""/>
		<circle style="" cx="361.931" cy="185.379" r="26.483" fill="#43afca" data-original="#4482c3" class=""/>
		<circle style="" cx="370.759" cy="291.31" r="26.483" fill="#43afca" data-original="#4482c3" class=""/>
		<circle style="" cx="264.828" cy="105.931" r="26.483" fill="#43afca" data-original="#4482c3" class=""/>
		<circle style="" cx="317.793" cy="26.483" r="26.483" fill="#43afca" data-original="#4482c3" class=""/>
	</g>
	<g>
		<circle style="" cx="459.034" cy="105.931" r="26.483" fill="#6ec668" data-original="#14a085" class=""/>
		<circle style="" cx="485.517" cy="238.345" r="26.483" fill="#6ec668" data-original="#14a085" class=""/>
		<circle style="" cx="441.379" cy="361.931" r="26.483" fill="#6ec668" data-original="#14a085" class=""/>
		<circle style="" cx="450.207" cy="450.207" r="26.483" fill="#6ec668" data-original="#14a085" class=""/>
		<circle style="" cx="361.931" cy="485.517" r="26.483" fill="#6ec668" data-original="#14a085" class=""/>
		<circle style="" cx="335.448" cy="397.241" r="26.483" fill="#6ec668" data-original="#14a085" class=""/>
	</g>
	<circle style="" cx="220.69" cy="370.759" r="26.483" fill="#43afca" data-original="#4482c3" class=""/>
	<g>
		<circle style="" cx="132.414" cy="273.655" r="26.483" fill="#e95252" data-original="#d75e72" class=""/>
		<circle style="" cx="150.069" cy="158.897" r="26.483" fill="#e95252" data-original="#d75e72" class=""/>
		<circle style="" cx="26.483" cy="194.207" r="26.483" fill="#e95252" data-original="#d75e72" class=""/>
		<circle style="" cx="61.793" cy="114.759" r="26.483" fill="#e95252" data-original="#d75e72" class=""/>
		<circle style="" cx="167.724" cy="26.483" r="26.483" fill="#e95252" data-original="#d75e72" class=""/>
		<circle style="" cx="105.931" cy="379.586" r="26.483" fill="#e95252" data-original="#d75e72" class=""/>
		<circle style="" cx="26.483" cy="308.966" r="26.483" fill="#e95252" data-original="#d75e72" class=""/>
	</g>
</g>
<g xmlns="http://www.w3.org/2000/svg">
</g>
<g xmlns="http://www.w3.org/2000/svg">
</g>
<g xmlns="http://www.w3.org/2000/svg">
</g>
<g xmlns="http://www.w3.org/2000/svg">
</g>
<g xmlns="http://www.w3.org/2000/svg">
</g>
<g xmlns="http://www.w3.org/2000/svg">
</g>
<g xmlns="http://www.w3.org/2000/svg">
</g>
<g xmlns="http://www.w3.org/2000/svg">
</g>
<g xmlns="http://www.w3.org/2000/svg">
</g>
<g xmlns="http://www.w3.org/2000/svg">
</g>
<g xmlns="http://www.w3.org/2000/svg">
</g>
<g xmlns="http://www.w3.org/2000/svg">
</g>
<g xmlns="http://www.w3.org/2000/svg">
</g>
<g xmlns="http://www.w3.org/2000/svg">
</g>
<g xmlns="http://www.w3.org/2000/svg">
</g>
</g></svg>
