<svg id="Component_107_3" data-name="Component 107 – 3" xmlns="http://www.w3.org/2000/svg" width="42" height="78" viewBox="0 0 42 78">
  <path id="Rectangle_97" data-name="Rectangle 97" d="M20,0H42a0,0,0,0,1,0,0V78a0,0,0,0,1,0,0H20A20,20,0,0,1,0,58V20A20,20,0,0,1,20,0Z" fill="orange"/>
  <path id="Icon_ionic-ios-arrow-back" data-name="Icon ionic-ios-arrow-back" d="M19.065,28.859,36.221,11.716A3.24,3.24,0,0,0,31.632,7.14L12.194,26.564a3.234,3.234,0,0,0-.094,4.468L31.618,50.59a3.24,3.24,0,0,0,4.589-4.576Z" transform="translate(-3.558 9.807)" fill="#fff"/>
</svg>
