<?xml version="1.0" encoding="utf-8"?>
<!-- Generator: Adobe Illustrator 24.1.3, SVG Export Plug-In . SVG Version: 6.00 Build 0)  -->
<svg version="1.1" id="Component_112_1" xmlns="http://www.w3.org/2000/svg" xmlns:xlink="http://www.w3.org/1999/xlink" x="0px"
	 y="0px" viewBox="0 0 1513.9 500" style="enable-background:new 0 0 1513.9 500;" xml:space="preserve">
<style type="text/css">
	.st0{fill:none;stroke:#43AFCA;stroke-width:3;}
	.st1{fill:#43AFCA;}
	.st2{fill:#FFFFFF;}
	.st3{fill:none;stroke:#E95252;stroke-width:4;}
	.st4{enable-background:new    ;}
	.st5{fill:#E95252;}
	.st6{fill:#00435C;}
	.st7{fill:none;stroke:#43AFCA;stroke-width:4;}
	.st8{fill:none;stroke:#E95252;stroke-width:3;}
</style>
<g id="Component_15_21">
	<line id="Line_3" class="st0" x1="1087" y1="168.5" x2="1087" y2="325.5"/>
	<path id="Polygon_1" class="st1" d="M1087,330l-7.5-12h15L1087,330z"/>
</g>
<g id="Component_15_22">
	<line id="Line_3-2" class="st0" x1="757" y1="168.5" x2="757" y2="325.5"/>
	<path id="Polygon_1-2" class="st1" d="M757,330l-7.5-12h15L757,330z"/>
</g>
<g id="Component_15_23">
	<line id="Line_3-3" class="st0" x1="427" y1="169" x2="427" y2="326"/>
	<path id="Polygon_1-3" class="st1" d="M427,329.9l-7.5-12h15L427,329.9z"/>
</g>
<g id="Ellipse_3">
	<circle class="st2" cx="756.5" cy="85" r="85"/>
	<circle class="st3" cx="756.5" cy="85" r="83"/>
</g>
<g id="St">
	<g class="st4">
		<path class="st5" d="M749,79.2c-6-1.7-10.4-3.9-13.2-6.4c-2.7-2.5-4.1-5.6-4.1-9.4c0-4.2,1.7-7.7,5-10.4c3.4-2.7,7.7-4.1,13.1-4.1
			c3.7,0,6.9,0.7,9.8,2.1c2.9,1.4,5.1,3.4,6.7,5.9c1.6,2.5,2.4,5.2,2.4,8.2h-7.1c0-3.2-1-5.8-3.1-7.6c-2.1-1.8-4.9-2.8-8.7-2.8
			c-3.5,0-6.2,0.8-8.1,2.3c-1.9,1.5-2.9,3.7-2.9,6.4c0,2.2,0.9,4,2.8,5.5s5,2.9,9.4,4.1c4.4,1.2,7.9,2.6,10.4,4.1
			c2.5,1.5,4.4,3.3,5.6,5.3c1.2,2,1.8,4.4,1.8,7.1c0,4.3-1.7,7.8-5.1,10.4c-3.4,2.6-7.9,3.9-13.5,3.9c-3.7,0-7.1-0.7-10.3-2.1
			c-3.2-1.4-5.6-3.3-7.3-5.8c-1.7-2.4-2.6-5.2-2.6-8.3h7.1c0,3.2,1.2,5.8,3.6,7.6c2.4,1.9,5.6,2.8,9.5,2.8c3.7,0,6.6-0.8,8.5-2.3
			c2-1.5,3-3.6,3-6.2s-0.9-4.6-2.7-6.1C757.1,82,753.8,80.6,749,79.2z"/>
	</g>
	<g class="st4">
		<path class="st5" d="M780,99.3v5.6h4.3v3.1H780v14.4c0,0.9,0.2,1.6,0.6,2.1c0.4,0.5,1,0.7,2,0.7c0.5,0,1.1-0.1,1.9-0.3v3.2
			c-1,0.3-2.1,0.4-3,0.4c-1.8,0-3.1-0.5-4-1.6c-0.9-1.1-1.3-2.6-1.3-4.5v-14.3h-4.2v-3.1h4.2v-5.6H780z"/>
	</g>
</g>
<g id="Ellipse_39">
	<circle class="st2" cx="1086.5" cy="85" r="85"/>
	<circle class="st3" cx="1086.5" cy="85" r="83"/>
</g>
<g id="St_1">
	<g class="st4">
		<path class="st5" d="M1054.3,79.2c-6-1.7-10.4-3.9-13.2-6.4c-2.7-2.5-4.1-5.6-4.1-9.4c0-4.2,1.7-7.7,5-10.4
			c3.4-2.7,7.7-4.1,13.1-4.1c3.7,0,6.9,0.7,9.8,2.1c2.9,1.4,5.1,3.4,6.7,5.9c1.6,2.5,2.4,5.2,2.4,8.2h-7.1c0-3.2-1-5.8-3.1-7.6
			s-4.9-2.8-8.7-2.8c-3.5,0-6.2,0.8-8.1,2.3c-1.9,1.5-2.9,3.7-2.9,6.4c0,2.2,0.9,4,2.8,5.5c1.8,1.5,5,2.9,9.4,4.1
			c4.4,1.2,7.9,2.6,10.4,4.1c2.5,1.5,4.4,3.3,5.6,5.3c1.2,2,1.8,4.4,1.8,7.1c0,4.3-1.7,7.8-5.1,10.4c-3.4,2.6-7.9,3.9-13.5,3.9
			c-3.7,0-7.1-0.7-10.3-2.1c-3.2-1.4-5.6-3.3-7.3-5.8c-1.7-2.4-2.6-5.2-2.6-8.3h7.1c0,3.2,1.2,5.8,3.6,7.6c2.4,1.9,5.6,2.8,9.5,2.8
			c3.7,0,6.6-0.8,8.5-2.3s3-3.6,3-6.2s-0.9-4.6-2.7-6.1C1062.5,82,1059.1,80.6,1054.3,79.2z"/>
	</g>
	<g class="st4">
		<path class="st5" d="M1085.3,99.3v5.6h4.3v3.1h-4.3v14.4c0,0.9,0.2,1.6,0.6,2.1c0.4,0.5,1,0.7,2,0.7c0.5,0,1.1-0.1,1.9-0.3v3.2
			c-1,0.3-2.1,0.4-3,0.4c-1.8,0-3.1-0.5-4-1.6c-0.9-1.1-1.3-2.6-1.3-4.5v-14.3h-4.2v-3.1h4.2v-5.6H1085.3z"/>
		<path class="st5" d="M1105.5,111.3h8.7v3.7h-8.7v9.8h-4v-9.8h-8.7v-3.7h8.7v-9.1h4V111.3z"/>
		<path class="st5" d="M1131.6,128h-4v-26.3l-8,2.9V101l11.3-4.3h0.6V128z"/>
	</g>
</g>
<g id="Ellipse_40">
	<circle class="st2" cx="426.5" cy="85" r="85"/>
	<circle class="st3" cx="426.5" cy="85" r="83"/>
</g>
<g id="St-1">
	<g class="st4">
		<path class="st5" d="M400.7,79.2c-6-1.7-10.4-3.9-13.2-6.4c-2.7-2.5-4.1-5.6-4.1-9.4c0-4.2,1.7-7.7,5-10.4
			c3.4-2.7,7.7-4.1,13.1-4.1c3.7,0,6.9,0.7,9.8,2.1c2.9,1.4,5.1,3.4,6.7,5.9c1.6,2.5,2.4,5.2,2.4,8.2h-7.1c0-3.2-1-5.8-3.1-7.6
			s-4.9-2.8-8.7-2.8c-3.5,0-6.2,0.8-8.1,2.3c-1.9,1.5-2.9,3.7-2.9,6.4c0,2.2,0.9,4,2.8,5.5s5,2.9,9.4,4.1c4.4,1.2,7.9,2.6,10.4,4.1
			c2.5,1.5,4.4,3.3,5.6,5.3c1.2,2,1.8,4.4,1.8,7.1c0,4.3-1.7,7.8-5.1,10.4c-3.4,2.6-7.9,3.9-13.5,3.9c-3.7,0-7.1-0.7-10.3-2.1
			c-3.2-1.4-5.6-3.3-7.3-5.8c-1.7-2.4-2.6-5.2-2.6-8.3h7.1c0,3.2,1.2,5.8,3.6,7.6c2.4,1.9,5.6,2.8,9.5,2.8c3.7,0,6.6-0.8,8.5-2.3
			s3-3.6,3-6.2s-0.9-4.6-2.7-6.1C408.8,82,405.5,80.6,400.7,79.2z"/>
	</g>
	<g class="st4">
		<path class="st5" d="M431.6,99.3v5.6h4.3v3.1h-4.3v14.4c0,0.9,0.2,1.6,0.6,2.1c0.4,0.5,1,0.7,2,0.7c0.5,0,1.1-0.1,1.9-0.3v3.2
			c-1,0.3-2.1,0.4-3,0.4c-1.8,0-3.1-0.5-4-1.6c-0.9-1.1-1.3-2.6-1.3-4.5v-14.3h-4.2v-3.1h4.2v-5.6H431.6z"/>
		<path class="st5" d="M448.8,116.4h-10.4v-3.2h10.4V116.4z"/>
		<path class="st5" d="M465.2,128h-4v-26.3l-8,2.9V101l11.3-4.3h0.6V128z"/>
	</g>
</g>
<g id="Ellipse_41">
	<circle class="st6" cx="756.5" cy="415" r="84"/>
	<circle class="st7" cx="756.5" cy="415" r="83"/>
</g>
<g id="Ot">
	<g class="st4">
		<path class="st1" d="M770.8,408.1c0,5.2-0.9,9.8-2.6,13.7s-4.2,6.9-7.5,8.9s-7,3.1-11.3,3.1c-4.2,0-7.9-1-11.2-3.1
			c-3.2-2.1-5.8-5-7.6-8.8c-1.8-3.8-2.7-8.2-2.8-13.3v-3.8c0-5.1,0.9-9.7,2.7-13.6c1.8-3.9,4.3-6.9,7.6-9c3.3-2.1,7-3.1,11.2-3.1
			c4.3,0,8,1,11.3,3.1c3.3,2.1,5.8,5.1,7.5,9c1.8,3.9,2.6,8.5,2.6,13.7V408.1z M763.8,404.6c0-6.3-1.3-11.2-3.8-14.6
			c-2.5-3.4-6.1-5.1-10.7-5.1c-4.4,0-7.9,1.7-10.5,5.1c-2.6,3.4-3.9,8.1-3.9,14.1v3.9c0,6.1,1.3,10.9,3.9,14.4
			c2.6,3.5,6.1,5.3,10.6,5.3c4.5,0,8.1-1.7,10.5-5c2.5-3.3,3.8-8,3.8-14.2V404.6z"/>
	</g>
	<g class="st4">
		<path class="st1" d="M783.5,429.3v5.6h4.3v3.1h-4.3v14.4c0,0.9,0.2,1.6,0.6,2.1c0.4,0.5,1,0.7,2,0.7c0.5,0,1.1-0.1,1.9-0.3v3.2
			c-1,0.3-2.1,0.4-3,0.4c-1.8,0-3.1-0.5-4-1.6c-0.9-1.1-1.3-2.6-1.3-4.5v-14.3h-4.2v-3.1h4.2v-5.6H783.5z"/>
	</g>
</g>
<g id="Ellipse_42">
	<circle class="st6" cx="1086.5" cy="415" r="84"/>
	<circle class="st7" cx="1086.5" cy="415" r="83"/>
</g>
<g id="Ot_1">
	<g class="st4">
		<path class="st1" d="M1076.1,408.1c0,5.2-0.9,9.8-2.6,13.7s-4.2,6.9-7.5,8.9s-7,3.1-11.3,3.1c-4.2,0-7.9-1-11.2-3.1
			c-3.2-2.1-5.8-5-7.6-8.8c-1.8-3.8-2.7-8.2-2.8-13.3v-3.8c0-5.1,0.9-9.7,2.7-13.6c1.8-3.9,4.3-6.9,7.6-9c3.3-2.1,7-3.1,11.2-3.1
			c4.3,0,8,1,11.3,3.1c3.3,2.1,5.8,5.1,7.5,9c1.8,3.9,2.6,8.5,2.6,13.7V408.1z M1069.1,404.6c0-6.3-1.3-11.2-3.8-14.6
			c-2.5-3.4-6.1-5.1-10.7-5.1c-4.4,0-7.9,1.7-10.5,5.1c-2.6,3.4-3.9,8.1-3.9,14.1v3.9c0,6.1,1.3,10.9,3.9,14.4
			c2.6,3.5,6.1,5.3,10.6,5.3c4.5,0,8.1-1.7,10.5-5c2.5-3.3,3.8-8,3.8-14.2V404.6z"/>
	</g>
	<g class="st4">
		<path class="st1" d="M1088.8,429.3v5.6h4.3v3.1h-4.3v14.4c0,0.9,0.2,1.6,0.6,2.1c0.4,0.5,1,0.7,2,0.7c0.5,0,1.1-0.1,1.9-0.3v3.2
			c-1,0.3-2.1,0.4-3,0.4c-1.8,0-3.1-0.5-4-1.6s-1.3-2.6-1.3-4.5v-14.3h-4.2v-3.1h4.2v-5.6H1088.8z"/>
		<path class="st1" d="M1109.1,441.3h8.7v3.7h-8.7v9.8h-4v-9.8h-8.7v-3.7h8.7v-9.1h4V441.3z"/>
		<path class="st1" d="M1135.1,458h-4v-26.3l-8,2.9V431l11.3-4.3h0.6V458z"/>
	</g>
</g>
<g id="Ellipse_43">
	<circle class="st6" cx="426.5" cy="415" r="84"/>
	<circle class="st7" cx="426.5" cy="415" r="83"/>
</g>
<g id="Ot-1">
	<g class="st4">
		<path class="st1" d="M422.5,408.1c0,5.2-0.9,9.8-2.6,13.7s-4.2,6.9-7.5,8.9s-7,3.1-11.3,3.1c-4.2,0-7.9-1-11.2-3.1
			c-3.2-2.1-5.8-5-7.6-8.8c-1.8-3.8-2.7-8.2-2.8-13.3v-3.8c0-5.1,0.9-9.7,2.7-13.6c1.8-3.9,4.3-6.9,7.6-9c3.3-2.1,7-3.1,11.2-3.1
			c4.3,0,8,1,11.3,3.1c3.3,2.1,5.8,5.1,7.5,9c1.8,3.9,2.6,8.5,2.6,13.7V408.1z M415.5,404.6c0-6.3-1.3-11.2-3.8-14.6
			c-2.5-3.4-6.1-5.1-10.7-5.1c-4.4,0-7.9,1.7-10.5,5.1c-2.6,3.4-3.9,8.1-3.9,14.1v3.9c0,6.1,1.3,10.9,3.9,14.4
			c2.6,3.5,6.1,5.3,10.6,5.3c4.5,0,8.1-1.7,10.5-5c2.5-3.3,3.8-8,3.8-14.2V404.6z"/>
	</g>
	<g class="st4">
		<path class="st1" d="M435.2,429.3v5.6h4.3v3.1h-4.3v14.4c0,0.9,0.2,1.6,0.6,2.1c0.4,0.5,1,0.7,2,0.7c0.5,0,1.1-0.1,1.9-0.3v3.2
			c-1,0.3-2.1,0.4-3,0.4c-1.8,0-3.1-0.5-4-1.6c-0.9-1.1-1.3-2.6-1.3-4.5v-14.3H427v-3.1h4.2v-5.6H435.2z"/>
		<path class="st1" d="M452.3,446.4h-10.4v-3.2h10.4V446.4z"/>
		<path class="st1" d="M468.8,458h-4v-26.3l-8,2.9V431l11.3-4.3h0.6V458z"/>
	</g>
</g>
<g id="Component_15_24">
	<line id="Line_3-4" class="st8" x1="510" y1="85.5" x2="667" y2="85.5"/>
	<path id="Polygon_1-4" class="st5" d="M671.9,85.5l-12,7.5V78L671.9,85.5z"/>
</g>
<g id="Component_15_25">
	<line id="Line_3-5" class="st8" x1="840.5" y1="85.5" x2="997.5" y2="85.5"/>
	<path id="Polygon_1-5" class="st5" d="M1002.4,85.5l-12,7.5V78L1002.4,85.5z"/>
</g>
<g id="Component_15_26">
	<line id="Line_3-6" class="st8" x1="180.5" y1="85.5" x2="337.5" y2="85.5"/>
	<path id="Polygon_1-6" class="st5" d="M342.4,85.5l-12,7.5V78L342.4,85.5z"/>
</g>
<line id="Line_3-7" class="st8" x1="120" y1="85.5" x2="170" y2="85.5"/>
<line id="Line_4" class="st8" x1="60" y1="85.5" x2="110" y2="85.5"/>
<line id="Line_5" class="st8" x1="0" y1="85.5" x2="50" y2="85.5"/>
<line id="Line_6" class="st8" x1="1457.9" y1="85.5" x2="1507.9" y2="85.5"/>
<line id="Line_7" class="st8" x1="1397.9" y1="85.5" x2="1447.9" y2="85.5"/>
<line id="Line_8" class="st8" x1="1337.9" y1="85.5" x2="1387.9" y2="85.5"/>
<path id="Polygon_8" class="st5" d="M1513.9,85.5l-12,7.5V78L1513.9,85.5z"/>
<g id="ai_j">
	<g class="st4">
		<path class="st5" d="M587.5,64c-0.2-0.4-0.4-1.2-0.5-2.2c-1.7,1.7-3.7,2.6-6,2.6c-2.1,0-3.8-0.6-5.1-1.8s-2-2.7-2-4.5
			c0-2.2,0.8-3.9,2.5-5.1s4-1.8,7.1-1.8h3.5v-1.7c0-1.3-0.4-2.3-1.1-3s-1.9-1.1-3.3-1.1c-1.3,0-2.4,0.3-3.2,1s-1.3,1.4-1.3,2.4h-3.6
			c0-1.1,0.4-2.1,1.1-3.1s1.8-1.8,3-2.3s2.7-0.9,4.2-0.9c2.4,0,4.3,0.6,5.7,1.8s2.1,2.9,2.1,5v9.7c0,1.9,0.2,3.5,0.7,4.6V64H587.5z
			 M581.5,61.2c1.1,0,2.2-0.3,3.2-0.9s1.8-1.3,2.2-2.3v-4.3h-2.8c-4.4,0-6.6,1.3-6.6,3.9c0,1.1,0.4,2,1.1,2.7S580.3,61.2,581.5,61.2
			z"/>
	</g>
	<g class="st4">
		<path class="st5" d="M595.1,61.7c0-0.3,0.1-0.6,0.3-0.9s0.5-0.4,0.9-0.4s0.7,0.1,0.9,0.4c0.2,0.2,0.3,0.5,0.3,0.9
			s-0.1,0.6-0.3,0.9c-0.2,0.2-0.5,0.3-0.9,0.3s-0.7-0.1-0.9-0.3C595.2,62.4,595.1,62.1,595.1,61.7z M597.4,77.3h-2.1V65h2.1V77.3z"
			/>
		<path class="st5" d="M600.7,80.6l-1.2-0.8c0.7-1,1.1-2,1.1-3.1v-1.9h2.1v1.7c0,0.8-0.2,1.5-0.6,2.3
			C601.7,79.6,601.2,80.2,600.7,80.6z"/>
		<path class="st5" d="M607.5,65v13.8c0,2.4-1.1,3.6-3.2,3.6c-0.5,0-0.9-0.1-1.3-0.2v-1.7c0.2,0.1,0.6,0.1,1,0.1
			c0.5,0,0.8-0.1,1.1-0.4c0.2-0.3,0.4-0.7,0.4-1.3V65H607.5z M605.2,61.7c0-0.3,0.1-0.6,0.3-0.9s0.5-0.4,0.9-0.4
			c0.4,0,0.7,0.1,0.9,0.4s0.3,0.5,0.3,0.9s-0.1,0.6-0.3,0.9c-0.2,0.2-0.5,0.3-0.9,0.3s-0.7-0.1-0.9-0.3
			C605.3,62.4,605.2,62.1,605.2,61.7z"/>
	</g>
</g>
<g id="ai_j-2">
	<g class="st4">
		<path class="st5" d="M257.5,64c-0.2-0.4-0.4-1.2-0.5-2.2c-1.7,1.7-3.7,2.6-6,2.6c-2.1,0-3.8-0.6-5.1-1.8c-1.3-1.2-2-2.7-2-4.5
			c0-2.2,0.8-3.9,2.5-5.1c1.7-1.2,4-1.8,7.1-1.8h3.5v-1.7c0-1.3-0.4-2.3-1.1-3c-0.8-0.7-1.9-1.1-3.3-1.1c-1.3,0-2.4,0.3-3.2,1
			c-0.9,0.7-1.3,1.4-1.3,2.4h-3.6c0-1.1,0.4-2.1,1.1-3.1c0.7-1,1.8-1.8,3-2.3c1.3-0.6,2.7-0.9,4.2-0.9c2.4,0,4.3,0.6,5.7,1.8
			c1.4,1.2,2.1,2.9,2.1,5v9.7c0,1.9,0.2,3.5,0.7,4.6V64H257.5z M251.5,61.2c1.1,0,2.2-0.3,3.2-0.9s1.8-1.3,2.2-2.3v-4.3h-2.8
			c-4.4,0-6.6,1.3-6.6,3.9c0,1.1,0.4,2,1.1,2.7C249.3,60.9,250.3,61.2,251.5,61.2z"/>
	</g>
	<g class="st4">
		<path class="st5" d="M265.1,61.7c0-0.3,0.1-0.6,0.3-0.9s0.5-0.4,0.9-0.4s0.7,0.1,0.9,0.4c0.2,0.2,0.3,0.5,0.3,0.9
			s-0.1,0.6-0.3,0.9c-0.2,0.2-0.5,0.3-0.9,0.3s-0.7-0.1-0.9-0.3C265.2,62.4,265.1,62.1,265.1,61.7z M267.4,77.3h-2.1V65h2.1V77.3z"
			/>
		<path class="st5" d="M270.7,80.6l-1.2-0.8c0.7-1,1.1-2,1.1-3.1v-1.9h2.1v1.7c0,0.8-0.2,1.5-0.6,2.3
			C271.7,79.6,271.2,80.2,270.7,80.6z"/>
		<path class="st5" d="M277.5,65v13.8c0,2.4-1.1,3.6-3.2,3.6c-0.5,0-0.9-0.1-1.3-0.2v-1.7c0.2,0.1,0.6,0.1,1,0.1
			c0.5,0,0.8-0.1,1.1-0.4c0.2-0.3,0.4-0.7,0.4-1.3V65H277.5z M275.2,61.7c0-0.3,0.1-0.6,0.3-0.9c0.2-0.2,0.5-0.4,0.9-0.4
			c0.4,0,0.7,0.1,0.9,0.4c0.2,0.2,0.3,0.5,0.3,0.9s-0.1,0.6-0.3,0.9c-0.2,0.2-0.5,0.3-0.9,0.3s-0.7-0.1-0.9-0.3
			C275.3,62.4,275.2,62.1,275.2,61.7z"/>
	</g>
</g>
<g id="ai_j-3">
	<g class="st4">
		<path class="st5" d="M918.5,64c-0.2-0.4-0.4-1.2-0.5-2.2c-1.7,1.7-3.7,2.6-6,2.6c-2.1,0-3.8-0.6-5.1-1.8s-2-2.7-2-4.5
			c0-2.2,0.8-3.9,2.5-5.1s4-1.8,7.1-1.8h3.5v-1.7c0-1.3-0.4-2.3-1.1-3s-1.9-1.1-3.3-1.1c-1.3,0-2.4,0.3-3.2,1s-1.3,1.4-1.3,2.4h-3.6
			c0-1.1,0.4-2.1,1.1-3.1s1.8-1.8,3-2.3s2.7-0.9,4.2-0.9c2.4,0,4.3,0.6,5.7,1.8s2.1,2.9,2.1,5v9.7c0,1.9,0.2,3.5,0.7,4.6V64H918.5z
			 M912.5,61.2c1.1,0,2.2-0.3,3.2-0.9s1.8-1.3,2.2-2.3v-4.3h-2.8c-4.4,0-6.6,1.3-6.6,3.9c0,1.1,0.4,2,1.1,2.7S911.3,61.2,912.5,61.2
			z"/>
	</g>
	<g class="st4">
		<path class="st5" d="M926.1,61.7c0-0.3,0.1-0.6,0.3-0.9s0.5-0.4,0.9-0.4s0.7,0.1,0.9,0.4c0.2,0.2,0.3,0.5,0.3,0.9
			s-0.1,0.6-0.3,0.9c-0.2,0.2-0.5,0.3-0.9,0.3s-0.7-0.1-0.9-0.3C926.2,62.4,926.1,62.1,926.1,61.7z M928.4,77.3h-2.1V65h2.1V77.3z"
			/>
		<path class="st5" d="M931.7,80.6l-1.2-0.8c0.7-1,1.1-2,1.1-3.1v-1.9h2.1v1.7c0,0.8-0.2,1.5-0.6,2.3
			C932.7,79.6,932.2,80.2,931.7,80.6z"/>
		<path class="st5" d="M938.5,65v13.8c0,2.4-1.1,3.6-3.2,3.6c-0.5,0-0.9-0.1-1.3-0.2v-1.7c0.2,0.1,0.6,0.1,1,0.1
			c0.5,0,0.8-0.1,1.1-0.4c0.2-0.3,0.4-0.7,0.4-1.3V65H938.5z M936.2,61.7c0-0.3,0.1-0.6,0.3-0.9s0.5-0.4,0.9-0.4
			c0.4,0,0.7,0.1,0.9,0.4s0.3,0.5,0.3,0.9s-0.1,0.6-0.3,0.9c-0.2,0.2-0.5,0.3-0.9,0.3s-0.7-0.1-0.9-0.3
			C936.3,62.4,936.2,62.1,936.2,61.7z"/>
	</g>
</g>
<g id="ai_j-4">
	<g class="st4">
		<path class="st5" d="M1246.5,64c-0.2-0.4-0.4-1.2-0.5-2.2c-1.7,1.7-3.7,2.6-6,2.6c-2.1,0-3.8-0.6-5.1-1.8s-2-2.7-2-4.5
			c0-2.2,0.8-3.9,2.5-5.1s4-1.8,7.1-1.8h3.5v-1.7c0-1.3-0.4-2.3-1.1-3s-1.9-1.1-3.3-1.1c-1.3,0-2.4,0.3-3.2,1s-1.3,1.4-1.3,2.4h-3.6
			c0-1.1,0.4-2.1,1.1-3.1s1.8-1.8,3-2.3s2.7-0.9,4.2-0.9c2.4,0,4.3,0.6,5.7,1.8s2.1,2.9,2.1,5v9.7c0,1.9,0.2,3.5,0.7,4.6V64H1246.5z
			 M1240.5,61.2c1.1,0,2.2-0.3,3.2-0.9s1.8-1.3,2.2-2.3v-4.3h-2.8c-4.4,0-6.6,1.3-6.6,3.9c0,1.1,0.4,2,1.1,2.7
			S1239.3,61.2,1240.5,61.2z"/>
	</g>
	<g class="st4">
		<path class="st5" d="M1254.1,61.7c0-0.3,0.1-0.6,0.3-0.9s0.5-0.4,0.9-0.4s0.7,0.1,0.9,0.4c0.2,0.2,0.3,0.5,0.3,0.9
			s-0.1,0.6-0.3,0.9c-0.2,0.2-0.5,0.3-0.9,0.3s-0.7-0.1-0.9-0.3C1254.2,62.4,1254.1,62.1,1254.1,61.7z M1256.4,77.3h-2.1V65h2.1
			V77.3z"/>
		<path class="st5" d="M1259.7,80.6l-1.2-0.8c0.7-1,1.1-2,1.1-3.1v-1.9h2.1v1.7c0,0.8-0.2,1.5-0.6,2.3
			C1260.7,79.6,1260.2,80.2,1259.7,80.6z"/>
		<path class="st5" d="M1266.5,65v13.8c0,2.4-1.1,3.6-3.2,3.6c-0.5,0-0.9-0.1-1.3-0.2v-1.7c0.2,0.1,0.6,0.1,1,0.1
			c0.5,0,0.8-0.1,1.1-0.4c0.2-0.3,0.4-0.7,0.4-1.3V65H1266.5z M1264.2,61.7c0-0.3,0.1-0.6,0.3-0.9s0.5-0.4,0.9-0.4
			c0.4,0,0.7,0.1,0.9,0.4s0.3,0.5,0.3,0.9s-0.1,0.6-0.3,0.9c-0.2,0.2-0.5,0.3-0.9,0.3s-0.7-0.1-0.9-0.3
			C1264.3,62.4,1264.2,62.1,1264.2,61.7z"/>
	</g>
</g>
<g id="bj_k">
	<g class="st4">
		<path class="st1" d="M456.9,248.7c0,3.2-0.7,5.8-2.2,7.8s-3.5,2.9-6,2.9c-2.7,0-4.7-0.9-6.2-2.8l-0.2,2.4H439v-30h3.6v11.2
			c1.5-1.8,3.5-2.7,6-2.7c2.6,0,4.6,1,6,2.9s2.2,4.6,2.2,8V248.7z M453.3,248.3c0-2.5-0.5-4.4-1.4-5.7c-1-1.3-2.3-2-4.1-2
			c-2.4,0-4.1,1.1-5.1,3.3v9.1c1.1,2.2,2.8,3.3,5.2,3.3c1.7,0,3.1-0.7,4-2C452.8,253,453.3,251,453.3,248.3z"/>
	</g>
	<g class="st4">
		<path class="st1" d="M462.5,260v13.8c0,2.4-1.1,3.6-3.2,3.6c-0.5,0-0.9-0.1-1.3-0.2v-1.7c0.2,0.1,0.6,0.1,1,0.1
			c0.5,0,0.8-0.1,1.1-0.4c0.2-0.3,0.4-0.7,0.4-1.3V260H462.5z M460.2,256.7c0-0.3,0.1-0.6,0.3-0.9c0.2-0.2,0.5-0.4,0.9-0.4
			c0.4,0,0.7,0.1,0.9,0.4c0.2,0.2,0.3,0.5,0.3,0.9s-0.1,0.6-0.3,0.9c-0.2,0.2-0.5,0.3-0.9,0.3s-0.7-0.1-0.9-0.3
			C460.3,257.4,460.2,257.1,460.2,256.7z"/>
		<path class="st1" d="M465.8,275.6l-1.2-0.8c0.7-1,1.1-2,1.1-3.1v-1.9h2.1v1.7c0,0.8-0.2,1.5-0.6,2.3
			C466.9,274.6,466.4,275.2,465.8,275.6z"/>
		<path class="st1" d="M473.9,266.6l-1.3,1.4v4.3h-2.1v-17.5h2.1v10.6l1.1-1.4l3.8-4.1h2.6l-4.8,5.1l5.4,7.2h-2.5L473.9,266.6z"/>
	</g>
</g>
<g id="bj_k-2">
	<g class="st4">
		<path class="st1" d="M786.9,248.7c0,3.2-0.7,5.8-2.2,7.8s-3.5,2.9-6,2.9c-2.7,0-4.7-0.9-6.2-2.8l-0.2,2.4H769v-30h3.6v11.2
			c1.5-1.8,3.5-2.7,6-2.7c2.6,0,4.6,1,6,2.9s2.2,4.6,2.2,8V248.7z M783.3,248.3c0-2.5-0.5-4.4-1.4-5.7c-1-1.3-2.3-2-4.1-2
			c-2.4,0-4.1,1.1-5.1,3.3v9.1c1.1,2.2,2.8,3.3,5.2,3.3c1.7,0,3.1-0.7,4-2C782.8,253,783.3,251,783.3,248.3z"/>
	</g>
	<g class="st4">
		<path class="st1" d="M792.5,260v13.8c0,2.4-1.1,3.6-3.2,3.6c-0.5,0-0.9-0.1-1.3-0.2v-1.7c0.2,0.1,0.6,0.1,1,0.1
			c0.5,0,0.8-0.1,1.1-0.4c0.2-0.3,0.4-0.7,0.4-1.3V260H792.5z M790.2,256.7c0-0.3,0.1-0.6,0.3-0.9s0.5-0.4,0.9-0.4
			c0.4,0,0.7,0.1,0.9,0.4s0.3,0.5,0.3,0.9s-0.1,0.6-0.3,0.9c-0.2,0.2-0.5,0.3-0.9,0.3s-0.7-0.1-0.9-0.3
			C790.3,257.4,790.2,257.1,790.2,256.7z"/>
		<path class="st1" d="M795.8,275.6l-1.2-0.8c0.7-1,1.1-2,1.1-3.1v-1.9h2.1v1.7c0,0.8-0.2,1.5-0.6,2.3
			C796.9,274.6,796.4,275.2,795.8,275.6z"/>
		<path class="st1" d="M803.9,266.6l-1.3,1.4v4.3h-2.1v-17.5h2.1v10.6l1.1-1.4l3.8-4.1h2.6l-4.8,5.1l5.4,7.2h-2.5L803.9,266.6z"/>
	</g>
</g>
<g id="bj_k-3">
	<g class="st4">
		<path class="st1" d="M1117.9,248.7c0,3.2-0.7,5.8-2.2,7.8s-3.5,2.9-6,2.9c-2.7,0-4.7-0.9-6.2-2.8l-0.2,2.4h-3.3v-30h3.6v11.2
			c1.5-1.8,3.5-2.7,6-2.7s4.6,1,6,2.9s2.2,4.6,2.2,8V248.7z M1114.3,248.3c0-2.5-0.5-4.4-1.4-5.7s-2.3-2-4.1-2
			c-2.4,0-4.1,1.1-5.1,3.3v9.1c1.1,2.2,2.8,3.3,5.2,3.3c1.7,0,3.1-0.7,4-2S1114.3,251,1114.3,248.3z"/>
	</g>
	<g class="st4">
		<path class="st1" d="M1123.5,260v13.8c0,2.4-1.1,3.6-3.2,3.6c-0.5,0-0.9-0.1-1.3-0.2v-1.7c0.2,0.1,0.6,0.1,1,0.1
			c0.5,0,0.8-0.1,1.1-0.4c0.2-0.3,0.4-0.7,0.4-1.3V260H1123.5z M1121.2,256.7c0-0.3,0.1-0.6,0.3-0.9s0.5-0.4,0.9-0.4
			c0.4,0,0.7,0.1,0.9,0.4s0.3,0.5,0.3,0.9s-0.1,0.6-0.3,0.9c-0.2,0.2-0.5,0.3-0.9,0.3s-0.7-0.1-0.9-0.3
			C1121.3,257.4,1121.2,257.1,1121.2,256.7z"/>
		<path class="st1" d="M1126.8,275.6l-1.2-0.8c0.7-1,1.1-2,1.1-3.1v-1.9h2.1v1.7c0,0.8-0.2,1.5-0.6,2.3
			C1127.9,274.6,1127.4,275.2,1126.8,275.6z"/>
		<path class="st1" d="M1134.9,266.6l-1.3,1.4v4.3h-2.1v-17.5h2.1v10.6l1.1-1.4l3.8-4.1h2.6l-4.8,5.1l5.4,7.2h-2.5L1134.9,266.6z"/>
	</g>
</g>
<g id="From_t_0">
	<g class="st4">
		<path class="st5" d="M14.7,121.6h-9v9.4H3v-21.3h13.2v2.3H5.8v7.3h9V121.6z"/>
	</g>
	<g class="st4">
		<path class="st5" d="M26.4,117.6c-0.4-0.1-0.9-0.1-1.3-0.1c-1.8,0-3,0.8-3.6,2.3V131h-2.7v-15.8h2.6l0,1.8
			c0.9-1.4,2.1-2.1,3.8-2.1c0.5,0,0.9,0.1,1.2,0.2V117.6z"/>
	</g>
	<g class="st4">
		<path class="st5" d="M27.9,122.9c0-1.6,0.3-2.9,0.9-4.2s1.5-2.2,2.5-2.9s2.3-1,3.7-1c2.2,0,3.9,0.7,5.2,2.2s2,3.5,2,6v0.2
			c0,1.5-0.3,2.9-0.9,4.2s-1.4,2.2-2.5,2.9s-2.4,1-3.8,1c-2.1,0-3.9-0.7-5.2-2.2s-2-3.5-2-5.9V122.9z M30.6,123.3
			c0,1.8,0.4,3.2,1.2,4.2s1.9,1.6,3.3,1.6c1.4,0,2.5-0.5,3.3-1.6s1.2-2.6,1.2-4.5c0-1.7-0.4-3.1-1.2-4.2s-1.9-1.6-3.3-1.6
			c-1.3,0-2.4,0.5-3.2,1.6S30.6,121.3,30.6,123.3z"/>
		<path class="st5" d="M48.3,115.2l0.1,1.8c1.2-1.4,2.7-2.1,4.7-2.1c2.2,0,3.7,0.8,4.5,2.5c0.5-0.8,1.2-1.4,2.1-1.8s1.8-0.7,3-0.7
			c3.5,0,5.2,1.8,5.3,5.5V131h-2.7v-10.5c0-1.1-0.3-2-0.8-2.5s-1.4-0.8-2.6-0.8c-1,0-1.8,0.3-2.5,0.9c-0.7,0.6-1,1.4-1.2,2.4V131
			h-2.7v-10.4c0-2.3-1.1-3.5-3.4-3.5c-1.8,0-3,0.8-3.6,2.3V131h-2.7v-15.8H48.3z"/>
		<path class="st5" d="M83.1,111.3v3.8h3v2.1h-3v9.8c0,0.6,0.1,1.1,0.4,1.4s0.7,0.5,1.3,0.5c0.3,0,0.7-0.1,1.3-0.2v2.2
			c-0.7,0.2-1.4,0.3-2.1,0.3c-1.2,0-2.1-0.4-2.7-1.1s-0.9-1.8-0.9-3.1v-9.8h-2.9v-2.1h2.9v-3.8H83.1z"/>
		<path class="st5" d="M109.1,119.1H96.8v-2.4h12.2V119.1z M109.1,125.2H96.8v-2.3h12.2V125.2z"/>
		<path class="st5" d="M133.7,121.9c0,3.2-0.5,5.5-1.6,7.1s-2.8,2.3-5.1,2.3c-2.3,0-4-0.8-5.1-2.3c-1.1-1.5-1.7-3.8-1.7-6.8v-3.6
			c0-3.1,0.5-5.5,1.6-7s2.8-2.3,5.1-2.3c2.3,0,4,0.7,5.1,2.2s1.6,3.7,1.7,6.8V121.9z M130.9,118.2c0-2.3-0.3-4-1-5
			c-0.6-1-1.7-1.6-3.1-1.6c-1.4,0-2.4,0.5-3,1.6s-1,2.7-1,4.8v4.3c0,2.3,0.3,4,1,5.1c0.7,1.1,1.7,1.6,3,1.6c1.3,0,2.3-0.5,3-1.6
			s1-2.7,1-4.9V118.2z"/>
	</g>
</g>
<g id="to_t_T-1">
	<g class="st4">
		<path class="st5" d="M1405,111.3v3.8h3v2.1h-3v9.8c0,0.6,0.1,1.1,0.4,1.4s0.7,0.5,1.3,0.5c0.3,0,0.7-0.1,1.3-0.2v2.2
			c-0.7,0.2-1.4,0.3-2.1,0.3c-1.2,0-2.1-0.4-2.7-1.1s-0.9-1.8-0.9-3.1v-9.8h-2.9v-2.1h2.9v-3.8H1405z"/>
	</g>
	<g class="st4">
		<path class="st5" d="M1410.1,122.9c0-1.6,0.3-2.9,0.9-4.2s1.5-2.2,2.5-2.9s2.3-1,3.7-1c2.2,0,3.9,0.7,5.2,2.2s2,3.5,2,6v0.2
			c0,1.5-0.3,2.9-0.9,4.2s-1.4,2.2-2.5,2.9s-2.4,1-3.8,1c-2.1,0-3.9-0.7-5.2-2.2s-2-3.5-2-5.9V122.9z M1412.9,123.3
			c0,1.8,0.4,3.2,1.2,4.2s1.9,1.6,3.3,1.6c1.4,0,2.5-0.5,3.3-1.6s1.2-2.6,1.2-4.5c0-1.7-0.4-3.1-1.2-4.2s-1.9-1.6-3.3-1.6
			c-1.3,0-2.4,0.5-3.2,1.6S1412.9,121.3,1412.9,123.3z"/>
		<path class="st5" d="M1439.1,111.3v3.8h3v2.1h-3v9.8c0,0.6,0.1,1.1,0.4,1.4s0.7,0.5,1.3,0.5c0.3,0,0.7-0.1,1.3-0.2v2.2
			c-0.7,0.2-1.4,0.3-2.1,0.3c-1.2,0-2.1-0.4-2.7-1.1s-0.9-1.8-0.9-3.1v-9.8h-2.9v-2.1h2.9v-3.8H1439.1z"/>
		<path class="st5" d="M1465,119.1h-12.2v-2.4h12.2V119.1z M1465,125.2h-12.2v-2.3h12.2V125.2z"/>
	</g>
	<g class="st4">
		<path class="st5" d="M1491.1,112h-6.9v19h-2.8v-19h-6.8v-2.3h16.5V112z"/>
	</g>
	<g class="st4">
		<path class="st5" d="M1496.1,123h-7.1v-2.2h7.1V123z"/>
		<path class="st5" d="M1507.3,131h-2.7v-18.1l-5.5,2v-2.5l7.8-2.9h0.4V131z"/>
	</g>
</g>
<line id="Line_11" class="st8" x1="1168" y1="85.5" x2="1327.9" y2="85.5"/>
</svg>
