<?xml version="1.0" encoding="utf-8"?>
<!-- Generator: Adobe Illustrator 24.1.3, SVG Export Plug-In . SVG Version: 6.00 Build 0)  -->
<svg version="1.1" id="Component_115_1" xmlns="http://www.w3.org/2000/svg" xmlns:xlink="http://www.w3.org/1999/xlink" x="0px"
	 y="0px" viewBox="0 0 1058 344" style="enable-background:new 0 0 1058 344;" xml:space="preserve">
<style type="text/css">
	.st0{fill:#FFFFFF;}
	.st1{fill:none;stroke:#43AFCA;stroke-width:4;}
	.st2{fill:none;stroke:#6EC668;stroke-width:4;}
	.st3{fill:none;stroke:#F0C900;stroke-width:4;}
	.st4{fill:none;stroke:#E95252;stroke-width:4;}
	.st5{fill:none;stroke:#43AFCA;stroke-width:3;}
	.st6{fill:#43AFCA;}
	.st7{fill:none;stroke:#6EC668;stroke-width:3;}
	.st8{fill:#6EC668;}
	.st9{fill:none;stroke:#F0C900;stroke-width:3;}
	.st10{fill:#F0C900;}
	.st11{enable-background:new    ;}
	.st12{fill:#E95252;}
</style>
<g id="Ellipse_1" transform="translate(0 137)">
	<circle class="st0" cx="85" cy="85" r="85"/>
	<circle class="st1" cx="85" cy="85" r="83"/>
</g>
<g id="Ellipse_2" transform="translate(296 137)">
	<circle class="st0" cx="85" cy="85" r="85"/>
	<circle class="st2" cx="85" cy="85" r="83"/>
</g>
<g id="Ellipse_3" transform="translate(592 137)">
	<circle class="st0" cx="85" cy="85" r="85"/>
	<circle class="st3" cx="85" cy="85" r="83"/>
</g>
<g id="Ellipse_4" transform="translate(888 137)">
	<circle class="st0" cx="85" cy="85" r="85"/>
	<circle class="st4" cx="85" cy="85" r="83"/>
</g>
<g id="Component_1_11" transform="translate(21.704 37.256)">
	<path id="Path_1" class="st5" d="M23.5,110.6c0,0-74.7-110.6,42-110.6s39.5,110.6,39.5,110.6"/>
	<path id="Polygon_1" class="st6" d="M104.3,112.8l-1.7-10.4l10.2,4.1L104.3,112.8z"/>
</g>
<g id="Component_1_12" transform="translate(315.704 37.256)">
	<path id="Path_1-2" class="st7" d="M23.5,110.6c0,0-74.7-110.6,42-110.6s39.5,110.6,39.5,110.6"/>
	<path id="Polygon_1-2" class="st8" d="M104.3,112.8l-1.7-10.4l10.2,4.1L104.3,112.8z"/>
</g>
<g id="Component_1_13" transform="translate(612 37.256)">
	<path id="Path_1-3" class="st9" d="M23.5,110.6c0,0-74.7-110.6,42-110.6s39.5,110.6,39.5,110.6"/>
	<path id="Polygon_1-3" class="st10" d="M104.3,112.8l-1.7-10.4l10.2,4.1L104.3,112.8z"/>
</g>
<g class="st11">
	<path class="st6" d="M81.4,19.9c0,3.2-0.5,5.5-1.6,7.1s-2.8,2.3-5.1,2.3c-2.3,0-4-0.8-5.1-2.3c-1.1-1.5-1.7-3.8-1.7-6.8v-3.6
		c0-3.1,0.5-5.5,1.6-7s2.8-2.3,5.1-2.3c2.3,0,4,0.7,5.1,2.2s1.6,3.7,1.7,6.8V19.9z M78.6,16.2c0-2.3-0.3-4-1-5
		c-0.6-1-1.7-1.6-3.1-1.6c-1.4,0-2.4,0.5-3,1.6s-1,2.7-1,4.8v4.3c0,2.3,0.3,4,1,5.1c0.7,1.1,1.7,1.6,3,1.6c1.3,0,2.3-0.5,3-1.6
		s1-2.7,1-4.9V16.2z"/>
	<path class="st6" d="M85.2,27.6c0-0.5,0.1-0.9,0.4-1.2s0.7-0.5,1.3-0.5s1,0.2,1.3,0.5s0.4,0.7,0.4,1.2c0,0.4-0.1,0.8-0.4,1.1
		s-0.7,0.5-1.3,0.5s-1-0.2-1.3-0.5S85.2,28,85.2,27.6z"/>
	<path class="st6" d="M96.7,17h2c1.3,0,2.3-0.4,3-1s1.1-1.5,1.1-2.7c0-2.5-1.2-3.8-3.7-3.8c-1.2,0-2.1,0.3-2.8,1s-1,1.6-1,2.7h-2.7
		c0-1.7,0.6-3.1,1.9-4.2s2.8-1.7,4.7-1.7c2,0,3.6,0.5,4.7,1.6s1.7,2.5,1.7,4.4c0,0.9-0.3,1.8-0.9,2.7s-1.4,1.5-2.5,1.9
		c1.2,0.4,2.1,1,2.7,1.8s1,1.9,1,3.1c0,1.9-0.6,3.4-1.9,4.6s-2.9,1.7-4.9,1.7s-3.6-0.5-4.9-1.6s-1.9-2.5-1.9-4.3H95
		c0,1.1,0.4,2,1.1,2.7s1.7,1,2.9,1c1.3,0,2.3-0.3,3-1s1-1.7,1-2.9c0-1.2-0.4-2.2-1.1-2.9s-1.9-1-3.3-1h-2V17z"/>
</g>
<g class="st11">
	<path class="st8" d="M375.4,19.9c0,3.2-0.5,5.5-1.6,7.1s-2.8,2.3-5.1,2.3c-2.3,0-4-0.8-5.1-2.3c-1.1-1.5-1.7-3.8-1.7-6.8v-3.6
		c0-3.1,0.5-5.5,1.6-7s2.8-2.3,5.1-2.3c2.3,0,4,0.7,5.1,2.2s1.6,3.7,1.7,6.8V19.9z M372.6,16.2c0-2.3-0.3-4-1-5
		c-0.6-1-1.7-1.6-3.1-1.6c-1.4,0-2.4,0.5-3,1.6s-1,2.7-1,4.8v4.3c0,2.3,0.3,4,1,5.1c0.7,1.1,1.7,1.6,3,1.6c1.3,0,2.3-0.5,3-1.6
		s1-2.7,1-4.9V16.2z"/>
	<path class="st8" d="M379.2,27.6c0-0.5,0.1-0.9,0.4-1.2s0.7-0.5,1.3-0.5s1,0.2,1.3,0.5s0.4,0.7,0.4,1.2c0,0.4-0.1,0.8-0.4,1.1
		s-0.7,0.5-1.3,0.5s-1-0.2-1.3-0.5S379.2,28,379.2,27.6z"/>
	<path class="st8" d="M399.7,13.2c0,1.1-0.3,2-0.8,2.8s-1.3,1.5-2.3,1.9c1.1,0.5,2,1.2,2.6,2.1s1,2,1,3.1c0,1.8-0.6,3.3-1.9,4.4
		s-2.9,1.6-4.9,1.6c-2.1,0-3.7-0.5-4.9-1.6c-1.2-1.1-1.9-2.6-1.9-4.4c0-1.2,0.3-2.2,0.9-3.1s1.5-1.6,2.6-2.1
		c-0.9-0.5-1.7-1.1-2.2-1.9s-0.8-1.8-0.8-2.8c0-1.8,0.6-3.2,1.7-4.3s2.7-1.6,4.6-1.6c1.9,0,3.4,0.5,4.5,1.6S399.7,11.4,399.7,13.2z
		 M397.4,23.2c0-1.2-0.4-2.2-1.1-2.9s-1.7-1.1-3-1.1s-2.2,0.4-2.9,1.1s-1.1,1.7-1.1,2.9s0.4,2.2,1.1,2.9s1.7,1,3,1
		c1.3,0,2.3-0.3,3-1C397.1,25.3,397.4,24.4,397.4,23.2z M393.4,9.6c-1.1,0-1.9,0.3-2.6,1c-0.7,0.7-1,1.6-1,2.7c0,1.1,0.3,2,1,2.6
		s1.5,1,2.6,1s2-0.3,2.6-1s1-1.5,1-2.6s-0.3-2-1-2.7S394.4,9.6,393.4,9.6z"/>
</g>
<g class="st11">
	<path class="st10" d="M671.4,19.9c0,3.2-0.5,5.5-1.6,7.1s-2.8,2.3-5.1,2.3c-2.3,0-4-0.8-5.1-2.3c-1.1-1.5-1.7-3.8-1.7-6.8v-3.6
		c0-3.1,0.5-5.5,1.6-7s2.8-2.3,5.1-2.3c2.3,0,4,0.7,5.1,2.2s1.6,3.7,1.7,6.8V19.9z M668.6,16.2c0-2.3-0.3-4-1-5
		c-0.6-1-1.7-1.6-3.1-1.6c-1.4,0-2.4,0.5-3,1.6s-1,2.7-1,4.8v4.3c0,2.3,0.3,4,1,5.1c0.7,1.1,1.7,1.6,3,1.6c1.3,0,2.3-0.5,3-1.6
		c0.7-1,1-2.7,1-4.9V16.2z"/>
	<path class="st10" d="M675.2,27.6c0-0.5,0.1-0.9,0.4-1.2c0.3-0.3,0.7-0.5,1.3-0.5s1,0.2,1.3,0.5c0.3,0.3,0.4,0.7,0.4,1.2
		c0,0.4-0.1,0.8-0.4,1.1c-0.3,0.3-0.7,0.5-1.3,0.5s-1-0.2-1.3-0.5C675.3,28.4,675.2,28,675.2,27.6z"/>
	<path class="st10" d="M684,18.3L685,7.7H696v2.5h-8.6l-0.6,5.8c1-0.6,2.2-0.9,3.6-0.9c1.9,0,3.5,0.6,4.6,1.9s1.7,3,1.7,5.2
		c0,2.2-0.6,3.9-1.8,5.2c-1.2,1.3-2.8,1.9-5,1.9c-1.9,0-3.4-0.5-4.6-1.6s-1.9-2.5-2-4.3h2.6c0.2,1.2,0.6,2.1,1.3,2.8
		c0.7,0.6,1.6,0.9,2.8,0.9c1.3,0,2.2-0.4,3-1.3c0.7-0.9,1.1-2,1.1-3.6c0-1.4-0.4-2.6-1.2-3.4c-0.8-0.9-1.8-1.3-3.1-1.3
		c-1.2,0-2.1,0.3-2.8,0.8l-0.7,0.6L684,18.3z"/>
</g>
<g id="Component_2_9" transform="translate(170 214.182)">
	<path id="Polygon_2" class="st6" d="M116.6,3l9.5,4.6l-9.3,5.9L116.6,3z"/>
	<line id="Line_1" class="st5" x1="117" y1="8.3" x2="0" y2="8.3"/>
</g>
<g id="Component_2_10" transform="translate(460 185.182)">
	<path id="Polygon_2-2" class="st8" d="M127.6,3l9.5,4.6l-9.3,5.9L127.6,3z"/>
	<line id="Line_1-2" class="st7" x1="128" y1="8.3" x2="0" y2="8.3"/>
</g>
<g id="Component_2_11" transform="translate(762 214.182)">
	<path id="Polygon_2-3" class="st10" d="M116.6,3l9.5,4.6l-9.3,5.9L116.6,3z"/>
	<line id="Line_1-3" class="st9" x1="117" y1="8.3" x2="0" y2="8.3"/>
</g>
<g class="st11">
	<path class="st6" d="M227.4,204.9c0,3.2-0.5,5.5-1.6,7.1s-2.8,2.3-5.1,2.3c-2.3,0-4-0.8-5.1-2.3c-1.1-1.5-1.7-3.8-1.7-6.8v-3.6
		c0-3.1,0.5-5.5,1.6-7s2.8-2.3,5.1-2.3c2.3,0,4,0.7,5.1,2.2s1.6,3.7,1.7,6.8V204.9z M224.6,201.2c0-2.3-0.3-4-1-5
		c-0.6-1-1.7-1.6-3.1-1.6c-1.4,0-2.4,0.5-3,1.6s-1,2.7-1,4.8v4.3c0,2.3,0.3,4,1,5.1c0.7,1.1,1.7,1.6,3,1.6c1.3,0,2.3-0.5,3-1.6
		s1-2.7,1-4.9V201.2z"/>
	<path class="st6" d="M231.2,212.6c0-0.5,0.1-0.9,0.4-1.2s0.7-0.5,1.3-0.5s1,0.2,1.3,0.5s0.4,0.7,0.4,1.2c0,0.4-0.1,0.8-0.4,1.1
		s-0.7,0.5-1.3,0.5s-1-0.2-1.3-0.5S231.2,213,231.2,212.6z"/>
	<path class="st6" d="M252.5,194.2l-8.8,19.8h-2.8l8.8-19.1h-11.5v-2.2h14.4V194.2z"/>
</g>
<g class="st11">
	<path class="st8" d="M523.4,175.9c0,3.2-0.5,5.5-1.6,7.1s-2.8,2.3-5.1,2.3c-2.3,0-4-0.8-5.1-2.3c-1.1-1.5-1.7-3.8-1.7-6.8v-3.6
		c0-3.1,0.5-5.5,1.6-7s2.8-2.3,5.1-2.3c2.3,0,4,0.7,5.1,2.2s1.6,3.7,1.7,6.8V175.9z M520.6,172.2c0-2.3-0.3-4-1-5
		c-0.6-1-1.7-1.6-3.1-1.6c-1.4,0-2.4,0.5-3,1.6s-1,2.7-1,4.8v4.3c0,2.3,0.3,4,1,5.1c0.7,1.1,1.7,1.6,3,1.6c1.3,0,2.3-0.5,3-1.6
		s1-2.7,1-4.9V172.2z"/>
	<path class="st8" d="M527.2,183.6c0-0.5,0.1-0.9,0.4-1.2s0.7-0.5,1.3-0.5s1,0.2,1.3,0.5c0.3,0.3,0.4,0.7,0.4,1.2
		c0,0.4-0.1,0.8-0.4,1.1c-0.3,0.3-0.7,0.5-1.3,0.5s-1-0.2-1.3-0.5S527.2,184,527.2,183.6z"/>
	<path class="st8" d="M548.7,185h-14v-1.9l7.4-8.2c1.1-1.2,1.8-2.2,2.3-3c0.4-0.8,0.6-1.6,0.6-2.4c0-1.1-0.3-2-1-2.7
		s-1.6-1.1-2.7-1.1c-1.3,0-2.4,0.4-3.1,1.2c-0.7,0.8-1.1,1.8-1.1,3.2h-2.7c0-2,0.6-3.5,1.9-4.8c1.3-1.2,3-1.8,5.1-1.8
		c2,0,3.5,0.5,4.7,1.6c1.2,1,1.7,2.4,1.7,4.2c0,2.1-1.3,4.6-4,7.5l-5.7,6.2h10.7V185z"/>
</g>
<g class="st11">
	<path class="st10" d="M819.4,204.9c0,3.2-0.5,5.5-1.6,7.1s-2.8,2.3-5.1,2.3c-2.3,0-4-0.8-5.1-2.3c-1.1-1.5-1.7-3.8-1.7-6.8v-3.6
		c0-3.1,0.5-5.5,1.6-7s2.8-2.3,5.1-2.3c2.3,0,4,0.7,5.1,2.2s1.6,3.7,1.7,6.8V204.9z M816.6,201.2c0-2.3-0.3-4-1-5
		c-0.6-1-1.7-1.6-3.1-1.6c-1.4,0-2.4,0.5-3,1.6s-1,2.7-1,4.8v4.3c0,2.3,0.3,4,1,5.1c0.7,1.1,1.7,1.6,3,1.6c1.3,0,2.3-0.5,3-1.6
		c0.7-1,1-2.7,1-4.9V201.2z"/>
	<path class="st10" d="M823.2,212.6c0-0.5,0.1-0.9,0.4-1.2c0.3-0.3,0.7-0.5,1.3-0.5s1,0.2,1.3,0.5c0.3,0.3,0.4,0.7,0.4,1.2
		c0,0.4-0.1,0.8-0.4,1.1c-0.3,0.3-0.7,0.5-1.3,0.5s-1-0.2-1.3-0.5C823.3,213.4,823.2,213,823.2,212.6z"/>
	<path class="st10" d="M839.6,214h-2.7v-18.1l-5.5,2v-2.5l7.8-2.9h0.4V214z"/>
</g>
<g class="st11">
	<path class="st6" d="M74.6,227.1V248h-7v-53.3h19.7c5.8,0,10.4,1.5,13.7,4.5c3.3,3,5,6.9,5,11.8c0,5.2-1.6,9.2-4.9,12
		c-3.2,2.8-7.9,4.2-13.9,4.2H74.6z M74.6,221.4h12.6c3.8,0,6.6-0.9,8.6-2.7c2-1.8,3-4.3,3-7.7c0-3.2-1-5.7-3-7.6
		c-2-1.9-4.7-2.9-8.2-3h-13V221.4z"/>
</g>
<g class="st11">
	<path class="st8" d="M392.2,234h-22.3l-5,14h-7.3l20.4-53.3h6.2l20.4,53.3h-7.2L392.2,234z M372,228.3h18.1l-9.1-24.9L372,228.3z"
		/>
</g>
<g class="st11">
	<path class="st10" d="M658.6,248v-53.3h15.1c4.6,0,8.7,1,12.3,3.1c3.6,2.1,6.3,5,8.3,8.8c1.9,3.8,2.9,8.1,2.9,13v3.4
		c0,5-1,9.4-2.9,13.2c-1.9,3.8-4.7,6.7-8.3,8.7c-3.6,2-7.8,3.1-12.6,3.1H658.6z M665.6,200.4v41.8h7.4c5.4,0,9.6-1.7,12.7-5.1
		c3-3.4,4.5-8.2,4.5-14.4v-3.1c0-6.1-1.4-10.8-4.3-14.1c-2.8-3.4-6.9-5.1-12.1-5.1H665.6z"/>
</g>
<g class="st11">
	<path class="st12" d="M972.7,224.2c-6-1.7-10.4-3.9-13.2-6.4c-2.7-2.5-4.1-5.6-4.1-9.4c0-4.2,1.7-7.7,5-10.4
		c3.4-2.7,7.7-4.1,13.1-4.1c3.7,0,6.9,0.7,9.8,2.1c2.9,1.4,5.1,3.4,6.7,5.9c1.6,2.5,2.4,5.2,2.4,8.2h-7.1c0-3.2-1-5.8-3.1-7.6
		s-4.9-2.8-8.7-2.8c-3.5,0-6.2,0.8-8.1,2.3c-1.9,1.5-2.9,3.7-2.9,6.4c0,2.2,0.9,4,2.8,5.5s5,2.9,9.4,4.1c4.4,1.2,7.9,2.6,10.4,4.1
		c2.5,1.5,4.4,3.3,5.6,5.3c1.2,2,1.8,4.4,1.8,7.1c0,4.3-1.7,7.8-5.1,10.4c-3.4,2.6-7.9,3.9-13.5,3.9c-3.7,0-7.1-0.7-10.3-2.1
		c-3.2-1.4-5.6-3.3-7.3-5.8c-1.7-2.4-2.6-5.2-2.6-8.3h7.1c0,3.2,1.2,5.8,3.6,7.6c2.4,1.9,5.6,2.8,9.5,2.8c3.7,0,6.6-0.8,8.5-2.3
		s3-3.6,3-6.2s-0.9-4.6-2.7-6.1C980.8,227,977.5,225.6,972.7,224.2z"/>
</g>
<g class="st11">
	<path class="st6" d="M40.5,327.7v8.3h-2.8v-21.3h7.9c2.3,0,4.2,0.6,5.5,1.8s2,2.8,2,4.7c0,2.1-0.6,3.7-1.9,4.8
		c-1.3,1.1-3.1,1.7-5.6,1.7H40.5z M40.5,325.4h5.1c1.5,0,2.7-0.4,3.5-1.1s1.2-1.7,1.2-3.1c0-1.3-0.4-2.3-1.2-3.1
		c-0.8-0.8-1.9-1.2-3.3-1.2h-5.2V325.4z"/>
	<path class="st6" d="M63.8,322.6c-0.4-0.1-0.9-0.1-1.3-0.1c-1.8,0-3,0.8-3.6,2.3V336h-2.7v-15.8h2.6l0,1.8c0.9-1.4,2.1-2.1,3.8-2.1
		c0.5,0,0.9,0.1,1.2,0.2V322.6z"/>
	<path class="st6" d="M72.6,336.3c-2.1,0-3.9-0.7-5.2-2.1c-1.3-1.4-2-3.3-2-5.7V328c0-1.6,0.3-3,0.9-4.2c0.6-1.2,1.4-2.2,2.5-2.9
		c1.1-0.7,2.2-1,3.5-1c2.1,0,3.7,0.7,4.8,2s1.7,3.3,1.7,5.8v1.1H68.1c0,1.6,0.5,2.8,1.4,3.8s2,1.4,3.3,1.4c1,0,1.8-0.2,2.4-0.6
		s1.2-0.9,1.7-1.6l1.7,1.3C77.3,335.3,75.3,336.3,72.6,336.3z M72.3,322.1c-1.1,0-2,0.4-2.8,1.2c-0.7,0.8-1.2,1.9-1.4,3.3h7.9v-0.2
		c-0.1-1.4-0.4-2.4-1.1-3.2C74.3,322.5,73.4,322.1,72.3,322.1z"/>
	<path class="st6" d="M95.3,328.3c0,2.4-0.6,4.4-1.7,5.8s-2.6,2.2-4.5,2.2c-1.9,0-3.4-0.6-4.5-1.8v7.6h-2.7v-21.9h2.5l0.1,1.8
		c1.1-1.4,2.6-2.1,4.6-2.1c1.9,0,3.4,0.7,4.5,2.2s1.7,3.4,1.7,6V328.3z M92.6,327.9c0-1.8-0.4-3.2-1.1-4.2s-1.8-1.6-3.1-1.6
		c-1.6,0-2.9,0.7-3.7,2.2v7.6c0.8,1.4,2.1,2.2,3.7,2.2c1.3,0,2.3-0.5,3.1-1.5C92.2,331.5,92.6,330,92.6,327.9z"/>
	<path class="st6" d="M108.6,336c-0.2-0.3-0.3-0.9-0.4-1.7c-1.3,1.3-2.8,2-4.5,2c-1.6,0-2.8-0.4-3.8-1.3c-1-0.9-1.5-2-1.5-3.4
		c0-1.7,0.6-2.9,1.9-3.8c1.3-0.9,3-1.4,5.3-1.4h2.6v-1.2c0-0.9-0.3-1.7-0.8-2.3s-1.4-0.8-2.5-0.8c-1,0-1.8,0.2-2.4,0.7s-1,1.1-1,1.8
		h-2.7c0-0.8,0.3-1.6,0.8-2.3c0.6-0.7,1.3-1.3,2.3-1.8s2-0.6,3.2-0.6c1.8,0,3.3,0.5,4.3,1.4c1,0.9,1.6,2.2,1.6,3.8v7.3
		c0,1.5,0.2,2.6,0.6,3.5v0.2H108.6z M104.1,333.9c0.8,0,1.7-0.2,2.4-0.7s1.3-1,1.7-1.7v-3.3H106c-3.3,0-5,1-5,2.9
		c0,0.8,0.3,1.5,0.8,2S103.2,333.9,104.1,333.9z"/>
	<path class="st6" d="M122.7,322.6c-0.4-0.1-0.9-0.1-1.3-0.1c-1.8,0-3,0.8-3.6,2.3V336h-2.7v-15.8h2.6l0,1.8
		c0.9-1.4,2.1-2.1,3.8-2.1c0.5,0,0.9,0.1,1.2,0.2V322.6z"/>
	<path class="st6" d="M131.5,336.3c-2.1,0-3.9-0.7-5.2-2.1c-1.3-1.4-2-3.3-2-5.7V328c0-1.6,0.3-3,0.9-4.2c0.6-1.2,1.4-2.2,2.5-2.9
		c1.1-0.7,2.2-1,3.5-1c2.1,0,3.7,0.7,4.8,2s1.7,3.3,1.7,5.8v1.1H127c0,1.6,0.5,2.8,1.4,3.8s2,1.4,3.3,1.4c1,0,1.8-0.2,2.4-0.6
		s1.2-0.9,1.7-1.6l1.7,1.3C136.2,335.3,134.2,336.3,131.5,336.3z M131.2,322.1c-1.1,0-2,0.4-2.8,1.2c-0.7,0.8-1.2,1.9-1.4,3.3h7.9
		v-0.2c-0.1-1.4-0.4-2.4-1.1-3.2C133.2,322.5,132.3,322.1,131.2,322.1z"/>
</g>
<g class="st11">
	<path class="st8" d="M324.4,330.4h-8.9l-2,5.6h-2.9l8.1-21.3h2.5l8.2,21.3h-2.9L324.4,330.4z M316.4,328.1h7.3l-3.6-10L316.4,328.1
		z"/>
	<path class="st8" d="M338.2,334.1c1,0,1.8-0.3,2.5-0.9s1.1-1.3,1.2-2.2h2.6c0,0.9-0.4,1.8-0.9,2.6s-1.3,1.5-2.3,2s-2,0.7-3.1,0.7
		c-2.2,0-3.9-0.7-5.1-2.2s-1.9-3.4-1.9-5.9v-0.5c0-1.5,0.3-2.9,0.8-4.1s1.4-2.1,2.4-2.8s2.3-1,3.8-1c1.8,0,3.3,0.5,4.4,1.6
		s1.8,2.4,1.9,4.1h-2.6c-0.1-1-0.5-1.9-1.2-2.5c-0.7-0.7-1.6-1-2.6-1c-1.4,0-2.4,0.5-3.2,1.5c-0.8,1-1.1,2.4-1.1,4.3v0.5
		c0,1.8,0.4,3.2,1.1,4.2S336.8,334.1,338.2,334.1z"/>
	<path class="st8" d="M353.9,334.1c1,0,1.8-0.3,2.5-0.9s1.1-1.3,1.2-2.2h2.6c0,0.9-0.4,1.8-0.9,2.6s-1.3,1.5-2.3,2s-2,0.7-3.1,0.7
		c-2.2,0-3.9-0.7-5.1-2.2s-1.9-3.4-1.9-5.9v-0.5c0-1.5,0.3-2.9,0.8-4.1s1.4-2.1,2.4-2.8s2.3-1,3.8-1c1.8,0,3.3,0.5,4.4,1.6
		s1.8,2.4,1.9,4.1h-2.6c-0.1-1-0.5-1.9-1.2-2.5c-0.7-0.7-1.6-1-2.6-1c-1.4,0-2.4,0.5-3.2,1.5c-0.8,1-1.1,2.4-1.1,4.3v0.5
		c0,1.8,0.4,3.2,1.1,4.2S352.5,334.1,353.9,334.1z"/>
	<path class="st8" d="M369.8,336.3c-2.1,0-3.9-0.7-5.2-2.1c-1.3-1.4-2-3.3-2-5.7V328c0-1.6,0.3-3,0.9-4.2c0.6-1.2,1.4-2.2,2.5-2.9
		c1.1-0.7,2.2-1,3.5-1c2.1,0,3.7,0.7,4.8,2s1.7,3.3,1.7,5.8v1.1h-10.7c0,1.6,0.5,2.8,1.4,3.8s2,1.4,3.3,1.4c1,0,1.8-0.2,2.4-0.6
		s1.2-0.9,1.7-1.6l1.7,1.3C374.4,335.3,372.4,336.3,369.8,336.3z M369.5,322.1c-1.1,0-2,0.4-2.8,1.2c-0.7,0.8-1.2,1.9-1.4,3.3h7.9
		v-0.2c-0.1-1.4-0.4-2.4-1.1-3.2C371.5,322.5,370.6,322.1,369.5,322.1z"/>
	<path class="st8" d="M382.1,336h-2.7v-22.5h2.7V336z"/>
	<path class="st8" d="M393,336.3c-2.1,0-3.9-0.7-5.2-2.1c-1.3-1.4-2-3.3-2-5.7V328c0-1.6,0.3-3,0.9-4.2c0.6-1.2,1.4-2.2,2.5-2.9
		c1.1-0.7,2.2-1,3.5-1c2.1,0,3.7,0.7,4.8,2s1.7,3.3,1.7,5.8v1.1h-10.7c0,1.6,0.5,2.8,1.4,3.8s2,1.4,3.3,1.4c1,0,1.8-0.2,2.4-0.6
		s1.2-0.9,1.7-1.6l1.7,1.3C397.6,335.3,395.6,336.3,393,336.3z M392.6,322.1c-1.1,0-2,0.4-2.8,1.2c-0.7,0.8-1.2,1.9-1.4,3.3h7.9
		v-0.2c-0.1-1.4-0.4-2.4-1.1-3.2C394.7,322.5,393.8,322.1,392.6,322.1z"/>
	<path class="st8" d="M409.9,322.6c-0.4-0.1-0.9-0.1-1.3-0.1c-1.8,0-3,0.8-3.6,2.3V336h-2.7v-15.8h2.6l0,1.8
		c0.9-1.4,2.1-2.1,3.8-2.1c0.5,0,0.9,0.1,1.2,0.2V322.6z"/>
	<path class="st8" d="M421.6,336c-0.2-0.3-0.3-0.9-0.4-1.7c-1.3,1.3-2.8,2-4.5,2c-1.6,0-2.8-0.4-3.8-1.3c-1-0.9-1.5-2-1.5-3.4
		c0-1.7,0.6-2.9,1.9-3.8c1.3-0.9,3-1.4,5.3-1.4h2.6v-1.2c0-0.9-0.3-1.7-0.8-2.3s-1.4-0.8-2.5-0.8c-1,0-1.8,0.2-2.4,0.7s-1,1.1-1,1.8
		h-2.7c0-0.8,0.3-1.6,0.8-2.3c0.6-0.7,1.3-1.3,2.3-1.8s2-0.6,3.2-0.6c1.8,0,3.3,0.5,4.3,1.4c1,0.9,1.6,2.2,1.6,3.8v7.3
		c0,1.5,0.2,2.6,0.6,3.5v0.2H421.6z M417.1,333.9c0.8,0,1.7-0.2,2.4-0.7s1.3-1,1.7-1.7v-3.3h-2.1c-3.3,0-5,1-5,2.9
		c0,0.8,0.3,1.5,0.8,2S416.2,333.9,417.1,333.9z"/>
	<path class="st8" d="M431.8,316.3v3.8h3v2.1h-3v9.8c0,0.6,0.1,1.1,0.4,1.4s0.7,0.5,1.3,0.5c0.3,0,0.7-0.1,1.3-0.2v2.2
		c-0.7,0.2-1.4,0.3-2.1,0.3c-1.2,0-2.1-0.4-2.7-1.1s-0.9-1.8-0.9-3.1v-9.8h-2.9v-2.1h2.9v-3.8H431.8z"/>
	<path class="st8" d="M444.5,336.3c-2.1,0-3.9-0.7-5.2-2.1c-1.3-1.4-2-3.3-2-5.7V328c0-1.6,0.3-3,0.9-4.2c0.6-1.2,1.4-2.2,2.5-2.9
		c1.1-0.7,2.2-1,3.5-1c2.1,0,3.7,0.7,4.8,2s1.7,3.3,1.7,5.8v1.1H440c0,1.6,0.5,2.8,1.4,3.8s2,1.4,3.3,1.4c1,0,1.8-0.2,2.4-0.6
		s1.2-0.9,1.7-1.6l1.7,1.3C449.2,335.3,447.2,336.3,444.5,336.3z M444.2,322.1c-1.1,0-2,0.4-2.8,1.2c-0.7,0.8-1.2,1.9-1.4,3.3h7.9
		v-0.2c-0.1-1.4-0.4-2.4-1.1-3.2C446.2,322.5,445.3,322.1,444.2,322.1z"/>
</g>
<g class="st11">
	<path class="st10" d="M608.5,336v-21.3h6c1.9,0,3.5,0.4,4.9,1.2s2.5,2,3.3,3.5c0.8,1.5,1.2,3.3,1.2,5.2v1.4c0,2-0.4,3.8-1.2,5.3
		c-0.8,1.5-1.9,2.7-3.3,3.5c-1.4,0.8-3.1,1.2-5,1.2H608.5z M611.3,317v16.7h3c2.2,0,3.9-0.7,5.1-2c1.2-1.3,1.8-3.3,1.8-5.8v-1.2
		c0-2.4-0.6-4.3-1.7-5.7c-1.1-1.3-2.8-2-4.8-2H611.3z"/>
	<path class="st10" d="M634.3,336.3c-2.1,0-3.9-0.7-5.2-2.1c-1.3-1.4-2-3.3-2-5.7V328c0-1.6,0.3-3,0.9-4.2c0.6-1.2,1.4-2.2,2.5-2.9
		c1.1-0.7,2.2-1,3.5-1c2.1,0,3.7,0.7,4.8,2s1.7,3.3,1.7,5.8v1.1h-10.7c0,1.6,0.5,2.8,1.4,3.8c0.9,1,2,1.4,3.3,1.4
		c1,0,1.8-0.2,2.4-0.6s1.2-0.9,1.7-1.6l1.7,1.3C639,335.3,637,336.3,634.3,336.3z M634,322.1c-1.1,0-2,0.4-2.8,1.2
		c-0.7,0.8-1.2,1.9-1.4,3.3h7.9v-0.2c-0.1-1.4-0.4-2.4-1.1-3.2C636,322.5,635.1,322.1,634,322.1z"/>
	<path class="st10" d="M650,334.1c1,0,1.8-0.3,2.5-0.9s1.1-1.3,1.2-2.2h2.6c0,0.9-0.4,1.8-0.9,2.6s-1.3,1.5-2.3,2
		c-1,0.5-2,0.7-3.1,0.7c-2.2,0-3.9-0.7-5.1-2.2c-1.3-1.4-1.9-3.4-1.9-5.9v-0.5c0-1.5,0.3-2.9,0.8-4.1s1.4-2.1,2.4-2.8
		c1.1-0.7,2.3-1,3.8-1c1.8,0,3.3,0.5,4.4,1.6c1.2,1.1,1.8,2.4,1.9,4.1h-2.6c-0.1-1-0.5-1.9-1.2-2.5c-0.7-0.7-1.6-1-2.6-1
		c-1.4,0-2.4,0.5-3.2,1.5c-0.8,1-1.1,2.4-1.1,4.3v0.5c0,1.8,0.4,3.2,1.1,4.2S648.6,334.1,650,334.1z"/>
	<path class="st10" d="M665.9,336.3c-2.1,0-3.9-0.7-5.2-2.1c-1.3-1.4-2-3.3-2-5.7V328c0-1.6,0.3-3,0.9-4.2c0.6-1.2,1.4-2.2,2.5-2.9
		c1.1-0.7,2.2-1,3.5-1c2.1,0,3.7,0.7,4.8,2s1.7,3.3,1.7,5.8v1.1h-10.7c0,1.6,0.5,2.8,1.4,3.8c0.9,1,2,1.4,3.3,1.4
		c1,0,1.8-0.2,2.4-0.6s1.2-0.9,1.7-1.6l1.7,1.3C670.6,335.3,668.6,336.3,665.9,336.3z M665.6,322.1c-1.1,0-2,0.4-2.8,1.2
		c-0.7,0.8-1.2,1.9-1.4,3.3h7.9v-0.2c-0.1-1.4-0.4-2.4-1.1-3.2C667.6,322.5,666.7,322.1,665.6,322.1z"/>
	<path class="st10" d="M678.2,336h-2.7v-22.5h2.7V336z"/>
	<path class="st10" d="M689.1,336.3c-2.1,0-3.9-0.7-5.2-2.1c-1.3-1.4-2-3.3-2-5.7V328c0-1.6,0.3-3,0.9-4.2c0.6-1.2,1.4-2.2,2.5-2.9
		c1.1-0.7,2.2-1,3.5-1c2.1,0,3.7,0.7,4.8,2s1.7,3.3,1.7,5.8v1.1h-10.7c0,1.6,0.5,2.8,1.4,3.8c0.9,1,2,1.4,3.3,1.4
		c1,0,1.8-0.2,2.4-0.6s1.2-0.9,1.7-1.6l1.7,1.3C693.8,335.3,691.8,336.3,689.1,336.3z M688.8,322.1c-1.1,0-2,0.4-2.8,1.2
		c-0.7,0.8-1.2,1.9-1.4,3.3h7.9v-0.2c-0.1-1.4-0.4-2.4-1.1-3.2C690.8,322.5,689.9,322.1,688.8,322.1z"/>
	<path class="st10" d="M706.1,322.6c-0.4-0.1-0.9-0.1-1.3-0.1c-1.8,0-3,0.8-3.6,2.3V336h-2.7v-15.8h2.6l0,1.8
		c0.9-1.4,2.1-2.1,3.8-2.1c0.5,0,0.9,0.1,1.2,0.2V322.6z"/>
	<path class="st10" d="M717.8,336c-0.2-0.3-0.3-0.9-0.4-1.7c-1.3,1.3-2.8,2-4.5,2c-1.6,0-2.8-0.4-3.8-1.3c-1-0.9-1.5-2-1.5-3.4
		c0-1.7,0.6-2.9,1.9-3.8c1.3-0.9,3-1.4,5.3-1.4h2.6v-1.2c0-0.9-0.3-1.7-0.8-2.3s-1.4-0.8-2.5-0.8c-1,0-1.8,0.2-2.4,0.7s-1,1.1-1,1.8
		h-2.7c0-0.8,0.3-1.6,0.8-2.3c0.6-0.7,1.3-1.3,2.3-1.8c1-0.4,2-0.6,3.2-0.6c1.8,0,3.3,0.5,4.3,1.4c1,0.9,1.6,2.2,1.6,3.8v7.3
		c0,1.5,0.2,2.6,0.6,3.5v0.2H717.8z M713.3,333.9c0.8,0,1.7-0.2,2.4-0.7s1.3-1,1.7-1.7v-3.3h-2.1c-3.3,0-5,1-5,2.9
		c0,0.8,0.3,1.5,0.8,2S712.4,333.9,713.3,333.9z"/>
	<path class="st10" d="M728,316.3v3.8h3v2.1h-3v9.8c0,0.6,0.1,1.1,0.4,1.4s0.7,0.5,1.3,0.5c0.3,0,0.7-0.1,1.3-0.2v2.2
		c-0.7,0.2-1.4,0.3-2.1,0.3c-1.2,0-2.1-0.4-2.7-1.1s-0.9-1.8-0.9-3.1v-9.8h-2.9v-2.1h2.9v-3.8H728z"/>
	<path class="st10" d="M740.7,336.3c-2.1,0-3.9-0.7-5.2-2.1c-1.3-1.4-2-3.3-2-5.7V328c0-1.6,0.3-3,0.9-4.2c0.6-1.2,1.4-2.2,2.5-2.9
		c1.1-0.7,2.2-1,3.5-1c2.1,0,3.7,0.7,4.8,2s1.7,3.3,1.7,5.8v1.1h-10.7c0,1.6,0.5,2.8,1.4,3.8c0.9,1,2,1.4,3.3,1.4
		c1,0,1.8-0.2,2.4-0.6s1.2-0.9,1.7-1.6l1.7,1.3C745.3,335.3,743.3,336.3,740.7,336.3z M740.4,322.1c-1.1,0-2,0.4-2.8,1.2
		c-0.7,0.8-1.2,1.9-1.4,3.3h7.9v-0.2c-0.1-1.4-0.4-2.4-1.1-3.2C742.4,322.5,741.5,322.1,740.4,322.1z"/>
</g>
<g class="st11">
	<path class="st12" d="M951.1,326.5c-2.4-0.7-4.2-1.5-5.3-2.6c-1.1-1-1.6-2.3-1.6-3.7c0-1.7,0.7-3.1,2-4.2c1.3-1.1,3.1-1.6,5.2-1.6
		c1.5,0,2.8,0.3,3.9,0.8c1.1,0.6,2,1.3,2.7,2.3c0.6,1,0.9,2.1,0.9,3.3h-2.8c0-1.3-0.4-2.3-1.2-3.1c-0.8-0.7-2-1.1-3.5-1.1
		c-1.4,0-2.5,0.3-3.2,0.9c-0.8,0.6-1.2,1.5-1.2,2.5c0,0.9,0.4,1.6,1.1,2.2c0.7,0.6,2,1.2,3.8,1.7c1.8,0.5,3.2,1,4.2,1.6
		c1,0.6,1.7,1.3,2.2,2.1c0.5,0.8,0.7,1.7,0.7,2.8c0,1.7-0.7,3.1-2,4.2c-1.3,1-3.1,1.6-5.4,1.6c-1.5,0-2.8-0.3-4.1-0.8
		c-1.3-0.6-2.2-1.3-2.9-2.3c-0.7-1-1-2.1-1-3.3h2.8c0,1.3,0.5,2.3,1.4,3.1c1,0.7,2.2,1.1,3.8,1.1c1.5,0,2.6-0.3,3.4-0.9
		s1.2-1.4,1.2-2.5s-0.4-1.9-1.1-2.4C954.4,327.6,953.1,327,951.1,326.5z"/>
	<path class="st12" d="M965.9,316.3v3.8h3v2.1h-3v9.8c0,0.6,0.1,1.1,0.4,1.4s0.7,0.5,1.3,0.5c0.3,0,0.7-0.1,1.3-0.2v2.2
		c-0.7,0.2-1.4,0.3-2.1,0.3c-1.2,0-2.1-0.4-2.7-1.1s-0.9-1.8-0.9-3.1v-9.8h-2.9v-2.1h2.9v-3.8H965.9z"/>
	<path class="st12" d="M971,327.9c0-1.6,0.3-2.9,0.9-4.2c0.6-1.2,1.5-2.2,2.5-2.9c1.1-0.7,2.3-1,3.7-1c2.2,0,3.9,0.7,5.2,2.2
		c1.3,1.5,2,3.5,2,6v0.2c0,1.5-0.3,2.9-0.9,4.2c-0.6,1.2-1.4,2.2-2.5,2.9c-1.1,0.7-2.4,1-3.8,1c-2.1,0-3.9-0.7-5.2-2.2
		c-1.3-1.5-2-3.5-2-5.9V327.9z M973.7,328.3c0,1.8,0.4,3.2,1.2,4.2c0.8,1.1,1.9,1.6,3.3,1.6c1.4,0,2.5-0.5,3.3-1.6s1.2-2.6,1.2-4.5
		c0-1.7-0.4-3.1-1.2-4.2c-0.8-1.1-1.9-1.6-3.3-1.6c-1.3,0-2.4,0.5-3.2,1.6S973.7,326.3,973.7,328.3z"/>
	<path class="st12" d="M1002.2,328.3c0,2.4-0.6,4.4-1.7,5.8s-2.6,2.2-4.5,2.2c-1.9,0-3.4-0.6-4.5-1.8v7.6h-2.7v-21.9h2.5l0.1,1.8
		c1.1-1.4,2.6-2.1,4.6-2.1c1.9,0,3.4,0.7,4.5,2.2c1.1,1.4,1.7,3.4,1.7,6V328.3z M999.5,327.9c0-1.8-0.4-3.2-1.1-4.2
		s-1.8-1.6-3.1-1.6c-1.6,0-2.9,0.7-3.7,2.2v7.6c0.8,1.4,2.1,2.2,3.7,2.2c1.3,0,2.3-0.5,3.1-1.5C999.1,331.5,999.5,330,999.5,327.9z"
		/>
</g>
<g id="Component_2_12" transform="translate(597.113 260.683) rotate(180)">
	<path id="Polygon_2-4" class="st10" d="M127.6,3l9.5,4.6l-9.3,5.9L127.6,3z"/>
	<line id="Line_1-4" class="st9" x1="128" y1="8.3" x2="0" y2="8.3"/>
</g>
<g class="st11">
	<path class="st10" d="M523.4,234.9c0,3.2-0.5,5.5-1.6,7.1s-2.8,2.3-5.1,2.3c-2.3,0-4-0.8-5.1-2.3c-1.1-1.5-1.7-3.8-1.7-6.8v-3.6
		c0-3.1,0.5-5.5,1.6-7s2.8-2.3,5.1-2.3c2.3,0,4,0.7,5.1,2.2s1.6,3.7,1.7,6.8V234.9z M520.6,231.2c0-2.3-0.3-4-1-5
		c-0.6-1-1.7-1.6-3.1-1.6c-1.4,0-2.4,0.5-3,1.6s-1,2.7-1,4.8v4.3c0,2.3,0.3,4,1,5.1c0.7,1.1,1.7,1.6,3,1.6c1.3,0,2.3-0.5,3-1.6
		s1-2.7,1-4.9V231.2z"/>
	<path class="st10" d="M527.2,242.6c0-0.5,0.1-0.9,0.4-1.2s0.7-0.5,1.3-0.5s1,0.2,1.3,0.5c0.3,0.3,0.4,0.7,0.4,1.2
		c0,0.4-0.1,0.8-0.4,1.1c-0.3,0.3-0.7,0.5-1.3,0.5s-1-0.2-1.3-0.5S527.2,243,527.2,242.6z"/>
	<path class="st10" d="M546.2,236.8h3v2.2h-3v5h-2.7v-5h-9.7v-1.6l9.6-14.8h2.9V236.8z M536.8,236.8h6.6v-10.5l-0.3,0.6L536.8,236.8
		z"/>
</g>
</svg>
