<svg xmlns="http://www.w3.org/2000/svg" width="650" height="300" viewBox="0 0 650 300"><g fill="#f0f0f0"><path d="M 648.5 298.5 L 1.5 298.5 L 1.5 1.5 L 648.5 1.5 L 648.5 298.5 Z" stroke="none"/><path d="M 3 3 L 3 297 L 647 297 L 647 3 L 3 3 M 0 0 L 650 0 L 650 300 L 0 300 L 0 0 Z" stroke="none" fill="#2d2d2d"/></g><path d="M2.922-5.315a4.362,4.362,0,0,0,.966,3.1A3.937,3.937,0,0,0,6.87-1.2a5.1,5.1,0,0,0,3.657-1.265A4.62,4.62,0,0,0,11.86-5.981a4.335,4.335,0,0,0-.367-1.837A5.19,5.19,0,0,0,10.382-9.34a15.5,15.5,0,0,0-2.145-1.666,14.647,14.647,0,0,1-2.1-1.683A6.7,6.7,0,0,1,4.8-14.543a5.194,5.194,0,0,1-.5-2.29,6.5,6.5,0,0,1,.974-3.555,6.39,6.39,0,0,1,2.751-2.375,9.521,9.521,0,0,1,4.1-.837,18.567,18.567,0,0,1,2.914.214,20.82,20.82,0,0,1,2.965.726l-.957,4.392H15.415a6.377,6.377,0,0,0-.444-2.281,2.376,2.376,0,0,0-1.077-1.188,4.106,4.106,0,0,0-1.863-.359,5.173,5.173,0,0,0-2.5.581A4.03,4.03,0,0,0,7.9-19.935a4.46,4.46,0,0,0-.564,2.23,3.823,3.823,0,0,0,.675,2.247A10.474,10.474,0,0,0,10.6-13.176,17.343,17.343,0,0,1,13.151-11.1a6.168,6.168,0,0,1,1.3,1.94,6.249,6.249,0,0,1,.419,2.375,6.884,6.884,0,0,1-1,3.7,6.615,6.615,0,0,1-2.82,2.5A9.4,9.4,0,0,1,6.9.291,24.415,24.415,0,0,1,3.512.034,26.281,26.281,0,0,1,.256-.615l1.025-4.7ZM25.792,12H23.938V-.291L20.22,1.075V-.6L25.5-2.584h.289Z" transform="translate(11 34)" fill="#2d2d2d"/><g transform="translate(111 63)" fill="#6ec668"><path d="M 87.5 174 C 81.63043212890625 174 75.76483917236328 173.4087219238281 70.06618499755859 172.2426147460938 C 64.51284027099609 171.1062316894531 59.05040740966797 169.4105834960938 53.83061218261719 167.2028198242188 C 48.70534133911133 165.0350036621094 43.76195526123047 162.3518218994141 39.13772583007813 159.2277526855469 C 34.55718231201172 156.1332092285156 30.24981880187988 152.5792999267578 26.33527183532715 148.6647338867188 C 22.42070388793945 144.7501831054688 18.86679458618164 140.4428253173828 15.77225017547607 135.8622741699219 C 12.6481819152832 131.2380523681641 9.965000152587891 126.2946624755859 7.797181606292725 121.1693878173828 C 5.589408874511719 115.949592590332 3.893772840499878 110.4871597290039 2.757386445999146 104.9338150024414 C 1.591272711753845 99.23516082763672 1 93.36956787109375 1 87.5 C 1 81.63043212890625 1.591272711753845 75.76483917236328 2.757386445999146 70.06618499755859 C 3.893772840499878 64.51284027099609 5.589408874511719 59.05040740966797 7.797181606292725 53.83061218261719 C 9.965000152587891 48.70534133911133 12.6481819152832 43.76195526123047 15.77225017547607 39.13772583007813 C 18.86679458618164 34.55718231201172 22.42070388793945 30.24981880187988 26.33527183532715 26.33527183532715 C 30.24981880187988 22.42070388793945 34.55718231201172 18.86679458618164 39.13772583007813 15.77225017547607 C 43.76195526123047 12.6481819152832 48.70534133911133 9.965000152587891 53.83061218261719 7.797181606292725 C 59.05040740966797 5.589408874511719 64.51284027099609 3.893772840499878 70.06618499755859 2.757386445999146 C 75.76483917236328 1.591272711753845 81.63043212890625 1 87.5 1 C 93.36956787109375 1 99.23516082763672 1.591272711753845 104.9338150024414 2.757386445999146 C 110.4871597290039 3.893772840499878 115.949592590332 5.589408874511719 121.1693878173828 7.797181606292725 C 126.2946624755859 9.965000152587891 131.2380523681641 12.6481819152832 135.8622741699219 15.77225017547607 C 140.4428253173828 18.86679458618164 144.7501831054688 22.42070388793945 148.6647338867188 26.33527183532715 C 152.5792999267578 30.24981880187988 156.1332092285156 34.55718231201172 159.2277526855469 39.13772583007813 C 162.3518218994141 43.76195526123047 165.0350036621094 48.70534133911133 167.2028198242188 53.83061218261719 C 169.4105834960938 59.05040740966797 171.1062316894531 64.51284027099609 172.2426147460938 70.06618499755859 C 173.4087219238281 75.76483917236328 174 81.63043212890625 174 87.5 C 174 93.36956787109375 173.4087219238281 99.23516082763672 172.2426147460938 104.9338150024414 C 171.1062316894531 110.4871597290039 169.4105834960938 115.949592590332 167.2028198242188 121.1693878173828 C 165.0350036621094 126.2946624755859 162.3518218994141 131.2380523681641 159.2277526855469 135.8622741699219 C 156.1332092285156 140.4428253173828 152.5792999267578 144.7501831054688 148.6647338867188 148.6647338867188 C 144.7501831054688 152.5792999267578 140.4428253173828 156.1332092285156 135.8622741699219 159.2277526855469 C 131.2380523681641 162.3518218994141 126.2946624755859 165.0350036621094 121.1693878173828 167.2028198242188 C 115.949592590332 169.4105834960938 110.4871597290039 171.1062316894531 104.9338150024414 172.2426147460938 C 99.23516082763672 173.4087219238281 93.36956787109375 174 87.5 174 Z" stroke="none"/><path d="M 87.5 2 C 81.69761657714844 2 75.89949798583984 2.584426879882813 70.26663970947266 3.737091064453125 C 64.77799987792969 4.860244750976563 59.37916564941406 6.536117553710938 54.22016906738281 8.718185424804688 C 49.15435791015625 10.86085510253906 44.26823425292969 13.51295471191406 39.69754028320313 16.60087585449219 C 35.16973876953125 19.65980529785156 30.91192626953125 23.17283630371094 27.04237365722656 27.04237365722656 C 23.17283630371094 30.91192626953125 19.65980529785156 35.16973876953125 16.60087585449219 39.69754028320313 C 13.51295471191406 44.26823425292969 10.86085510253906 49.15435791015625 8.718185424804688 54.22016906738281 C 6.536117553710938 59.37916564941406 4.860244750976563 64.77799987792969 3.737091064453125 70.26663970947266 C 2.584426879882813 75.89949798583984 2 81.69761657714844 2 87.5 C 2 93.30238342285156 2.584426879882813 99.10050201416016 3.737091064453125 104.7333602905273 C 4.860244750976563 110.2220001220703 6.536117553710938 115.6208343505859 8.718185424804688 120.7798309326172 C 10.86085510253906 125.8456420898438 13.51295471191406 130.7317657470703 16.60087585449219 135.3024597167969 C 19.65980529785156 139.8302612304688 23.17283630371094 144.0880737304688 27.04237365722656 147.9576110839844 C 30.91192626953125 151.8271636962891 35.16973876953125 155.3401947021484 39.69754028320313 158.3991241455078 C 44.26823425292969 161.4870452880859 49.15435791015625 164.1391448974609 54.22016906738281 166.2818145751953 C 59.37916564941406 168.4638824462891 64.77799987792969 170.1397552490234 70.26663970947266 171.2629089355469 C 75.89949798583984 172.4155731201172 81.69761657714844 173 87.5 173 C 93.30238342285156 173 99.10050201416016 172.4155731201172 104.7333602905273 171.2629089355469 C 110.2220001220703 170.1397552490234 115.6208343505859 168.4638824462891 120.7798309326172 166.2818145751953 C 125.8456420898438 164.1391448974609 130.7317657470703 161.4870452880859 135.3024597167969 158.3991241455078 C 139.8302612304688 155.3401947021484 144.0880737304688 151.8271636962891 147.9576110839844 147.9576110839844 C 151.8271636962891 144.0880737304688 155.3401947021484 139.8302612304688 158.3991241455078 135.3024597167969 C 161.4870452880859 130.7317657470703 164.1391448974609 125.8456420898438 166.2818145751953 120.7798309326172 C 168.4638824462891 115.6208343505859 170.1397552490234 110.2220001220703 171.2629089355469 104.7333602905273 C 172.4155731201172 99.10050201416016 173 93.30238342285156 173 87.5 C 173 81.69761657714844 172.4155731201172 75.89949798583984 171.2629089355469 70.26663970947266 C 170.1397552490234 64.77799987792969 168.4638824462891 59.37916564941406 166.2818145751953 54.22016906738281 C 164.1391448974609 49.15435791015625 161.4870452880859 44.26823425292969 158.3991241455078 39.69754028320313 C 155.3401947021484 35.16973876953125 151.8271636962891 30.91192626953125 147.9576110839844 27.04237365722656 C 144.0880737304688 23.17283630371094 139.8302612304688 19.65980529785156 135.3024597167969 16.60087585449219 C 130.7317657470703 13.51295471191406 125.8456420898438 10.86085510253906 120.7798309326172 8.718185424804688 C 115.6208343505859 6.536117553710938 110.2220001220703 4.860244750976563 104.7333602905273 3.737091064453125 C 99.10050201416016 2.584426879882813 93.30238342285156 2 87.5 2 M 87.5 0 C 135.8249053955078 0 175 39.17509460449219 175 87.5 C 175 135.8249053955078 135.8249053955078 175 87.5 175 C 39.17509460449219 175 0 135.8249053955078 0 87.5 C 0 39.17509460449219 39.17509460449219 0 87.5 0 Z" stroke="none" fill="#2d2d2d"/></g><g transform="translate(365 63)" fill="#6ec668"><path d="M 87.5 174 C 81.63043212890625 174 75.76483917236328 173.4087219238281 70.06618499755859 172.2426147460938 C 64.51284027099609 171.1062316894531 59.05040740966797 169.4105834960938 53.83061218261719 167.2028198242188 C 48.70534133911133 165.0350036621094 43.76195526123047 162.3518218994141 39.13772583007813 159.2277526855469 C 34.55718231201172 156.1332092285156 30.24981880187988 152.5792999267578 26.33527183532715 148.6647338867188 C 22.42070388793945 144.7501831054688 18.86679458618164 140.4428253173828 15.77225017547607 135.8622741699219 C 12.6481819152832 131.2380523681641 9.965000152587891 126.2946624755859 7.797181606292725 121.1693878173828 C 5.589408874511719 115.949592590332 3.893772840499878 110.4871597290039 2.757386445999146 104.9338150024414 C 1.591272711753845 99.23516082763672 1 93.36956787109375 1 87.5 C 1 81.63043212890625 1.591272711753845 75.76483917236328 2.757386445999146 70.06618499755859 C 3.893772840499878 64.51284027099609 5.589408874511719 59.05040740966797 7.797181606292725 53.83061218261719 C 9.965000152587891 48.70534133911133 12.6481819152832 43.76195526123047 15.77225017547607 39.13772583007813 C 18.86679458618164 34.55718231201172 22.42070388793945 30.24981880187988 26.33527183532715 26.33527183532715 C 30.24981880187988 22.42070388793945 34.55718231201172 18.86679458618164 39.13772583007813 15.77225017547607 C 43.76195526123047 12.6481819152832 48.70534133911133 9.965000152587891 53.83061218261719 7.797181606292725 C 59.05040740966797 5.589408874511719 64.51284027099609 3.893772840499878 70.06618499755859 2.757386445999146 C 75.76483917236328 1.591272711753845 81.63043212890625 1 87.5 1 C 93.36956787109375 1 99.23516082763672 1.591272711753845 104.9338150024414 2.757386445999146 C 110.4871597290039 3.893772840499878 115.949592590332 5.589408874511719 121.1693878173828 7.797181606292725 C 126.2946624755859 9.965000152587891 131.2380523681641 12.6481819152832 135.8622741699219 15.77225017547607 C 140.4428253173828 18.86679458618164 144.7501831054688 22.42070388793945 148.6647338867188 26.33527183532715 C 152.5792999267578 30.24981880187988 156.1332092285156 34.55718231201172 159.2277526855469 39.13772583007813 C 162.3518218994141 43.76195526123047 165.0350036621094 48.70534133911133 167.2028198242188 53.83061218261719 C 169.4105834960938 59.05040740966797 171.1062316894531 64.51284027099609 172.2426147460938 70.06618499755859 C 173.4087219238281 75.76483917236328 174 81.63043212890625 174 87.5 C 174 93.36956787109375 173.4087219238281 99.23516082763672 172.2426147460938 104.9338150024414 C 171.1062316894531 110.4871597290039 169.4105834960938 115.949592590332 167.2028198242188 121.1693878173828 C 165.0350036621094 126.2946624755859 162.3518218994141 131.2380523681641 159.2277526855469 135.8622741699219 C 156.1332092285156 140.4428253173828 152.5792999267578 144.7501831054688 148.6647338867188 148.6647338867188 C 144.7501831054688 152.5792999267578 140.4428253173828 156.1332092285156 135.8622741699219 159.2277526855469 C 131.2380523681641 162.3518218994141 126.2946624755859 165.0350036621094 121.1693878173828 167.2028198242188 C 115.949592590332 169.4105834960938 110.4871597290039 171.1062316894531 104.9338150024414 172.2426147460938 C 99.23516082763672 173.4087219238281 93.36956787109375 174 87.5 174 Z" stroke="none"/><path d="M 87.5 2 C 81.69761657714844 2 75.89949798583984 2.584426879882813 70.26663970947266 3.737091064453125 C 64.77799987792969 4.860244750976563 59.37916564941406 6.536117553710938 54.22016906738281 8.718185424804688 C 49.15435791015625 10.86085510253906 44.26823425292969 13.51295471191406 39.69754028320313 16.60087585449219 C 35.16973876953125 19.65980529785156 30.91192626953125 23.17283630371094 27.04237365722656 27.04237365722656 C 23.17283630371094 30.91192626953125 19.65980529785156 35.16973876953125 16.60087585449219 39.69754028320313 C 13.51295471191406 44.26823425292969 10.86085510253906 49.15435791015625 8.718185424804688 54.22016906738281 C 6.536117553710938 59.37916564941406 4.860244750976563 64.77799987792969 3.737091064453125 70.26663970947266 C 2.584426879882813 75.89949798583984 2 81.69761657714844 2 87.5 C 2 93.30238342285156 2.584426879882813 99.10050201416016 3.737091064453125 104.7333602905273 C 4.860244750976563 110.2220001220703 6.536117553710938 115.6208343505859 8.718185424804688 120.7798309326172 C 10.86085510253906 125.8456420898438 13.51295471191406 130.7317657470703 16.60087585449219 135.3024597167969 C 19.65980529785156 139.8302612304688 23.17283630371094 144.0880737304688 27.04237365722656 147.9576110839844 C 30.91192626953125 151.8271636962891 35.16973876953125 155.3401947021484 39.69754028320313 158.3991241455078 C 44.26823425292969 161.4870452880859 49.15435791015625 164.1391448974609 54.22016906738281 166.2818145751953 C 59.37916564941406 168.4638824462891 64.77799987792969 170.1397552490234 70.26663970947266 171.2629089355469 C 75.89949798583984 172.4155731201172 81.69761657714844 173 87.5 173 C 93.30238342285156 173 99.10050201416016 172.4155731201172 104.7333602905273 171.2629089355469 C 110.2220001220703 170.1397552490234 115.6208343505859 168.4638824462891 120.7798309326172 166.2818145751953 C 125.8456420898438 164.1391448974609 130.7317657470703 161.4870452880859 135.3024597167969 158.3991241455078 C 139.8302612304688 155.3401947021484 144.0880737304688 151.8271636962891 147.9576110839844 147.9576110839844 C 151.8271636962891 144.0880737304688 155.3401947021484 139.8302612304688 158.3991241455078 135.3024597167969 C 161.4870452880859 130.7317657470703 164.1391448974609 125.8456420898438 166.2818145751953 120.7798309326172 C 168.4638824462891 115.6208343505859 170.1397552490234 110.2220001220703 171.2629089355469 104.7333602905273 C 172.4155731201172 99.10050201416016 173 93.30238342285156 173 87.5 C 173 81.69761657714844 172.4155731201172 75.89949798583984 171.2629089355469 70.26663970947266 C 170.1397552490234 64.77799987792969 168.4638824462891 59.37916564941406 166.2818145751953 54.22016906738281 C 164.1391448974609 49.15435791015625 161.4870452880859 44.26823425292969 158.3991241455078 39.69754028320313 C 155.3401947021484 35.16973876953125 151.8271636962891 30.91192626953125 147.9576110839844 27.04237365722656 C 144.0880737304688 23.17283630371094 139.8302612304688 19.65980529785156 135.3024597167969 16.60087585449219 C 130.7317657470703 13.51295471191406 125.8456420898438 10.86085510253906 120.7798309326172 8.718185424804688 C 115.6208343505859 6.536117553710938 110.2220001220703 4.860244750976563 104.7333602905273 3.737091064453125 C 99.10050201416016 2.584426879882813 93.30238342285156 2 87.5 2 M 87.5 0 C 135.8249053955078 0 175 39.17509460449219 175 87.5 C 175 135.8249053955078 135.8249053955078 175 87.5 175 C 39.17509460449219 175 0 135.8249053955078 0 87.5 C 0 39.17509460449219 39.17509460449219 0 87.5 0 Z" stroke="none" fill="#2d2d2d"/></g><path d="M-1.965-23.328l-.188.837a1.812,1.812,0,0,0-1.094.419,1.417,1.417,0,0,0-.376,1.085,10.585,10.585,0,0,0,.479,2.734l1.812,6.443,4.2-5.623a18.058,18.058,0,0,0,1.683-2.538,3.436,3.436,0,0,0,.4-1.461.881.881,0,0,0-.325-.735,1.828,1.828,0,0,0-.94-.325l.188-.837h6.409l-.188.837a2.59,2.59,0,0,0-.709.248,3.508,3.508,0,0,0-.684.521,13.185,13.185,0,0,0-1.042,1.154q-.658.795-1.683,2.128L-.667-9.81l-1.06,4.836q-.154.684-.214,1.068t-.1.82q-.043.436-.043.778a1.68,1.68,0,0,0,.171.829,1,1,0,0,0,.513.436A4.538,4.538,0,0,0-.222-.837L-.41,0H-7.6l.188-.837a3.349,3.349,0,0,0,1.008-.273,1.62,1.62,0,0,0,.573-.53,4.514,4.514,0,0,0,.5-1.128q.248-.769.59-2.324L-3.743-9.81l-2.478-8.63a21.55,21.55,0,0,0-.889-2.683,2.7,2.7,0,0,0-.692-.991,1.979,1.979,0,0,0-.966-.376l.188-.837Z" transform="translate(453 162)" fill="#2d2d2d"/><path d="M.419-23.328l-.188.837a2.282,2.282,0,0,0-1.171.5,1.414,1.414,0,0,0-.436,1.119,8.91,8.91,0,0,0,.564,2.751L.607-13.979l3.162-4Q4.5-18.9,4.913-19.491a5.338,5.338,0,0,0,.59-1.042,2.205,2.205,0,0,0,.179-.795,1.18,1.18,0,0,0-.273-.786,1.311,1.311,0,0,0-.94-.376l.188-.837h6.375l-.188.837a3.051,3.051,0,0,0-.966.5A8.418,8.418,0,0,0,8.8-20.969q-.624.684-2.316,2.7L1.393-12.185l2.5,6.938q.564,1.572.923,2.4a7.442,7.442,0,0,0,.632,1.222,2.026,2.026,0,0,0,.461.453,3.161,3.161,0,0,0,.8.333L6.537,0h-6.9L-.2-.837a2.1,2.1,0,0,0,1.2-.538,1.468,1.468,0,0,0,.419-1.085A7.144,7.144,0,0,0,1.017-4.7L-.76-9.912l-3.9,4.871A14.846,14.846,0,0,0-5.922-3.256a2.515,2.515,0,0,0-.393,1.188A1.107,1.107,0,0,0-6-1.154a1.774,1.774,0,0,0,.9.316L-5.289,0h-6.357l.171-.837a3.3,3.3,0,0,0,.966-.5,8.4,8.4,0,0,0,1.128-1.1q.692-.778,2.418-2.828l5.417-6.443L-4.076-18.73a21.216,21.216,0,0,0-.991-2.435,2.975,2.975,0,0,0-.709-.948,2.048,2.048,0,0,0-.9-.376l.188-.837Z" transform="translate(199 162)" fill="#2d2d2d"/></svg>