<svg id="Component_114_1" data-name="Component 114 – 1" xmlns="http://www.w3.org/2000/svg" width="650" height="304" viewBox="0 0 650 304">
  <g id="Path_30" data-name="Path 30" transform="translate(0 4)" fill="#f0f0f0">
    <path d="M 648.5 298.5 L 1.5 298.5 L 1.5 1.5 L 648.5 1.5 L 648.5 298.5 Z" stroke="none"/>
    <path d="M 3 3 L 3 297 L 647 297 L 647 3 L 3 3 M 0 0 L 650 0 L 650 300 L 0 300 L 0 0 Z" stroke="none" fill="#2d2d2d"/>
  </g>
  <text id="_2" data-name="𝑆2" transform="translate(11 38)" fill="#2d2d2d" font-size="35" font-family="SegoeUISymbol, Segoe UI Symbol"><tspan x="0" y="0">𝑆</tspan><tspan y="0" font-size="20.416" font-family="Roboto-Regular, Roboto" baseline-shift="-11.66550036619524">2</tspan></text>
  <g id="Ellipse_76" data-name="Ellipse 76" transform="translate(182 67)" fill="#43afca" stroke="#2d2d2d" stroke-width="2">
    <circle cx="87.5" cy="87.5" r="87.5" stroke="none"/>
    <circle cx="87.5" cy="87.5" r="86.5" fill="none"/>
  </g>
  <g id="Ellipse_75" data-name="Ellipse 75" transform="translate(293 67)" fill="#43afca" stroke="#2d2d2d" stroke-width="2">
    <circle cx="87.5" cy="87.5" r="87.5" stroke="none"/>
    <circle cx="87.5" cy="87.5" r="86.5" fill="none"/>
  </g>
  <g id="Intersection_5" data-name="Intersection 5" transform="translate(8282 1297)" fill="#255e6c">
    <path d="M -7957.5 -1075.734008789063 C -7962.14794921875 -1079.567504882813 -7966.40478515625 -1083.8935546875 -7970.16064453125 -1088.602172851563 C -7974.1103515625 -1093.553833007813 -7977.51708984375 -1098.942016601563 -7980.2861328125 -1104.6171875 C -7983.10546875 -1110.395751953125 -7985.275390625 -1116.497314453125 -7986.736328125 -1122.752685546875 C -7988.23828125 -1129.1865234375 -7989 -1135.830688476563 -7989 -1142.50048828125 C -7989 -1149.170288085938 -7988.23828125 -1155.814331054688 -7986.736328125 -1162.248168945313 C -7985.275390625 -1168.50341796875 -7983.10546875 -1174.60498046875 -7980.2861328125 -1180.38330078125 C -7977.51708984375 -1186.058349609375 -7974.1103515625 -1191.446411132813 -7970.16064453125 -1196.39794921875 C -7966.40478515625 -1201.1064453125 -7962.14794921875 -1205.432373046875 -7957.5 -1209.265747070313 C -7952.85205078125 -1205.432373046875 -7948.59521484375 -1201.1064453125 -7944.83935546875 -1196.39794921875 C -7940.8896484375 -1191.446411132813 -7937.48291015625 -1186.058349609375 -7934.7138671875 -1180.38330078125 C -7931.89453125 -1174.60498046875 -7929.72412109375 -1168.50341796875 -7928.263671875 -1162.248168945313 C -7926.76171875 -1155.814331054688 -7926 -1149.170288085938 -7926 -1142.50048828125 C -7926 -1135.830688476563 -7926.76171875 -1129.1865234375 -7928.263671875 -1122.752685546875 C -7929.724609375 -1116.497314453125 -7931.89453125 -1110.395751953125 -7934.7138671875 -1104.6171875 C -7937.48291015625 -1098.942016601563 -7940.8896484375 -1093.553833007813 -7944.83935546875 -1088.602172851563 C -7948.59521484375 -1083.8935546875 -7952.85205078125 -1079.567504882813 -7957.5 -1075.734008789063 Z" stroke="none"/>
    <path d="M -7957.5 -1207.96435546875 C -7961.84716796875 -1204.307739257813 -7965.837890625 -1200.213256835938 -7969.37890625 -1195.7744140625 C -7973.283203125 -1190.880004882813 -7976.650390625 -1185.55419921875 -7979.38720703125 -1179.94482421875 C -7982.173828125 -1174.233642578125 -7984.31884765625 -1168.203247070313 -7985.76220703125 -1162.020874023438 C -7987.2470703125 -1155.661499023438 -7988 -1149.093872070313 -7988 -1142.50048828125 C -7988 -1135.907104492188 -7987.2470703125 -1129.339477539063 -7985.76220703125 -1122.97998046875 C -7984.31884765625 -1116.797607421875 -7982.173828125 -1110.766967773438 -7979.38720703125 -1105.055786132813 C -7976.650390625 -1099.4462890625 -7973.283203125 -1094.120239257813 -7969.37890625 -1089.225830078125 C -7965.837890625 -1084.786865234375 -7961.84716796875 -1080.692138671875 -7957.5 -1077.035400390625 C -7953.15283203125 -1080.692138671875 -7949.162109375 -1084.786865234375 -7945.62109375 -1089.225830078125 C -7941.716796875 -1094.120239257813 -7938.349609375 -1099.4462890625 -7935.61279296875 -1105.055786132813 C -7932.826171875 -1110.766967773438 -7930.68115234375 -1116.797607421875 -7929.23779296875 -1122.97998046875 C -7927.7529296875 -1129.339477539063 -7927 -1135.907104492188 -7927 -1142.50048828125 C -7927 -1149.093872070313 -7927.7529296875 -1155.661499023438 -7929.23779296875 -1162.020874023438 C -7930.68115234375 -1168.203247070313 -7932.826171875 -1174.233642578125 -7935.61279296875 -1179.94482421875 C -7938.349609375 -1185.55419921875 -7941.716796875 -1190.880004882813 -7945.62109375 -1195.7744140625 C -7949.162109375 -1200.213256835938 -7953.15283203125 -1204.307739257813 -7957.5 -1207.96435546875 M -7957.5 -1210.557006835938 C -7937.673828125 -1194.515991210938 -7925 -1169.98974609375 -7925 -1142.50048828125 C -7925 -1115.01123046875 -7937.673828125 -1090.484252929688 -7957.5 -1074.442749023438 C -7977.326171875 -1090.484252929688 -7990 -1115.01123046875 -7990 -1142.50048828125 C -7990 -1169.98974609375 -7977.326171875 -1194.515991210938 -7957.5 -1210.557006835938 Z" stroke="none" fill="#2d2d2d"/>
  </g>
  <text id="_" data-name="𝐴" transform="translate(250 165)" fill="#2d2d2d" font-size="35" font-family="SegoeUISymbol, Segoe UI Symbol"><tspan x="-11.083" y="0">𝐴</tspan></text>
  <text id="_2-2" data-name="𝐵" transform="translate(401 165)" fill="#2d2d2d" font-size="35" font-family="SegoeUISymbol, Segoe UI Symbol"><tspan x="-11.484" y="0">𝐵</tspan></text>
</svg>
